<?xml version="1.0" encoding="utf-8"?>
<!-- Generator: Adobe Illustrator 24.0.1, SVG Export Plug-In . SVG Version: 6.00 Build 0)  -->
<svg version="1.1" xmlns="http://www.w3.org/2000/svg" xmlns:xlink="http://www.w3.org/1999/xlink" x="0px" y="0px"
	 viewBox="0 0 500 500" style="enable-background:new 0 0 500 500;" xml:space="preserve">
<style type="text/css">
	.st0{fill:#EBEBEB;}
	.st1{fill:#F5F5F5;}
	.st2{fill:#FAFAFA;}
	.st3{fill:#E0E0E0;}
	.st4{display:none;}
	.st5{display:inline;fill:#F5F5F5;}
	.st6{fill:#263238;}
	.st7{fill:#E8505B;}
	.st8{opacity:0.3;}
	.st9{fill:#455A64;}
	.st10{fill:#FFBE9D;}
	.st11{fill:#EB996E;}
	.st12{opacity:0.4;}
	.st13{opacity:0.2;}
</style>
<g id="Background_Complete">
	<g>
		<g>
			<path class="st0" d="M209.09,106.71c0.99-7.22-9.2-13.17-16.86-13.78c-3.65-0.29-7.45,0.26-10.91-0.94
				c-7.5-2.61-10.49-12.3-17.81-15.39c-5.47-2.31-11.77-0.25-17.07,2.42c-5.3,2.67-10.54,6.03-16.47,6.41
				c-5.15,0.33-10.75-1.58-15.26,0.94c-3.36,1.88-5.12,5.75-8.22,8.03c-3.03,2.23-6.98,2.71-10.74,2.91
				c-3.76,0.2-7.65,0.24-11.07,1.81c-3.42,1.57-6.25,5.19-5.54,8.88L209.09,106.71z"/>
		</g>
		<g>
			<path class="st0" d="M112.36,161.05c-0.13,0.07-3.03-5.22-6.48-11.8c-3.45-6.59-6.14-11.98-6.02-12.04
				c0.13-0.07,3.03,5.22,6.48,11.8C109.79,155.6,112.49,160.99,112.36,161.05z"/>
		</g>
		<g>
			<path class="st0" d="M162.76,178.74c-0.13,0.07-3.03-5.22-6.48-11.8c-3.45-6.59-6.14-11.98-6.02-12.04
				c0.13-0.07,3.03,5.22,6.48,11.8C160.19,173.28,162.89,178.67,162.76,178.74z"/>
		</g>
		<g>
			<path class="st0" d="M213.16,196.42c-0.13,0.07-3.03-5.22-6.48-11.8c-3.45-6.59-6.14-11.98-6.02-12.04
				c0.13-0.07,3.03,5.22,6.48,11.8C210.59,190.96,213.29,196.35,213.16,196.42z"/>
		</g>
		<g>
			<path class="st0" d="M263.56,214.1c-0.13,0.07-3.03-5.22-6.48-11.8c-3.45-6.59-6.14-11.98-6.02-12.04
				c0.13-0.07,3.03,5.22,6.48,11.8C260.99,208.64,263.69,214.03,263.56,214.1z"/>
		</g>
		<g>
			<path class="st0" d="M313.96,231.78c-0.13,0.07-3.03-5.22-6.48-11.8c-3.45-6.59-6.14-11.98-6.02-12.04
				c0.13-0.07,3.03,5.22,6.48,11.8C311.39,226.32,314.09,231.71,313.96,231.78z"/>
		</g>
		<g>
			<path class="st0" d="M364.36,249.46c-0.13,0.07-3.03-5.22-6.48-11.8c-3.45-6.59-6.14-11.98-6.01-12.04
				c0.13-0.07,3.03,5.22,6.48,11.8C361.79,244,364.49,249.39,364.36,249.46z"/>
		</g>
		<g>
			<path class="st0" d="M325.92,194.7c-0.13,0.07-3.03-5.22-6.48-11.8c-3.45-6.59-6.14-11.98-6.02-12.04
				c0.13-0.07,3.03,5.22,6.48,11.8C323.35,189.25,326.05,194.64,325.92,194.7z"/>
		</g>
		<g>
			<path class="st0" d="M222.35,262.94c-0.13,0.07-3.03-5.22-6.48-11.8c-3.45-6.59-6.14-11.98-6.02-12.04s3.03,5.22,6.48,11.8
				C219.78,257.48,222.48,262.87,222.35,262.94z"/>
		</g>
		<g>
			<path class="st0" d="M156.46,230.66c-0.13,0.07-3.03-5.22-6.48-11.8c-3.45-6.59-6.14-11.98-6.02-12.04
				c0.13-0.07,3.03,5.22,6.48,11.8C153.9,225.21,156.59,230.6,156.46,230.66z"/>
		</g>
		<g>
			<path class="st0" d="M271.03,169.15c-0.13,0.07-3.03-5.22-6.48-11.8c-3.45-6.59-6.14-11.98-6.02-12.04
				c0.13-0.07,3.03,5.22,6.48,11.8C268.46,163.69,271.16,169.08,271.03,169.15z"/>
		</g>
		<g>
			<path class="st0" d="M332.16,148.02c-0.13,0.07-3.03-5.22-6.48-11.8c-3.45-6.59-6.14-11.98-6.02-12.04
				c0.13-0.07,3.03,5.22,6.48,11.8C329.6,142.56,332.29,147.95,332.16,148.02z"/>
		</g>
		<g>
			<path class="st0" d="M383.26,143.87c-0.13,0.07-3.03-5.22-6.48-11.8c-3.45-6.59-6.14-11.98-6.02-12.04
				c0.13-0.07,3.03,5.22,6.48,11.8C380.69,138.41,383.39,143.8,383.26,143.87z"/>
		</g>
		<g>
			<path class="st0" d="M334.73,96.09c-0.13,0.07-3.03-5.22-6.48-11.8c-3.45-6.59-6.14-11.98-6.02-12.04
				c0.13-0.07,3.03,5.22,6.48,11.8C332.17,90.64,334.86,96.03,334.73,96.09z"/>
		</g>
		<g>
			<path class="st0" d="M216.14,143.6c-0.13,0.07-3.03-5.22-6.48-11.8c-3.45-6.59-6.14-11.98-6.02-12.04
				c0.13-0.07,3.03,5.22,6.48,11.8C213.58,138.14,216.27,143.53,216.14,143.6z"/>
		</g>
		<g>
			<path class="st0" d="M247.23,103.79c-0.13,0.07-3.03-5.22-6.48-11.8c-3.45-6.59-6.14-11.98-6.02-12.04
				c0.13-0.07,3.03,5.22,6.48,11.8C244.66,98.33,247.36,103.72,247.23,103.79z"/>
		</g>
		<g>
			<path class="st0" d="M162.76,131.67c-0.13,0.07-3.03-5.22-6.48-11.8c-3.45-6.59-6.14-11.98-6.02-12.04
				c0.13-0.07,3.03,5.22,6.48,11.8C160.19,126.21,162.89,131.61,162.76,131.67z"/>
		</g>
		<g>
			<path class="st1" d="M370.18,74.13c1.14-8.28-10.55-15.09-19.33-15.8c-4.19-0.34-8.54,0.3-12.5-1.08
				c-8.6-3-12.03-14.1-20.42-17.64c-6.27-2.64-13.49-0.29-19.57,2.77s-12.09,6.91-18.88,7.34c-5.91,0.38-12.32-1.81-17.49,1.07
				c-3.85,2.15-5.87,6.59-9.42,9.21c-3.47,2.56-8,3.1-12.31,3.34c-4.31,0.23-8.77,0.28-12.69,2.07c-3.92,1.8-7.17,5.95-6.36,10.18
				L370.18,74.13z"/>
		</g>
		<g>
			<path class="st2" d="M336.26,125.72c0.68-4.95-6.31-9.03-11.57-9.45c-2.51-0.2-5.11,0.18-7.48-0.65
				c-5.14-1.79-7.2-8.44-12.22-10.55c-3.75-1.58-8.07-0.17-11.71,1.66c-3.64,1.83-7.23,4.13-11.3,4.39
				c-3.53,0.23-7.37-1.08-10.47,0.64c-2.3,1.29-3.51,3.94-5.64,5.51c-2.08,1.53-4.79,1.86-7.37,2c-2.58,0.14-5.25,0.17-7.6,1.24
				c-2.35,1.07-4.29,3.56-3.8,6.09L336.26,125.72z"/>
		</g>
	</g>
	<path class="st0" d="M112.66,453.84c8.68,13.27,27.1,19.18,41.88,13.42c6.97-2.72,12.91-7.61,19.8-10.53
		c9.45-4.01,20.16-4.08,30.28-2.35c10.12,1.73,19.85,5.16,29.72,8c22.07,6.35,44.98,9.74,67.94,10.05c14.3,0.2,28.9-0.86,42.17-6.21
		c13.26-5.35,25.13-15.55,29.72-29.1c0,0-269.49-1.5-271,0c-1.5,1.5-3.21,3.21-3.21,3.21L112.66,453.84z"/>
	<g>
		<g>
			<g>
				<g>
					<g>
						<path class="st1" d="M115.18,416.22c20.8-9.82,29.12-33.21,32.08-55c0.49-3.64,1.54-7.38,0.36-10.85
							c-1.18-3.47-4.83-6.32-8.32-5.35c-2.9,0.81-4.6,3.73-6.55,6.06c-2.58,3.1-6.05,5.44-9.86,6.66c-2.51,0.8-5.48,1.05-7.54-0.59
							c-2.83-2.25-2.46-6.63-1.83-10.22c1.18-6.7,2.37-13.4,3.55-20.09c0.64-3.59,1.27-7.26,0.73-10.87
							c-0.54-3.6-2.47-7.2-5.73-8.74c-3.26-1.54-7.83-0.29-9.15,3.11c-0.55,1.41-0.51,2.99-0.87,4.46
							c-0.35,1.48-1.33,3.01-2.82,3.18c-1.51,0.18-2.77-1.09-3.67-2.32c-3.09-4.26-4.82-9.37-6.38-14.43
							c-1.56-5.05-3.04-10.21-5.73-14.74c-2.69-4.54-6.82-8.47-11.92-9.64c-5.1-1.17-11.13,1.08-13.3,5.91
							c-2.17,4.85-0.09,10.5,2.43,15.15c3.74,6.9,8.47,13.25,14,18.78c1,1,2.08,2.08,2.28,3.48c0.37,2.53-2.31,4.53-4.81,4.91
							c-2.83,0.44-5.7-0.34-8.56-0.49c-2.86-0.15-6.11,0.57-7.62,3.04c-2.1,3.43,0.32,7.8,2.91,10.84
							c5.2,6.09,11.44,11.26,18.36,15.22c2.48,1.42,5.12,2.74,6.94,4.97c1.82,2.22,2.55,5.68,0.83,7.99
							c-1.72,2.32-5.17,2.56-7.85,1.58c-2.68-0.99-4.91-2.91-7.38-4.36c-4.63-2.71-11.07-3.45-14.96,0.28
							c-2.56,2.45-3.41,6.33-2.93,9.86c0.48,3.53,2.13,6.77,3.94,9.82c6.34,10.65,15.21,19.86,26,25.79
							C92.63,415.56,103.07,418.44,115.18,416.22"/>
					</g>
				</g>
			</g>
		</g>
		<g>
			<g>
				<g>
					<g>
						<g>
							<path class="st3" d="M111.9,401.68c-1.33-11.48-3.82-23.94-6.88-36.88c-0.78-3.23-1.54-6.43-2.3-9.58
								c-0.76-3.14-1.52-6.26-2.45-9.26c-1.83-6.01-4.05-11.65-6.32-16.94c-2.27-5.29-4.62-10.23-6.85-14.83
								c-2.24-4.6-4.41-8.84-6.55-12.63c-4.26-7.59-8.41-13.3-11.42-17.1c-1.5-1.91-2.71-3.35-3.55-4.31
								c-0.4-0.46-0.72-0.82-0.96-1.09c-0.22-0.24-0.33-0.36-0.34-0.36c-0.01,0.01,0.09,0.14,0.29,0.4
								c0.23,0.28,0.53,0.66,0.91,1.13c0.8,0.99,1.98,2.46,3.45,4.39c2.94,3.85,7.02,9.57,11.21,17.17
								c2.11,3.79,4.25,8.04,6.46,12.64c2.21,4.61,4.53,9.55,6.78,14.83c2.25,5.28,4.45,10.91,6.26,16.89
								c0.92,2.99,1.66,6.07,2.43,9.22c0.76,3.15,1.52,6.34,2.3,9.57c3.06,12.93,5.57,25.36,6.92,36.8"/>
						</g>
					</g>
				</g>
			</g>
		</g>
		<g>
			<g>
				<g>
					<g>
						<g>
							<path class="st3" d="M100.09,345.9c0.04,0.01,0.26-0.51,0.61-1.47c0.36-0.96,0.83-2.37,1.39-4.12c1.12-3.5,2.5-8.37,4-13.76
								c1.5-5.39,2.95-10.23,4.12-13.7c0.58-1.74,1.06-3.14,1.41-4.1c0.34-0.97,0.51-1.51,0.47-1.53c-0.04-0.02-0.29,0.49-0.71,1.43
								c-0.42,0.94-0.97,2.32-1.61,4.04c-1.29,3.44-2.81,8.28-4.32,13.68c-1.47,5.32-2.8,10.13-3.81,13.81
								c-0.47,1.66-0.86,3.05-1.18,4.18C100.17,345.34,100.04,345.89,100.09,345.9z"/>
						</g>
					</g>
				</g>
			</g>
		</g>
		<g>
			<g>
				<g>
					<g>
						<g>
							<path class="st3" d="M55.31,329.38c-0.01,0.05,0.64,0.23,1.81,0.54c1.17,0.31,2.86,0.74,4.94,1.35
								c4.16,1.18,9.85,3.01,16.03,5.3c6.18,2.3,11.69,4.63,15.63,6.42c1.98,0.88,3.55,1.64,4.65,2.16
								c1.09,0.52,1.71,0.79,1.73,0.75c0.02-0.04-0.55-0.39-1.61-0.99c-1.06-0.59-2.61-1.42-4.57-2.36
								c-3.89-1.91-9.39-4.31-15.59-6.63c-6.2-2.3-11.94-4.06-16.14-5.13c-2.1-0.55-3.81-0.92-5-1.14
								C55.98,329.44,55.32,329.34,55.31,329.38z"/>
						</g>
					</g>
				</g>
			</g>
		</g>
		<g>
			<g>
				<g>
					<g>
						<g>
							<path class="st3" d="M111.48,400.73c0.02,0.01,0.16-0.16,0.41-0.51c0.29-0.42,0.65-0.92,1.08-1.54
								c0.93-1.34,2.22-3.31,3.79-5.77c3.13-4.92,7.25-11.85,11.69-19.56c4.44-7.71,8.49-14.67,11.51-19.65
								c1.48-2.42,2.7-4.41,3.6-5.88c0.39-0.64,0.71-1.17,0.97-1.61c0.22-0.37,0.32-0.57,0.3-0.59c-0.02-0.01-0.16,0.16-0.41,0.51
								c-0.29,0.42-0.65,0.92-1.08,1.54c-0.93,1.34-2.22,3.31-3.79,5.77c-3.13,4.92-7.25,11.85-11.69,19.56
								c-4.44,7.71-8.48,14.67-11.51,19.64c-1.48,2.42-2.7,4.41-3.6,5.88c-0.39,0.64-0.71,1.17-0.97,1.61
								C111.56,400.52,111.46,400.72,111.48,400.73z"/>
						</g>
					</g>
				</g>
			</g>
		</g>
		<g>
			<g>
				<g>
					<g>
						<g>
							<path class="st3" d="M53.39,370.45c-0.01,0.02,0.19,0.14,0.57,0.36c0.45,0.24,1.01,0.54,1.68,0.9
								c1.56,0.82,3.66,1.92,6.22,3.25c5.25,2.75,12.46,6.63,20.42,10.93c7.96,4.3,15.21,8.12,20.52,10.76
								c2.65,1.32,4.81,2.37,6.32,3.06c0.7,0.32,1.27,0.58,1.74,0.79c0.4,0.17,0.62,0.25,0.63,0.23c0.01-0.02-0.19-0.14-0.57-0.36
								c-0.45-0.24-1.01-0.54-1.68-0.9c-1.56-0.82-3.66-1.91-6.22-3.25c-5.25-2.75-12.46-6.63-20.42-10.93
								c-7.96-4.3-15.21-8.11-20.52-10.76c-2.65-1.32-4.81-2.37-6.32-3.06c-0.7-0.32-1.27-0.58-1.74-0.79
								C53.62,370.51,53.4,370.43,53.39,370.45z"/>
						</g>
					</g>
				</g>
			</g>
		</g>
	</g>
</g>
<g id="Background_Simple" class="st4">
	<path class="st5" d="M444.31,163.01c-16.05-39.45-46.59-74.66-86.99-88.15s-90.35-0.88-113.43,34.91
		c-14.03,21.76-17.03,48.6-25.63,73.03c-5.48,15.57-14.15,31.15-28.7,38.94c-12.75,6.83-27.92,6.64-42.38,7.02
		c-34.92,0.92-72.68,7.66-96.31,33.39c-25.31,27.54-27.11,71.27-11.38,105.2c15.73,33.93,47.55,48.28,80.24,66.46l183.77,1.71
		C360.03,422.25,410,383.29,436.66,331.7C463.32,280.1,466.19,216.8,444.31,163.01z"/>
	<path class="st5" d="M174.55,96.31c-15.12-16.58-41.51-21.8-61.61-11.82c-11.19-2.54-29.89,19.27-35.31,29.38
		c-5.43,10.11-5.13,22.54-1.53,33.44c7.03,21.31,26.93,37.92,49.22,40.53c22.29,2.62,45.72-9.17,56.49-28.86
		S189.68,112.88,174.55,96.31z"/>
</g>
<g id="Floor">
	<g>
		<path class="st6" d="M464.67,435.49c0,0.14-97.91,0.26-218.66,0.26c-120.79,0-218.68-0.12-218.68-0.26
			c0-0.14,97.89-0.26,218.68-0.26C366.76,435.23,464.67,435.34,464.67,435.49z"/>
	</g>
</g>
<g id="Character">
	<g>
		<g>
			<g>
				<g>
					<path class="st7" d="M110.1,371.15l-20.17,31.34c0,0-38.63-9.97-42.92-4.54l59.37,41.29l33.43-47.55L110.1,371.15z"/>
					<path class="st8" d="M110.1,371.15l-20.17,31.34c0,0-38.63-9.97-42.92-4.54l59.37,41.29l33.43-47.55L110.1,371.15z"/>
					<g>
						<path class="st3" d="M110.08,412.69c0.93,1.11,0.83,2.96-0.25,3.93c-1.07,0.98-2.95,0.89-3.9-0.21
							c-0.95-1.1-0.89-3.31,0.28-4.16c1.18-0.85,3.37-0.62,4.03,0.67"/>
					</g>
					<path class="st3" d="M106.38,439.24l3.32-4.73l-58.25-37.94c0,0-3.44-0.69-4.44,1.38L106.38,439.24z"/>
					<g>
						<path class="st6" d="M89.18,401.52c-0.19,0.3,1.17,1.44,1.94,3.36c0.83,1.9,0.69,3.67,1.04,3.74c0.31,0.13,1.08-1.9,0.1-4.22
							C91.29,402.08,89.3,401.21,89.18,401.52z"/>
					</g>
					<g>
						<path class="st6" d="M81.16,399.76c-0.26,0.23,0.65,1.6,0.78,3.51c0.19,1.91-0.49,3.41-0.19,3.59
							c0.24,0.24,1.62-1.32,1.41-3.7C82.98,400.8,81.36,399.49,81.16,399.76z"/>
					</g>
					<g>
						<path class="st6" d="M72.44,404.76c0.22,0.25,1.63-0.92,1.99-3.03c0.37-2.1-0.56-3.68-0.85-3.52
							c-0.33,0.12-0.04,1.59-0.36,3.31C72.94,403.25,72.17,404.53,72.44,404.76z"/>
					</g>
					<g>
						<path class="st6" d="M94.57,394.89c-0.06,0.35,1.55,0.87,3.11,2.12c1.59,1.22,2.48,2.66,2.8,2.51
							c0.31-0.09-0.19-2.03-2.04-3.48C96.58,394.58,94.58,394.56,94.57,394.89z"/>
					</g>
				</g>
				<g>
					<path class="st6" d="M98.75,388.64c-0.09,0.12,0.93,1.09,2.98,2.05c1.02,0.48,2.3,0.92,3.78,1.21
						c0.74,0.14,1.52,0.24,2.34,0.28c0.4,0.01,0.84,0.06,1.38-0.07c0.53-0.08,1.25-0.72,1.21-1.45c0.01-0.67-0.39-1.24-0.81-1.55
						c-0.43-0.32-0.84-0.48-1.22-0.62c-0.77-0.3-1.55-0.51-2.29-0.65c-1.49-0.27-2.87-0.26-3.99-0.11c-2.26,0.32-3.49,1.07-3.43,1.2
						c0.06,0.19,1.37-0.25,3.5-0.33c1.06-0.04,2.33,0.04,3.69,0.35c0.68,0.16,1.38,0.37,2.07,0.66c0.74,0.27,1.28,0.64,1.25,1.03
						c-0.02,0.15-0.04,0.2-0.3,0.29c-0.25,0.07-0.62,0.06-1.02,0.05c-0.76-0.02-1.5-0.09-2.2-0.19c-1.39-0.21-2.63-0.54-3.64-0.9
						C100.03,389.18,98.86,388.48,98.75,388.64z"/>
				</g>
				<g>
					<path class="st6" d="M98.84,389.32c0.07,0.12,1.37-0.52,2.78-2.33c0.7-0.9,1.39-2.09,1.86-3.54c0.23-0.72,0.41-1.51,0.5-2.33
						c0.06-0.83,0.18-1.91-0.85-2.82c-0.57-0.43-1.38-0.31-1.82-0.03c-0.48,0.26-0.75,0.58-1.06,0.88c-0.59,0.62-1.05,1.31-1.39,2
						c-0.69,1.39-0.91,2.8-0.87,3.95c0.09,2.35,1.06,3.53,1.15,3.45c0.2-0.08-0.42-1.34-0.28-3.44c0.07-1.03,0.35-2.26,1-3.45
						c0.32-0.59,0.74-1.17,1.25-1.68c0.53-0.57,1.12-0.91,1.31-0.68c0.3,0.2,0.47,1.02,0.36,1.7c-0.07,0.74-0.2,1.46-0.38,2.12
						c-0.37,1.33-0.93,2.47-1.49,3.37C99.78,388.29,98.71,389.16,98.84,389.32z"/>
				</g>
			</g>
		</g>
		<g>
			<g>
				<g>
					<path class="st7" d="M116.33,400.08l-20.17,31.34c0,0-38.63-9.97-42.92-4.54l59.37,41.29l33.43-47.55L116.33,400.08z"/>
					<g>
						<path class="st3" d="M116.31,441.62c0.93,1.11,0.83,2.96-0.25,3.93c-1.07,0.98-2.95,0.89-3.9-0.21
							c-0.95-1.1-0.89-3.31,0.28-4.16c1.18-0.85,3.37-0.62,4.03,0.67"/>
					</g>
					<path class="st3" d="M112.61,468.17l3.32-4.73L57.68,425.5c0,0-3.44-0.69-4.44,1.38L112.61,468.17z"/>
					<g>
						<path class="st6" d="M95.41,430.45c-0.19,0.3,1.17,1.44,1.94,3.36c0.83,1.9,0.69,3.67,1.04,3.74c0.31,0.13,1.08-1.9,0.1-4.22
							C97.53,431.02,95.54,430.14,95.41,430.45z"/>
					</g>
					<g>
						<path class="st6" d="M87.39,428.7c-0.26,0.23,0.65,1.6,0.78,3.51c0.19,1.91-0.49,3.41-0.19,3.59c0.24,0.24,1.62-1.32,1.41-3.7
							C89.21,429.73,87.59,428.42,87.39,428.7z"/>
					</g>
					<g>
						<path class="st6" d="M78.68,433.69c0.22,0.25,1.63-0.92,1.99-3.03c0.37-2.1-0.56-3.68-0.85-3.52
							c-0.33,0.12-0.04,1.59-0.36,3.31C79.17,432.18,78.41,433.46,78.68,433.69z"/>
					</g>
					<g>
						<path class="st6" d="M100.8,423.82c-0.06,0.35,1.55,0.87,3.11,2.12c1.59,1.22,2.48,2.66,2.8,2.51
							c0.31-0.09-0.19-2.03-2.04-3.48C102.82,423.51,100.82,423.49,100.8,423.82z"/>
					</g>
				</g>
				<g>
					<path class="st6" d="M104.99,417.57c-0.09,0.12,0.93,1.09,2.98,2.05c1.02,0.48,2.3,0.92,3.78,1.21
						c0.74,0.14,1.52,0.24,2.34,0.28c0.4,0.01,0.84,0.06,1.38-0.07c0.53-0.08,1.25-0.72,1.21-1.45c0.01-0.67-0.39-1.24-0.81-1.55
						c-0.43-0.32-0.84-0.48-1.22-0.62c-0.77-0.3-1.55-0.51-2.29-0.65c-1.49-0.27-2.87-0.26-3.99-0.11c-2.26,0.32-3.49,1.07-3.43,1.2
						c0.06,0.19,1.37-0.25,3.5-0.33c1.06-0.04,2.33,0.04,3.69,0.35c0.68,0.16,1.38,0.37,2.07,0.66c0.74,0.27,1.28,0.64,1.25,1.03
						c-0.02,0.15-0.04,0.2-0.3,0.29c-0.25,0.07-0.62,0.06-1.02,0.05c-0.76-0.02-1.5-0.09-2.2-0.19c-1.39-0.21-2.63-0.54-3.64-0.9
						C106.27,418.11,105.09,417.41,104.99,417.57z"/>
				</g>
				<g>
					<path class="st6" d="M105.08,418.25c0.07,0.12,1.37-0.52,2.78-2.33c0.7-0.9,1.39-2.09,1.86-3.54c0.23-0.72,0.41-1.51,0.5-2.33
						c0.06-0.83,0.18-1.91-0.85-2.82c-0.57-0.43-1.38-0.31-1.82-0.03c-0.48,0.26-0.75,0.58-1.06,0.88c-0.59,0.62-1.05,1.31-1.39,2
						c-0.69,1.39-0.91,2.8-0.87,3.95c0.09,2.35,1.06,3.53,1.15,3.45c0.2-0.08-0.42-1.34-0.28-3.44c0.07-1.03,0.35-2.26,1-3.45
						c0.32-0.59,0.74-1.17,1.25-1.68c0.53-0.57,1.12-0.91,1.31-0.68c0.3,0.2,0.47,1.02,0.36,1.7c-0.07,0.74-0.2,1.46-0.38,2.12
						c-0.37,1.33-0.93,2.47-1.49,3.37C106.01,417.22,104.95,418.09,105.08,418.25z"/>
				</g>
			</g>
		</g>
		<g>
			<path class="st6" d="M107.82,406.43c0,0,17.35-32.58,15-29.33c-6.41,8.85,31.25-44.83,48.35-72.32
				c5.5-8.85,14.75-14.69,25.1-15.87v0c10.47-1.19,20.9,2.53,28.25,10.08l97.17,99.71l45.2,26.32c0,0-11.12,23.73-46.96,28.7
				c-35.84,4.98-57.9-24.05-75.98-42.53c-21.31-21.79-42.65-51.06-42.65-51.06l-56.63,74.75
				C144.67,434.87,109.63,408.56,107.82,406.43z"/>
			<path class="st6" d="M177.5,294.82L177.5,294.82c-13.24,3.18-24.91,11.01-32.87,22.06L94.7,385.49L118.77,402L177.5,294.82z"/>
			<g>
				<path class="st9" d="M169.16,302.6c0.01,0.01-0.06,0.09-0.19,0.25c-0.15,0.18-0.35,0.41-0.59,0.7
					c-0.27,0.31-0.59,0.69-0.97,1.12c-0.38,0.45-0.76,1.01-1.22,1.62c-1.86,2.42-4.26,6.13-7.19,10.73
					c-5.77,9.27-13.33,22.33-21.51,36.84c-8.15,14.52-15.53,27.67-20.89,37.22c-2.68,4.73-4.86,8.56-6.38,11.25
					c-0.75,1.3-1.34,2.32-1.76,3.04c-0.19,0.32-0.35,0.58-0.47,0.79c-0.11,0.18-0.17,0.26-0.18,0.26c-0.01,0,0.04-0.1,0.13-0.28
					c0.11-0.21,0.25-0.48,0.42-0.81c0.4-0.74,0.96-1.77,1.68-3.09c1.49-2.71,3.62-6.57,6.24-11.33c5.28-9.56,12.56-22.78,20.75-37.3
					c8.18-14.52,15.79-27.56,21.65-36.78c2.97-4.59,5.42-8.27,7.34-10.66c0.47-0.6,0.87-1.15,1.26-1.59
					c0.39-0.43,0.73-0.79,1.01-1.1c0.26-0.28,0.47-0.49,0.63-0.67C169.08,302.67,169.16,302.6,169.16,302.6z"/>
			</g>
			<g>
				<path class="st9" d="M199.9,341.89c0.08,0.01,0.05,1.06,0.07,2.76c0.01,1.7,0.1,4.04,0.39,6.61c0.29,2.57,0.73,4.87,1.1,6.53
					c0.36,1.66,0.63,2.68,0.55,2.7c-0.06,0.02-0.45-0.96-0.91-2.61c-0.46-1.65-0.96-3.96-1.26-6.56c-0.29-2.6-0.32-4.96-0.24-6.67
					C199.67,342.93,199.83,341.88,199.9,341.89z"/>
			</g>
			<g>
				<path class="st9" d="M206.53,339.79c0.07,0.03-0.29,1.13-0.84,2.92c-0.55,1.79-1.25,4.28-1.86,7.07
					c-0.61,2.79-1.01,5.34-1.26,7.2c-0.25,1.86-0.38,3.01-0.46,3c-0.07,0-0.07-1.17,0.09-3.05c0.16-1.88,0.51-4.46,1.12-7.27
					c0.62-2.81,1.38-5.3,2.02-7.07C205.98,340.82,206.47,339.76,206.53,339.79z"/>
			</g>
		</g>
		<g>
			<g>
				<g>
					<g>
						<g>
							<g>
								<g>
									<g>
										<g>
											<g>
												<g>
													<g>
														<g>
															<g>
																<g>
																	<g>
																		<g>
																			<path class="st10" d="M272.14,170.49l26.01,60.75c4.42,10.33-0.7,22.26-11.24,26.17l0,0
																				c-9.83,3.65-20.8-1.08-24.92-10.72c-1.95-4.58-3.59-8.39-3.82-8.84c0,0-16.09,5.17-23.76-9.66
																				c-3.71-7.17-10.14-22.55-15.8-36.53c-6.08-15.02,0.42-32.19,14.9-39.45l1.44-0.72
																				C250.94,144.6,265.71,154.33,272.14,170.49z"/>
																		</g>
																	</g>
																</g>
															</g>
														</g>
													</g>
												</g>
											</g>
										</g>
										<g>
											<g>
												<g>
													<g>
														<g>
															<g>
																<g>
																	<g>
																		<g>
																			<path class="st11" d="M258.04,237.65c0,0,9.82-3.96,16.68-15.29c0,0,0.79,13.05-14.77,19.17L258.04,237.65z"/>
																		</g>
																	</g>
																</g>
															</g>
														</g>
													</g>
												</g>
											</g>
										</g>
									</g>
								</g>
							</g>
							<g>
								<g>
									<g>
										<g>
											<g>
												<g>
													<g>
														<g>
															<g>
																<g>
																	<g>
																		<g>
																			<g>
																				<g>
																					<g>
																						<path class="st6" d="M227.82,200.83c0.52,1.15,1.93,1.65,3.13,1.12c1.2-0.53,1.76-1.88,1.23-3.02
																							c-0.52-1.15-1.93-1.65-3.13-1.12C227.84,198.33,227.29,199.69,227.82,200.83z"/>
																					</g>
																				</g>
																			</g>
																		</g>
																	</g>
																</g>
															</g>
														</g>
													</g>
													<g>
														<g>
															<g>
																<g>
																	<g>
																		<g>
																			<g>
																				<g>
																					<g>
																						<g>
																							<path class="st6" d="M224.85,197.98c0.4,0.15,1.42-1.86,3.72-3c2.28-1.18,4.55-0.84,4.66-1.25
																								c0.06-0.19-0.46-0.55-1.46-0.72c-0.99-0.17-2.48-0.07-3.9,0.65c-1.42,0.72-2.36,1.85-2.78,2.74
																								C224.64,197.3,224.66,197.92,224.85,197.98z"/>
																						</g>
																					</g>
																				</g>
																			</g>
																		</g>
																	</g>
																</g>
															</g>
														</g>
													</g>
												</g>
												<g>
													<g>
														<g>
															<g>
																<g>
																	<g>
																		<g>
																			<g>
																				<g>
																					<g>
																						<path class="st6" d="M250.27,189.94c0.52,1.15,1.93,1.65,3.13,1.12c1.2-0.53,1.76-1.88,1.23-3.02
																							c-0.52-1.15-1.93-1.65-3.13-1.12C250.3,187.44,249.74,188.8,250.27,189.94z"/>
																					</g>
																				</g>
																			</g>
																		</g>
																	</g>
																</g>
															</g>
														</g>
													</g>
													<g>
														<g>
															<g>
																<g>
																	<g>
																		<g>
																			<g>
																				<g>
																					<g>
																						<g>
																							<path class="st6" d="M248.06,186.69c0.38,0.2,1.65-1.66,4.08-2.49c2.41-0.87,4.62-0.24,4.78-0.63
																								c0.08-0.18-0.38-0.61-1.36-0.9c-0.96-0.3-2.45-0.39-3.95,0.14c-1.51,0.53-2.58,1.53-3.12,2.35
																								C247.95,185.98,247.88,186.6,248.06,186.69z"/>
																						</g>
																					</g>
																				</g>
																			</g>
																		</g>
																	</g>
																</g>
															</g>
														</g>
													</g>
												</g>
												<g>
													<g>
														<g>
															<g>
																<g>
																	<g>
																		<g>
																			<g>
																				<g>
																					<g>
																						<path class="st6" d="M248.46,207.67c-0.05-0.14-1.6,0.33-4.06,1.2c-0.62,0.23-1.23,0.4-1.53,0.04
																							c-0.35-0.35-0.42-1.11-0.48-1.93c-0.16-1.69-0.33-3.47-0.51-5.33c-0.78-7.55-1.66-13.65-1.96-13.61
																							c-0.3,0.03,0.08,6.19,0.86,13.74c0.21,1.86,0.4,3.63,0.59,5.32c0.11,0.78,0.11,1.72,0.85,2.45
																							c0.38,0.36,0.97,0.46,1.39,0.37c0.43-0.07,0.77-0.23,1.06-0.36C247.07,208.52,248.52,207.8,248.46,207.67z"/>
																					</g>
																				</g>
																			</g>
																		</g>
																	</g>
																</g>
															</g>
														</g>
													</g>
												</g>
											</g>
										</g>
									</g>
									<g>
										<g>
											<g>
												<g>
													<g>
														<g>
															<g>
																<g>
																	<g>
																		<path class="st6" d="M256.88,177.73c-0.36-0.65-2.84,0.09-5.87,0.22c-3.03,0.19-5.56-0.29-5.86,0.4
																			c-0.13,0.32,0.4,0.9,1.47,1.41c1.07,0.51,2.7,0.89,4.52,0.79c1.81-0.1,3.4-0.65,4.41-1.27
																			C256.59,178.67,257.05,178.04,256.88,177.73z"/>
																	</g>
																</g>
															</g>
														</g>
													</g>
												</g>
											</g>
										</g>
									</g>
									<g>
										<g>
											<g>
												<g>
													<g>
														<g>
															<g>
																<g>
																	<g>
																		<path class="st6" d="M228.24,189.62c-0.7-0.24-1.84,1.24-3.59,2.44c-1.71,1.26-3.49,1.84-3.5,2.58
																			c0.01,0.35,0.57,0.68,1.53,0.7c0.95,0.03,2.28-0.31,3.47-1.15c1.19-0.85,1.96-1.98,2.24-2.89
																			C228.69,190.38,228.57,189.75,228.24,189.62z"/>
																	</g>
																</g>
															</g>
														</g>
													</g>
												</g>
											</g>
										</g>
									</g>
								</g>
							</g>
							<g>
								<g>
									<g>
										<g>
											<g>
												<g>
													<g>
														<g>
															<g>
																<g>
																	<path class="st10" d="M276.47,182.15c0.2-0.24,8.73-8.18,13.52,2.19c4.79,10.37-6.6,13.04-6.76,12.75
																		C283.08,196.8,276.47,182.15,276.47,182.15z"/>
																</g>
															</g>
														</g>
													</g>
												</g>
											</g>
										</g>
									</g>
								</g>
								<g>
									<g>
										<g>
											<g>
												<g>
													<g>
														<g>
															<g>
																<g>
																	<g>
																		<path class="st11" d="M284.59,191.7c0.03-0.05,0.24,0.04,0.61,0.04c0.36,0,0.92-0.14,1.36-0.6
																			c0.91-0.91,1.03-3.07,0.21-4.96c-0.41-0.96-1.02-1.76-1.7-2.35c-0.67-0.61-1.4-0.92-2-0.76
																			c-0.61,0.13-0.85,0.64-0.84,0.99c0,0.35,0.16,0.53,0.11,0.57c-0.02,0.04-0.3-0.07-0.42-0.54
																			c-0.05-0.23-0.04-0.53,0.11-0.84c0.16-0.32,0.47-0.59,0.88-0.73c0.82-0.31,1.88,0.09,2.63,0.74
																			c0.79,0.63,1.5,1.53,1.96,2.6c0.9,2.12,0.73,4.57-0.56,5.69c-0.64,0.53-1.35,0.59-1.78,0.49
																			C284.72,191.94,284.56,191.73,284.59,191.7z"/>
																	</g>
																</g>
															</g>
														</g>
													</g>
												</g>
											</g>
										</g>
									</g>
								</g>
							</g>
						</g>
					</g>
					<g>
						<g>
							<g>
								<g>
									<g>
										<path class="st6" d="M281.97,178.96c-1.74,0.4-3.72,3.19-3.65,4.98c0.07,1.79,0.75,3.51,0.82,5.3
											c0.07,1.79-0.76,3.86-2.51,4.27c-1.2,0.28-2.48-0.34-3.29-1.26c-0.82-0.92-1.27-2.11-1.68-3.28
											c-1.79-5.07-3.16-10.29-5.37-15.19c-2.22-4.89-5.4-9.54-9.97-12.36c-4.57-2.82-10.71-3.51-15.3-0.72
											c-3.04,1.85-5.12,4.96-8.05,6.98c-3.47,2.4-8.08,3.06-12.09,1.74c-0.14-0.04-0.38-0.1-0.67-0.15
											c-1.35-0.23-2.45-1.32-2.58-2.69c-0.04-0.47-0.02-0.92,0.11-1.28c3.35-8.91,13.8-16.18,23.1-18.24
											c9.3-2.06,19.96-0.12,27.39,5.84C275.66,158.86,280,170.15,281.97,178.96"/>
									</g>
								</g>
							</g>
						</g>
					</g>
				</g>
			</g>
			<g>
				<path class="st6" d="M256.92,210.51c-0.03,0.16-0.56,0.15-1.33,0.28c-0.77,0.14-1.81,0.45-2.77,1.15
					c-0.97,0.68-1.67,1.53-2.11,2.19c-0.44,0.66-0.66,1.13-0.81,1.1c-0.13-0.02-0.17-0.59,0.15-1.44c0.31-0.83,1.03-1.91,2.17-2.7
					c1.12-0.82,2.44-1.08,3.32-1.03C256.45,210.11,256.94,210.38,256.92,210.51z"/>
			</g>
			<g>
				<path class="st11" d="M258.74,188.4c0.14,0.01-0.05,1.31-1.2,2.35c-1.14,1.05-2.46,1.12-2.45,0.98
					c-0.03-0.15,1.09-0.43,2.1-1.36C258.21,189.45,258.59,188.35,258.74,188.4z"/>
			</g>
		</g>
		<g>
			<g>
				<path class="st10" d="M175.59,206.87L191.37,178l13.01-10.48l16.78,2.31c0,0,4.82,5.49,2.96,8.21
					c-1.86,2.72-3.54,9.55-5.43,7.06c-1.89-2.49-2.28-7.75-2.28-7.75l-4.43-0.24l0.04,7.81l8.92,2.71c0,0,8.81-7.34,9.71-5.73
					c0.89,1.61,0.11,4.58-4.93,8.85c-5.05,4.27-11.16,10.86-11.16,10.86l-7.93,1.88l-7.13,11.38L175.59,206.87z"/>
				<g>
					<path class="st7" d="M264.74,243.95l-82.85,25.19l19.4-55.31l-26.32-8.22l-29.91,61.44c-9.03,21.25-6.57,30.64,1.82,39.86l0,0
						c6.75,7.41,24.48,3.79,34.33,1.95l72.49-11.3L264.74,243.95z"/>
					<path class="st12" d="M264.74,243.95l-82.85,25.19l19.4-55.31l-26.32-8.22l-29.91,61.44c-9.03,21.25-6.57,30.64,1.82,39.86l0,0
						c6.75,7.41,24.48,3.79,34.33,1.95l72.24-11.26L264.74,243.95z"/>
				</g>
			</g>
			<g>
				<path class="st2" d="M166.68,238.62c-0.02,0.14-1.68,0.08-3.73-0.14c-2.04-0.22-3.69-0.51-3.67-0.66
					c0.02-0.14,1.68-0.08,3.73,0.14C165.05,238.18,166.7,238.47,166.68,238.62z"/>
			</g>
			<g>
				<path class="st2" d="M167.99,235.7c-0.04,0.14-1.58-0.18-3.44-0.72c-1.86-0.54-3.34-1.08-3.3-1.22
					c0.04-0.14,1.58,0.18,3.44,0.72C166.56,235.01,168.03,235.56,167.99,235.7z"/>
			</g>
		</g>
		<g>
			<path class="st7" d="M249.21,290.55c0,0,33.43,53.89,33.2,61.94c-0.23,8.05,15.45,25.58,22.37,32.49
				c6.92,6.92,46.9,40.03,62.12,40.03c0,0,19.62-28.27,18.24-44.88c-1.38-16.6-32.22-104.15-32.22-104.15s-23.92-50.2-46-55.11
				c-5.6-1.24-14.56-3.19-14.56-3.19c0,0.44,1.3,11.38-9.82,18.16c-15.56,9.48-34.07,16.35-34.07,16.35L249.21,290.55z"/>
			<path class="st7" d="M288.07,236.84l-50.01,14.44l-43.61,9.09l19.4-55.31l-27.78-8.68l-28.45,61.89
				c-9.03,21.25-6.57,30.64,1.82,39.86l0,0c6.75,7.41,24.48,3.79,34.33,1.95l85.14-7.95L288.07,236.84z"/>
			<path class="st10" d="M188.22,196.83l15.1-27.61l13.01-10.48l16.78,2.31c0,0,4.82,5.49,2.96,8.21c-1.86,2.72-3.54,9.55-5.43,7.06
				c-1.89-2.49-2.28-7.75-2.28-7.75l-4.43-0.24l0.04,7.81l8.92,2.71c0,0,8.81-7.34,9.71-5.73c0.89,1.61,0.11,4.58-4.93,8.85
				s-11.16,10.86-11.16,10.86l-7.93,1.88l-6.18,9.86L188.22,196.83z"/>
			<g>
				<path class="st11" d="M212.39,204.6c-0.01,0,0.02-0.06,0.09-0.17c0.08-0.13,0.17-0.29,0.29-0.5c0.28-0.46,0.67-1.1,1.17-1.93
					c1.05-1.71,2.57-4.18,4.52-7.33l0.03-0.05l0.05-0.01c2.32-0.56,4.98-1.2,7.93-1.92l-0.08,0.05c3.33-3.56,7.33-7.68,12.19-11.84
					c1.15-1.08,2.3-2.26,3.16-3.67c0.42-0.7,0.78-1.46,0.91-2.27c0.06-0.4,0.05-0.81-0.04-1.19c-0.05-0.19-0.13-0.39-0.22-0.53
					c-0.04-0.08-0.18-0.12-0.37-0.09c-0.77,0.11-1.57,0.6-2.32,1.03c-0.76,0.46-1.5,0.96-2.24,1.49c-1.48,1.05-2.95,2.19-4.4,3.39
					l-0.1,0.08l-0.13-0.04c-2.83-0.86-5.84-1.77-8.92-2.71l-0.18-0.05l0-0.19c-0.01-2.47-0.03-5.12-0.04-7.81l0-0.27l0.27,0.01
					c1.4,0.07,2.91,0.15,4.43,0.24l0.22,0.01l0.02,0.23c0.21,2.05,0.58,4.3,1.48,6.31c0.18,0.4,0.39,0.78,0.64,1.13
					c0.23,0.36,0.53,0.64,0.81,0.59c0.29-0.04,0.61-0.38,0.85-0.71c0.25-0.34,0.46-0.72,0.67-1.11c0.81-1.55,1.43-3.21,2.26-4.77
					c0.11-0.19,0.22-0.39,0.33-0.58c0.13-0.19,0.24-0.38,0.32-0.54c0.04-0.09,0.09-0.17,0.13-0.26l0.06-0.29
					c0.06-0.19,0.06-0.39,0.06-0.59c0-0.8-0.27-1.61-0.6-2.37c-0.68-1.52-1.66-2.91-2.71-4.16l0.16,0.08
					c-5.88-0.82-11.5-1.59-16.78-2.33l0.18-0.05c-4.72,3.78-9.08,7.28-13.03,10.45l0.05-0.06c-4.66,8.44-8.46,15.32-11.1,20.12
					c-1.32,2.36-2.35,4.21-3.06,5.49c-0.35,0.61-0.62,1.08-0.81,1.42c-0.19,0.32-0.29,0.48-0.29,0.48s0.07-0.18,0.24-0.51
					c0.18-0.35,0.44-0.83,0.76-1.45c0.69-1.29,1.69-3.16,2.97-5.54c2.61-4.82,6.35-11.72,10.95-20.2l0.02-0.03l0.03-0.03
					c3.94-3.18,8.29-6.7,12.99-10.5l0.08-0.06l0.1,0.01c5.28,0.72,10.9,1.49,16.78,2.29l0.1,0.01l0.06,0.07
					c1.08,1.3,2.08,2.69,2.79,4.29c0.35,0.8,0.64,1.65,0.65,2.58c0,0.23,0,0.46-0.07,0.69l-0.08,0.35c-0.05,0.11-0.1,0.22-0.16,0.32
					c-0.11,0.23-0.22,0.41-0.34,0.58c-0.11,0.18-0.22,0.36-0.32,0.55c-0.81,1.51-1.43,3.16-2.26,4.76c-0.21,0.4-0.43,0.79-0.71,1.17
					c-0.28,0.36-0.58,0.79-1.19,0.92c-0.31,0.05-0.61-0.07-0.82-0.24c-0.21-0.17-0.37-0.37-0.49-0.56c-0.27-0.38-0.5-0.79-0.68-1.21
					c-0.94-2.13-1.31-4.38-1.53-6.49l0.24,0.24c-1.52-0.08-3.03-0.16-4.43-0.24l0.27-0.26c0.01,2.69,0.02,5.34,0.04,7.81l-0.18-0.24
					c3.08,0.94,6.09,1.86,8.92,2.72l-0.23,0.05c1.47-1.2,2.94-2.34,4.44-3.4c0.75-0.53,1.5-1.04,2.28-1.5
					c0.79-0.44,1.54-0.93,2.52-1.09c0.22-0.04,0.6,0,0.8,0.3c0.13,0.23,0.21,0.44,0.27,0.67c0.11,0.46,0.12,0.93,0.05,1.38
					c-0.15,0.9-0.54,1.7-0.98,2.43c-0.9,1.46-2.08,2.65-3.25,3.75c-4.88,4.14-8.88,8.22-12.23,11.75l-0.04,0.04l-0.05,0.01
					c-2.96,0.69-5.62,1.31-7.94,1.85l0.08-0.06c-1.99,3.12-3.54,5.57-4.62,7.26c-0.53,0.81-0.93,1.44-1.23,1.89
					c-0.13,0.2-0.24,0.36-0.32,0.48C212.43,204.55,212.39,204.6,212.39,204.6z"/>
			</g>
			<g>
				<path class="st6" d="M283.48,304.69c-0.02,0.03-0.45-0.27-1.21-0.82c-0.37-0.28-0.83-0.62-1.39-0.98
					c-0.55-0.37-1.17-0.81-1.89-1.22c-1.41-0.89-3.18-1.8-5.18-2.72c-2.02-0.87-4.31-1.68-6.77-2.32c-4.93-1.27-9.57-1.56-12.9-1.62
					c-1.67-0.01-3.02,0-3.96,0.04c-0.94,0.03-1.46,0.03-1.46-0.01s0.51-0.1,1.45-0.19c0.93-0.1,2.29-0.17,3.97-0.21
					c3.35-0.04,8.04,0.2,13.03,1.49c2.49,0.64,4.8,1.48,6.84,2.38c2.02,0.95,3.78,1.9,5.18,2.85c0.72,0.44,1.32,0.91,1.86,1.3
					c0.55,0.38,0.99,0.75,1.35,1.06C283.12,304.31,283.5,304.66,283.48,304.69z"/>
			</g>
			<g>
				<path class="st6" d="M278.01,239.45c0.01,0.03-0.52,0.23-1.5,0.55c-1.07,0.34-2.46,0.78-4.14,1.31
					c-3.51,1.09-8.36,2.56-13.73,4.15c-5.37,1.59-10.24,3-13.78,4c-1.7,0.47-3.12,0.86-4.2,1.16c-0.99,0.26-1.55,0.39-1.56,0.36
					s0.52-0.23,1.49-0.55c1.07-0.34,2.46-0.78,4.14-1.31c3.51-1.09,8.36-2.56,13.74-4.15c5.37-1.59,10.25-3.01,13.78-4
					c1.7-0.47,3.11-0.86,4.19-1.16C277.45,239.54,278,239.41,278.01,239.45z"/>
			</g>
			<g>
				<path class="st6" d="M356.84,382.97c0.01,0.01-0.17,0.22-0.54,0.61c-0.19,0.19-0.4,0.44-0.69,0.7c-0.3,0.26-0.64,0.55-1.02,0.87
					c-1.57,1.27-4.17,2.78-7.7,3.68c-3.52,0.89-7.95,1.11-12.66,0.08c-4.71-1.03-9.54-3.37-14.11-6.45
					c-4.58-3.11-8.54-6.58-12.12-9.73c-3.58-3.15-6.82-5.96-9.69-8.13c-2.87-2.18-5.33-3.74-7.08-4.73
					c-0.88-0.49-1.56-0.87-2.04-1.1c-0.47-0.25-0.71-0.38-0.71-0.4c0.01-0.02,0.27,0.09,0.75,0.31c0.49,0.21,1.19,0.55,2.09,1.02
					c1.79,0.94,4.3,2.46,7.21,4.61c2.91,2.15,6.19,4.93,9.79,8.07c3.6,3.12,7.55,6.57,12.09,9.66c4.53,3.06,9.3,5.38,13.92,6.42
					c4.62,1.04,8.99,0.87,12.46,0.03c3.49-0.84,6.07-2.28,7.67-3.49c0.39-0.31,0.74-0.58,1.05-0.83c0.3-0.25,0.52-0.48,0.72-0.66
					C356.62,383.15,356.83,382.96,356.84,382.97z"/>
			</g>
			<g>
				<path class="st6" d="M337.89,326.18c0,0.04-0.35,0.07-0.99,0.09c-0.64,0.04-1.57,0-2.71-0.11c-1.14-0.1-2.49-0.34-3.97-0.72
					c-1.47-0.4-3.05-0.95-4.64-1.69c-1.58-0.76-3.01-1.63-4.25-2.51c-1.22-0.9-2.27-1.79-3.07-2.61c-0.81-0.81-1.42-1.51-1.8-2.03
					c-0.39-0.51-0.59-0.8-0.56-0.82c0.07-0.06,0.95,1.05,2.61,2.59c0.83,0.77,1.88,1.62,3.09,2.48c1.23,0.84,2.64,1.69,4.2,2.43
					c1.56,0.73,3.11,1.28,4.54,1.7c1.44,0.39,2.76,0.67,3.88,0.82C336.48,326.11,337.89,326.09,337.89,326.18z"/>
			</g>
			<g class="st13">
				<path d="M299.76,365.24c4.06-1.67,8.8-0.36,12.5,2c3.7,2.37,6.66,5.69,9.99,8.55c3.33,2.86,7.3,5.35,11.68,5.49
					c6.34,0.19,12.03-4.54,18.38-4.45c2.36,0.03,5.16,1.29,5.3,3.65c0.1,1.82-1.45,3.27-2.97,4.28c-6.88,4.54-11.5,7.58-26.55,1.8
					C317.73,380.92,308.35,373.73,299.76,365.24z"/>
			</g>
			<g>
				<path class="st6" d="M283.24,352.38c-0.13,0.07-7.25-12.77-15.9-28.68c-8.66-15.91-15.57-28.86-15.45-28.93
					c0.13-0.07,7.25,12.77,15.9,28.68C276.45,339.36,283.37,352.31,283.24,352.38z"/>
			</g>
			<g>
				<path class="st2" d="M235.25,295.76c-0.03,0.01-0.28-0.53-0.7-1.52c-0.43-0.99-1-2.45-1.66-4.26
					c-1.33-3.62-2.96-8.71-4.32-14.44c-1.36-5.73-2.2-11.01-2.64-14.84c-0.22-1.92-0.37-3.47-0.44-4.55
					c-0.07-1.08-0.09-1.67-0.06-1.68c0.04,0,0.13,0.59,0.26,1.66c0.13,1.07,0.33,2.61,0.6,4.52c0.54,3.81,1.43,9.06,2.78,14.77
					c1.36,5.71,2.93,10.79,4.16,14.44c0.62,1.82,1.13,3.29,1.5,4.31C235.1,295.18,235.28,295.75,235.25,295.76z"/>
			</g>
			<g>
				<path class="st2" d="M241.07,295.68c-0.03,0.01-0.27-0.56-0.68-1.6c-0.41-1.04-0.95-2.57-1.58-4.47
					c-1.26-3.8-2.79-9.12-4.03-15.1c-1.24-5.99-1.95-11.48-2.3-15.46c-0.18-1.99-0.28-3.61-0.32-4.73
					c-0.04-1.12-0.05-1.74-0.02-1.74c0.04,0,0.11,0.61,0.22,1.72c0.1,1.11,0.26,2.72,0.49,4.7c0.44,3.97,1.21,9.43,2.44,15.4
					c1.24,5.96,2.7,11.28,3.87,15.1c0.58,1.91,1.07,3.45,1.42,4.51C240.93,295.08,241.1,295.67,241.07,295.68z"/>
			</g>
			<g>
				<path class="st2" d="M316.05,316.89c0,0.02-0.16,0.07-0.48,0.16c-0.38,0.09-0.84,0.21-1.4,0.35c-1.22,0.3-2.99,0.67-5.18,1.09
					c-4.39,0.84-10.52,1.77-17.33,2.31c-6.81,0.53-13.01,0.57-17.48,0.42c-2.24-0.07-4.04-0.17-5.29-0.27
					c-0.57-0.05-1.05-0.09-1.44-0.13c-0.33-0.03-0.5-0.06-0.5-0.08c0-0.02,0.17-0.03,0.5-0.03c0.39,0.01,0.86,0.02,1.44,0.03
					c1.25,0.04,3.06,0.08,5.29,0.11c4.46,0.06,10.64-0.04,17.43-0.57c6.79-0.54,12.9-1.4,17.3-2.15c2.2-0.37,3.98-0.69,5.21-0.93
					c0.57-0.1,1.03-0.18,1.42-0.25C315.87,316.89,316.04,316.87,316.05,316.89z"/>
			</g>
			<g>
				<path class="st2" d="M358.26,300.1c0.02,0.03-0.44,0.4-1.29,1.05c-0.85,0.65-2.1,1.55-3.69,2.62
					c-3.16,2.14-7.69,4.89-12.93,7.46c-5.25,2.56-10.2,4.45-13.83,5.63c-1.82,0.59-3.3,1.03-4.33,1.3
					c-1.03,0.27-1.61,0.41-1.62,0.37c-0.01-0.03,0.55-0.24,1.56-0.57c1.02-0.33,2.48-0.82,4.27-1.46c3.59-1.27,8.5-3.2,13.72-5.75
					c5.22-2.56,9.75-5.24,12.96-7.3c1.6-1.03,2.89-1.88,3.77-2.48C357.74,300.39,358.24,300.07,358.26,300.1z"/>
			</g>
			<g>
				<path class="st2" d="M357.43,291.28c0.01,0.01-0.06,0.06-0.19,0.17c-0.16,0.12-0.36,0.27-0.6,0.45
					c-0.57,0.41-1.35,0.97-2.34,1.69c-0.51,0.37-1.08,0.77-1.7,1.21c-0.63,0.43-1.34,0.86-2.09,1.34c-1.51,0.94-3.19,2.08-5.17,3.15
					c-0.98,0.55-2,1.13-3.07,1.73c-1.07,0.6-2.23,1.13-3.4,1.73c-2.34,1.23-4.94,2.33-7.65,3.53c-5.49,2.26-11.66,4.41-18.3,6.12
					c-6.65,1.65-13.11,2.69-19.01,3.32c-2.96,0.24-5.77,0.51-8.41,0.53c-1.32,0.03-2.59,0.11-3.82,0.09
					c-1.22-0.02-2.4-0.04-3.52-0.06c-2.25,0-4.27-0.2-6.05-0.31c-0.89-0.07-1.72-0.11-2.48-0.19c-0.75-0.09-1.45-0.18-2.07-0.26
					c-1.21-0.16-2.17-0.28-2.86-0.37c-0.3-0.04-0.55-0.08-0.74-0.11c-0.17-0.03-0.25-0.05-0.25-0.05c0-0.01,0.09-0.01,0.26,0
					c0.2,0.02,0.45,0.03,0.75,0.06c0.7,0.07,1.66,0.16,2.87,0.27c0.63,0.06,1.32,0.13,2.07,0.21c0.76,0.06,1.59,0.09,2.47,0.14
					c1.78,0.08,3.79,0.26,6.03,0.23c1.12,0.01,2.29,0.02,3.51,0.03c1.22,0,2.49-0.08,3.8-0.12c2.63-0.05,5.43-0.33,8.38-0.58
					c5.88-0.65,12.31-1.7,18.93-3.34c6.61-1.7,12.77-3.83,18.24-6.06c2.71-1.18,5.31-2.26,7.64-3.47c1.17-0.59,2.33-1.12,3.4-1.7
					c1.07-0.59,2.09-1.15,3.08-1.7c1.98-1.04,3.67-2.16,5.2-3.07c0.76-0.47,1.47-0.89,2.11-1.3c0.63-0.43,1.2-0.82,1.72-1.17
					c1.01-0.68,1.81-1.22,2.4-1.61c0.26-0.17,0.46-0.3,0.63-0.41C357.34,291.31,357.42,291.27,357.43,291.28z"/>
			</g>
			<g>
				<path class="st2" d="M206.63,225.64c-0.04,0.14-6.77-1.69-15.02-4.09c-8.26-2.4-14.92-4.45-14.88-4.59
					c0.04-0.14,6.76,1.69,15.02,4.09C200.01,223.45,206.67,225.5,206.63,225.64z"/>
			</g>
			<g>
				<path class="st2" d="M205.31,229.4c-0.04,0.14-6.87-1.73-15.25-4.17c-8.38-2.44-15.15-4.54-15.11-4.68
					c0.04-0.14,6.87,1.73,15.25,4.18C198.59,227.17,205.35,229.27,205.31,229.4z"/>
			</g>
			<g class="st8">
				<path d="M291.55,321.34c-0.43-8.82-6.4-16.76-14.07-21.13c-7.67-4.37-16.64-5.56-25.46-5.07l22.55,38.97
					c2.85,0.11,4.95,0.13,7.74-0.44c2.79-0.58,5.52-1.92,7.21-4.21C291.21,327.17,291.69,324.18,291.55,321.34z"/>
			</g>
		</g>
	</g>
</g>
<g id="Plant">
	<g>
		<g>
			<g>
				<g>
					<g>
						<g>
							<g>
								<g>
									<g>
										<path class="st6" d="M411.59,400.43c-0.01-0.01,0.07-0.21,0.25-0.59c0.2-0.42,0.46-0.98,0.8-1.7
											c0.68-1.5,1.56-3.78,2.35-6.82c1.55-6.06,2.09-15.32-0.2-26.32c-1.07-5.51-2.78-11.41-4.88-17.68
											c-2.07-6.27-4.47-12.93-6.43-20.13c-1.94-7.18-3.47-14.97-3.17-23.14c0.3-8.19,2.72-16.36,5.39-24.49
											c2.66-8.15,5.41-16.11,6.23-24.12c0.93-7.99-0.78-15.84-4.42-22.27c-3.53-6.5-7.97-12.06-11.29-17.82
											c-3.37-5.74-5.48-11.64-6.78-17.13c-2.52-11.07-1.64-20.39-0.43-26.53c1.31-6.18,2.77-9.37,2.77-9.37
											c0.01,0.01-0.04,0.22-0.16,0.62c-0.14,0.44-0.32,1.04-0.56,1.8c-0.49,1.58-1.12,3.94-1.72,7.01
											c-1.1,6.13-1.88,15.39,0.69,26.33c1.33,5.43,3.45,11.25,6.81,16.91c3.31,5.69,7.77,11.22,11.37,17.8
											c3.72,6.5,5.51,14.61,4.56,22.73c-0.83,8.14-3.6,16.16-6.25,24.3c-2.66,8.13-5.06,16.21-5.36,24.26
											c-0.3,8.04,1.19,15.76,3.1,22.91c1.93,7.16,4.3,13.82,6.34,20.11c2.07,6.28,3.77,12.24,4.8,17.78
											c2.23,11.08,1.6,20.43-0.07,26.51c-0.84,3.04-1.78,5.32-2.51,6.81c-0.37,0.71-0.66,1.26-0.88,1.67
											C411.71,400.25,411.6,400.44,411.59,400.43z"/>
									</g>
								</g>
							</g>
						</g>
					</g>
				</g>
				<g>
					<g>
						<g>
							<g>
								<g>
									<g>
										<path class="st7" d="M400.72,221.04c0,0-6.74-21.57,5.35-34.2c0.42-0.44,1.17-0.23,1.28,0.37
											C408.01,190.78,408.81,201.63,400.72,221.04z"/>
									</g>
								</g>
							</g>
						</g>
					</g>
					<g>
						<g>
							<g>
								<g>
									<g>
										<g>
											<path class="st6" d="M404.77,194.03c0.11,0.02-0.08,1.54-0.45,3.98c-0.44,2.74-0.96,5.96-1.54,9.51
												c-0.56,3.55-1.08,6.77-1.51,9.51c-0.37,2.44-0.59,3.95-0.71,3.94c-0.11-0.01-0.1-1.54,0.12-4.01
												c0.22-2.46,0.66-5.85,1.27-9.58c0.61-3.72,1.26-7.07,1.79-9.49C404.25,195.49,404.65,194.01,404.77,194.03z"/>
										</g>
									</g>
								</g>
							</g>
						</g>
					</g>
				</g>
				<g>
					<g>
						<g>
							<g>
								<g>
									<g>
										<path class="st7" d="M408.65,271.91c0,0,4.12-22.22,20.72-27.72c0.58-0.19,1.15,0.34,0.96,0.93
											C429.24,248.56,424.88,258.53,408.65,271.91z"/>
									</g>
								</g>
							</g>
						</g>
					</g>
					<g>
						<g>
							<g>
								<g>
									<g>
										<g>
											<path class="st6" d="M424.85,249.92c0.09,0.07-0.79,1.32-2.26,3.3c-1.67,2.22-3.64,4.82-5.81,7.69
												c-2.16,2.88-4.12,5.48-5.78,7.7c-1.47,1.98-2.37,3.21-2.47,3.15c-0.09-0.06,0.64-1.41,1.98-3.49
												c1.35-2.07,3.32-4.87,5.6-7.87c2.28-3,4.42-5.66,6.01-7.55C423.71,250.97,424.76,249.85,424.85,249.92z"/>
										</g>
									</g>
								</g>
							</g>
						</g>
					</g>
				</g>
				<g>
					<g>
						<g>
							<g>
								<g>
									<g>
										<path class="st7" d="M404.16,327.64c0,0-2.51-22.46,11.78-32.55c0.5-0.35,1.2-0.01,1.19,0.61
											C417.08,299.33,415.81,310.13,404.16,327.64z"/>
									</g>
								</g>
							</g>
						</g>
					</g>
					<g>
						<g>
							<g>
								<g>
									<g>
										<g>
											<path class="st6" d="M413.28,301.9c0.11,0.04-0.37,1.5-1.2,3.82c-0.96,2.61-2.08,5.67-3.33,9.04
												c-1.23,3.38-2.35,6.44-3.3,9.05c-0.83,2.32-1.33,3.76-1.45,3.73c-0.11-0.03,0.2-1.53,0.88-3.91
												c0.69-2.38,1.76-5.62,3.07-9.16c1.31-3.54,2.58-6.7,3.56-8.97C412.5,303.23,413.17,301.86,413.28,301.9z"/>
										</g>
									</g>
								</g>
							</g>
						</g>
					</g>
				</g>
				<g>
					<g>
						<g>
							<g>
								<g>
									<g>
										<path class="st7" d="M416.67,383.71c0,0-1.7-22.53,12.94-32.1c0.51-0.34,1.19,0.04,1.17,0.65
											C430.59,355.87,428.93,366.62,416.67,383.71z"/>
									</g>
								</g>
							</g>
						</g>
					</g>
					<g>
						<g>
							<g>
								<g>
									<g>
										<g>
											<path class="st6" d="M426.7,358.31c0.11,0.05-0.42,1.48-1.34,3.77c-1.05,2.57-2.28,5.59-3.65,8.92
												c-1.35,3.34-2.58,6.35-3.62,8.93c-0.91,2.29-1.47,3.71-1.58,3.67c-0.1-0.03,0.25-1.53,1.02-3.88
												c0.77-2.35,1.96-5.55,3.4-9.04c1.43-3.49,2.82-6.61,3.88-8.84C425.87,359.61,426.6,358.26,426.7,358.31z"/>
										</g>
									</g>
								</g>
							</g>
						</g>
					</g>
				</g>
				<g>
					<g>
						<g>
							<g>
								<g>
									<g>
										<path class="st7" d="M391.03,202.09c0,0-20.03-10.46-20.42-27.94c-0.01-0.61,0.66-1,1.17-0.65
											C374.75,175.56,383,182.65,391.03,202.09z"/>
									</g>
								</g>
							</g>
						</g>
					</g>
					<g>
						<g>
							<g>
								<g>
									<g>
										<g>
											<path class="st6" d="M374.77,180.15c0.1-0.07,1.03,1.14,2.5,3.13c1.63,2.25,3.54,4.89,5.65,7.81
												c2.12,2.91,4.03,5.54,5.67,7.79c1.46,1.98,2.38,3.21,2.28,3.29c-0.08,0.07-1.16-1.02-2.75-2.92
												c-1.59-1.9-3.68-4.6-5.88-7.66c-2.2-3.06-4.12-5.89-5.45-7.96C375.44,181.55,374.67,180.22,374.77,180.15z"/>
										</g>
									</g>
								</g>
							</g>
						</g>
					</g>
				</g>
				<g>
					<g>
						<g>
							<g>
								<g>
									<g>
										<path class="st7" d="M412.54,248.41c0,0-20.63-9.22-22.08-26.65c-0.05-0.61,0.6-1.03,1.13-0.72
											C394.68,222.91,403.35,229.49,412.54,248.41z"/>
									</g>
								</g>
							</g>
						</g>
					</g>
					<g>
						<g>
							<g>
								<g>
									<g>
										<g>
											<path class="st6" d="M394.97,227.5c0.09-0.07,1.1,1.08,2.68,2.97c1.76,2.15,3.83,4.67,6.11,7.45
												c2.29,2.78,4.36,5.29,6.13,7.43c1.58,1.89,2.57,3.06,2.48,3.14c-0.08,0.08-1.22-0.95-2.92-2.74
												c-1.7-1.8-3.95-4.37-6.34-7.29c-2.39-2.92-4.47-5.62-5.93-7.62C395.72,228.85,394.88,227.57,394.97,227.5z"/>
										</g>
									</g>
								</g>
							</g>
						</g>
					</g>
				</g>
				<g>
					<g>
						<g>
							<g>
								<g>
									<g>
										<path class="st7" d="M400.67,300.07c0,0-14.16-17.61-7.52-33.78c0.23-0.57,1.01-0.65,1.33-0.12
											C396.38,269.24,401.1,279.05,400.67,300.07z"/>
									</g>
								</g>
							</g>
						</g>
					</g>
					<g>
						<g>
							<g>
								<g>
									<g>
										<g>
											<path class="st6" d="M394.56,273.46c0.12-0.02,0.49,1.46,1.03,3.87c0.59,2.71,1.28,5.9,2.05,9.42
												c0.77,3.52,1.48,6.7,2.07,9.41c0.55,2.4,0.89,3.89,0.77,3.93c-0.1,0.03-0.66-1.4-1.35-3.78
												c-0.69-2.38-1.53-5.69-2.32-9.38c-0.79-3.69-1.42-7.04-1.81-9.48C394.61,275,394.44,273.48,394.56,273.46z"/>
										</g>
									</g>
								</g>
							</g>
						</g>
					</g>
				</g>
				<g>
					<g>
						<g>
							<g>
								<g>
									<g>
										<path class="st7" d="M414.7,360.87c0,0-20.47-9.57-21.63-27.02c-0.04-0.61,0.62-1.02,1.14-0.7
											C397.27,335.08,405.83,341.8,414.7,360.87z"/>
									</g>
								</g>
							</g>
						</g>
					</g>
					<g>
						<g>
							<g>
								<g>
									<g>
										<g>
											<path class="st6" d="M397.49,339.67c0.09-0.07,1.08,1.1,2.63,3.02c1.72,2.18,3.75,4.73,5.98,7.55
												c2.24,2.81,4.27,5.36,6,7.53c1.55,1.92,2.51,3.1,2.42,3.18c-0.08,0.08-1.21-0.97-2.88-2.79
												c-1.67-1.83-3.88-4.43-6.21-7.4c-2.34-2.96-4.37-5.7-5.8-7.72C398.22,341.03,397.39,339.74,397.49,339.67z"/>
										</g>
									</g>
								</g>
							</g>
						</g>
					</g>
				</g>
				<g>
					<g>
						<g>
							<g>
								<g>
									<g>
										<g>
											<path class="st6" d="M455.48,272.03c0.02,0,0.03,0.17,0.03,0.5c-0.01,0.39-0.02,0.87-0.04,1.44
												c-0.06,1.36-0.14,3.19-0.24,5.48c-0.26,4.82-0.63,11.53-1.07,19.57l0,0.02l0,0.03c-1.46,8.18-5.63,17.24-11.22,26.04
												c-4.1,6.48-8.4,12.38-12.11,17.86c-3.73,5.47-6.89,10.53-9.08,15.01c-2.21,4.48-3.5,8.33-4.25,11.02
												c-0.36,1.35-0.63,2.4-0.79,3.12c-0.17,0.72-0.27,1.09-0.3,1.09s0.02-0.39,0.13-1.12c0.1-0.73,0.32-1.8,0.63-3.17
												c0.66-2.73,1.87-6.64,4.03-11.2c2.15-4.56,5.27-9.69,8.97-15.19c3.68-5.52,7.96-11.42,12.04-17.87
												c5.56-8.76,9.71-17.68,11.22-25.73l-0.01,0.05c0.56-8.03,1.04-14.74,1.37-19.55c0.18-2.28,0.33-4.11,0.44-5.47
												c0.06-0.57,0.11-1.05,0.14-1.44C455.43,272.19,455.46,272.03,455.48,272.03z"/>
										</g>
									</g>
								</g>
							</g>
						</g>
					</g>
					<g>
						<g>
							<g>
								<g>
									<g>
										<g>
											<path class="st7" d="M443.29,323.42c0,0,8.67-20.87-2.24-34.54c-0.38-0.48-1.15-0.34-1.31,0.25
												C438.77,292.62,436.99,303.35,443.29,323.42z"/>
										</g>
									</g>
								</g>
							</g>
						</g>
						<g>
							<g>
								<g>
									<g>
										<g>
											<g>
												<path class="st6" d="M441.71,296.16c0.12-0.01,0.38,1.5,0.69,3.95c0.31,2.45,0.65,5.85,0.92,9.61
													c0.27,3.76,0.4,7.18,0.4,9.65c-0.01,2.48-0.13,4-0.24,4c-0.12,0-0.21-1.53-0.35-3.99c-0.19-2.77-0.4-6.02-0.64-9.61
													c-0.25-3.59-0.48-6.84-0.67-9.61C441.65,297.7,441.59,296.17,441.71,296.16z"/>
											</g>
										</g>
									</g>
								</g>
							</g>
						</g>
						<g class="st8">
							<g>
								<g>
									<g>
										<g>
											<path d="M443.29,323.42c0,0,8.67-20.87-2.24-34.54c-0.38-0.48-1.15-0.34-1.31,0.25
												C438.77,292.62,436.99,303.35,443.29,323.42z"/>
										</g>
									</g>
								</g>
							</g>
						</g>
					</g>
					<g>
						<g>
							<g>
								<g>
									<g>
										<g>
											<path class="st7" d="M416.43,373.71c0,0,6.95-21.5-5.03-34.24c-0.42-0.45-1.17-0.24-1.29,0.36
												C409.44,343.38,408.53,354.22,416.43,373.71z"/>
										</g>
									</g>
								</g>
							</g>
						</g>
						<g>
							<g>
								<g>
									<g>
										<g>
											<g>
												<path class="st6" d="M412.65,346.66c0.11-0.02,0.5,1.46,1.01,3.88c0.5,2.42,1.12,5.78,1.7,9.5
													c0.58,3.73,0.98,7.12,1.18,9.59c0.2,2.47,0.19,4,0.08,4.01c-0.12,0.01-0.33-1.5-0.68-3.94
													c-0.41-2.74-0.89-5.97-1.42-9.53c-0.54-3.56-1.03-6.78-1.45-9.53C412.71,348.2,412.54,346.68,412.65,346.66z"/>
											</g>
										</g>
									</g>
								</g>
							</g>
						</g>
						<g class="st8">
							<g>
								<g>
									<g>
										<g>
											<path d="M416.43,373.71c0,0,6.95-21.5-5.03-34.24c-0.42-0.45-1.17-0.24-1.29,0.36
												C409.44,343.38,408.53,354.22,416.43,373.71z"/>
										</g>
									</g>
								</g>
							</g>
						</g>
					</g>
					<g>
						<g>
							<g>
								<g>
									<g>
										<g>
											<path class="st7" d="M454.33,297.92c0,0,18.51-12.96,16.64-30.35c-0.07-0.61-0.79-0.9-1.24-0.49
												C467.04,269.51,459.78,277.6,454.33,297.92z"/>
										</g>
									</g>
								</g>
							</g>
						</g>
						<g class="st8">
							<g>
								<g>
									<g>
										<g>
											<path d="M454.33,297.92c0,0,18.51-12.96,16.64-30.35c-0.07-0.61-0.79-0.9-1.24-0.49
												C467.04,269.51,459.78,277.6,454.33,297.92z"/>
										</g>
									</g>
								</g>
							</g>
						</g>
						<g>
							<g>
								<g>
									<g>
										<g>
											<g>
												<path class="st6" d="M467.62,274.06c0.1,0.05-0.48,1.47-1.54,3.7c-1.06,2.23-2.59,5.28-4.38,8.6
													c-1.79,3.32-3.51,6.27-4.84,8.36c-1.33,2.09-2.26,3.31-2.35,3.25c-0.1-0.07,0.64-1.4,1.84-3.55
													c1.33-2.44,2.89-5.29,4.61-8.45c1.72-3.17,3.27-6.03,4.59-8.47C466.74,275.33,467.52,274.01,467.62,274.06z"/>
											</g>
										</g>
									</g>
								</g>
							</g>
						</g>
					</g>
					<g>
						<g>
							<g>
								<g>
									<g>
										<g>
											<path class="st7" d="M423.9,352.39c0,0,22.33-3.48,28.31-19.91c0.21-0.58-0.31-1.16-0.9-0.99
												C447.83,332.48,437.74,336.55,423.9,352.39z"/>
										</g>
									</g>
								</g>
							</g>
						</g>
						<g class="st8">
							<g>
								<g>
									<g>
										<g>
											<path d="M423.9,352.39c0,0,22.33-3.48,28.31-19.91c0.21-0.58-0.31-1.16-0.9-0.99
												C447.83,332.48,437.74,336.55,423.9,352.39z"/>
										</g>
									</g>
								</g>
							</g>
						</g>
						<g>
							<g>
								<g>
									<g>
										<g>
											<g>
												<path class="st6" d="M446.34,336.83c0.07,0.09-1.08,1.11-3.01,2.64c-1.93,1.54-4.65,3.6-7.72,5.79
													c-3.07,2.19-5.92,4.08-8.03,5.37c-2.12,1.29-3.49,1.97-3.54,1.88c-0.06-0.11,1.19-0.97,3.22-2.38
													c2.27-1.6,4.93-3.48,7.87-5.56c2.93-2.09,5.59-3.98,7.85-5.58C444.99,337.58,446.27,336.74,446.34,336.83z"/>
											</g>
										</g>
									</g>
								</g>
							</g>
						</g>
					</g>
				</g>
			</g>
			<g>
				<g>
					<g>
						<g>
							<g>
								<polygon class="st9" points="397.48,393.48 403.88,435.49 429.46,435.45 438.08,393.48 								"/>
							</g>
						</g>
					</g>
				</g>
			</g>
		</g>
		<g>
			<g>
				<g>
					<path class="st6" d="M434.33,409.69c0.01,0.01-0.07,0.06-0.21,0.16c-0.15,0.09-0.37,0.24-0.67,0.39
						c-0.61,0.3-1.56,0.67-2.86,0.85c-1.29,0.18-2.93,0.14-4.7-0.44c-1.76-0.57-3.68-1.71-5.06-3.67c-0.66-0.99-1.11-2.2-1.19-3.51
						c-0.1-1.29,0.41-2.85,1.74-3.61c1.32-0.76,3.03-0.49,4.28,0.35c1.32,0.85,2.08,2.35,2.45,3.86c0.37,1.53,0.41,3.13,0.32,4.74
						c-0.1,1.61-0.4,3.27-1.04,4.85c-0.62,1.58-1.62,3.08-2.97,4.23c-1.34,1.15-3.06,1.97-4.92,2.06c-1.86,0.08-3.63-0.56-5.12-1.49
						c-1.49-0.94-2.76-2.12-3.82-3.45c-1.05-1.33-1.84-2.92-1.93-4.62c-0.08-1.67,0.51-3.4,1.82-4.45c1.33-1.08,3.21-1,4.53-0.28
						c1.36,0.69,2.38,1.99,2.62,3.42c0.49,2.88-1.19,5.48-3.23,6.65c-2.09,1.2-4.37,1.23-6.17,0.89c-1.83-0.36-3.28-1.08-4.4-1.72
						c-1.12-0.66-1.92-1.26-2.46-1.67c-0.54-0.42-0.8-0.65-0.79-0.67c0.02-0.02,0.31,0.18,0.87,0.56c0.56,0.37,1.39,0.93,2.51,1.54
						c1.12,0.6,2.56,1.27,4.33,1.57c1.75,0.29,3.92,0.21,5.85-0.93c1.88-1.09,3.39-3.55,2.92-6.11c-0.22-1.26-1.11-2.38-2.32-2.99
						c-1.19-0.63-2.76-0.66-3.85,0.23c-1.09,0.88-1.63,2.42-1.55,3.91c0.09,1.5,0.81,2.97,1.81,4.23c1.01,1.26,2.24,2.4,3.65,3.28
						c1.4,0.87,3.04,1.45,4.72,1.38c1.67-0.08,3.25-0.82,4.5-1.89c1.26-1.07,2.19-2.46,2.78-3.95c0.61-1.49,0.9-3.08,1.01-4.64
						c0.1-1.56,0.06-3.12-0.28-4.55c-0.34-1.42-1.03-2.76-2.16-3.5c-1.11-0.75-2.58-0.98-3.65-0.36c-1.09,0.62-1.55,1.9-1.48,3.09
						c0.05,1.2,0.46,2.33,1.06,3.26c1.26,1.85,3.09,2.99,4.77,3.57c1.7,0.6,3.29,0.67,4.54,0.54
						C433.1,410.52,434.29,409.58,434.33,409.69z"/>
				</g>
			</g>
		</g>
	</g>
</g>
</svg>
