<?xml version="1.0" encoding="utf-8"?>
<!-- Generator: Adobe Illustrator 24.0.1, SVG Export Plug-In . SVG Version: 6.00 Build 0)  -->
<svg version="1.1" xmlns="http://www.w3.org/2000/svg" xmlns:xlink="http://www.w3.org/1999/xlink" x="0px" y="0px"
	 viewBox="0 0 800 800" style="enable-background:new 0 0 800 800;" xml:space="preserve">
<style type="text/css">
	.st0{display:none;}
	.st1{display:inline;fill:#6B58C0;}
	.st2{display:inline;}
	.st3{fill:#FFFFFF;}
	.st4{fill:none;stroke:#FFFFFF;stroke-width:12;stroke-linecap:round;stroke-linejoin:round;stroke-miterlimit:10;}
	.st5{fill:#EF7668;}
	.st6{fill:#D17605;}
	.st7{fill:#441165;}
	.st8{fill:#FEB200;}
	.st9{fill:#EF564B;}
	.st10{opacity:0.2;fill:#6B58C0;}
	.st11{opacity:0.2;fill:#FFF62E;}
	.st12{fill:#FFC117;}
	.st13{opacity:0.4;}
	.st14{fill:#6B58C0;}
</style>
<g id="Background" class="st0">
	<rect class="st1" width="800" height="800"/>
	<g class="st2">
		<g>
			<path class="st3" d="M286.02,774.29v-0.26c-0.35,0.4-0.69,0.72-1.03,0.97c-0.34,0.25-0.71,0.44-1.1,0.57
				c-0.4,0.13-0.83,0.2-1.3,0.2c-0.62,0-1.2-0.13-1.72-0.39c-0.53-0.26-0.99-0.64-1.37-1.13c-0.39-0.49-0.68-1.06-0.88-1.72
				c-0.2-0.66-0.3-1.37-0.3-2.14c0-1.62,0.4-2.88,1.19-3.79c0.79-0.9,1.83-1.36,3.13-1.36c0.75,0,1.38,0.13,1.89,0.38
				c0.51,0.26,1.01,0.65,1.5,1.18v-3.83c0-0.53,0.11-0.93,0.32-1.21c0.21-0.27,0.51-0.41,0.91-0.41c0.39,0,0.69,0.13,0.91,0.38
				c0.21,0.25,0.32,0.62,0.32,1.11v11.44c0,0.49-0.11,0.86-0.34,1.11c-0.23,0.25-0.52,0.37-0.88,0.37c-0.35,0-0.65-0.13-0.88-0.38
				C286.14,775.13,286.02,774.76,286.02,774.29z M280.92,770.48c0,0.7,0.11,1.3,0.33,1.79c0.22,0.49,0.52,0.87,0.9,1.12
				c0.38,0.25,0.79,0.38,1.24,0.38c0.46,0,0.87-0.12,1.25-0.36c0.38-0.24,0.68-0.6,0.9-1.09c0.23-0.49,0.34-1.11,0.34-1.84
				c0-0.69-0.11-1.29-0.34-1.78c-0.22-0.5-0.53-0.88-0.91-1.14c-0.38-0.26-0.8-0.39-1.26-0.39c-0.47,0-0.9,0.13-1.27,0.4
				c-0.37,0.27-0.66,0.65-0.87,1.16C281.03,769.23,280.92,769.81,280.92,770.48z"/>
			<path class="st3" d="M297.46,771.13h-5.07c0.01,0.59,0.12,1.11,0.36,1.56c0.23,0.45,0.54,0.79,0.92,1.02
				c0.38,0.23,0.81,0.34,1.27,0.34c0.31,0,0.59-0.04,0.85-0.11c0.26-0.07,0.5-0.19,0.75-0.34c0.24-0.15,0.46-0.32,0.66-0.5
				c0.2-0.18,0.46-0.42,0.79-0.72c0.13-0.11,0.32-0.17,0.57-0.17c0.27,0,0.48,0.07,0.64,0.22c0.16,0.15,0.25,0.35,0.25,0.62
				c0,0.23-0.09,0.51-0.28,0.82c-0.19,0.31-0.46,0.62-0.83,0.9c-0.37,0.29-0.84,0.53-1.4,0.72c-0.56,0.19-1.2,0.29-1.93,0.29
				c-1.66,0-2.96-0.47-3.88-1.42c-0.92-0.95-1.39-2.24-1.39-3.87c0-0.77,0.11-1.48,0.34-2.13c0.23-0.66,0.56-1.22,1-1.69
				c0.44-0.47,0.98-0.83,1.62-1.08c0.64-0.25,1.35-0.38,2.13-0.38c1.01,0,1.88,0.21,2.61,0.64c0.73,0.43,1.27,0.98,1.63,1.66
				c0.36,0.68,0.54,1.37,0.54,2.07c0,0.65-0.19,1.08-0.56,1.27C298.66,771.04,298.14,771.13,297.46,771.13z M292.39,769.66h4.7
				c-0.06-0.89-0.3-1.55-0.72-1.99c-0.42-0.44-0.96-0.66-1.64-0.66c-0.65,0-1.18,0.22-1.59,0.67
				C292.73,768.13,292.48,768.79,292.39,769.66z"/>
			<path class="st3" d="M309.27,772.38c0,0.71-0.17,1.33-0.52,1.84c-0.35,0.51-0.86,0.9-1.54,1.16c-0.68,0.26-1.51,0.39-2.48,0.39
				c-0.93,0-1.73-0.14-2.39-0.43c-0.66-0.28-1.16-0.64-1.47-1.07c-0.32-0.43-0.48-0.86-0.48-1.29c0-0.29,0.1-0.53,0.3-0.73
				c0.2-0.2,0.46-0.3,0.77-0.3c0.27,0,0.48,0.07,0.63,0.2s0.29,0.32,0.42,0.56c0.27,0.46,0.58,0.81,0.96,1.04
				c0.37,0.23,0.87,0.34,1.52,0.34c0.52,0,0.94-0.12,1.28-0.35c0.33-0.23,0.5-0.5,0.5-0.79c0-0.46-0.17-0.79-0.52-1
				c-0.35-0.21-0.91-0.41-1.71-0.6c-0.89-0.22-1.62-0.46-2.18-0.7c-0.56-0.24-1.01-0.56-1.34-0.96c-0.34-0.4-0.5-0.89-0.5-1.47
				c0-0.52,0.15-1.01,0.47-1.47c0.31-0.46,0.77-0.83,1.37-1.11c0.6-0.28,1.33-0.41,2.19-0.41c0.67,0,1.27,0.07,1.81,0.21
				c0.54,0.14,0.98,0.33,1.34,0.56c0.36,0.23,0.63,0.49,0.82,0.78c0.19,0.29,0.28,0.56,0.28,0.84c0,0.3-0.1,0.54-0.3,0.73
				c-0.2,0.19-0.48,0.29-0.85,0.29c-0.27,0-0.49-0.08-0.68-0.23c-0.19-0.15-0.4-0.38-0.64-0.68c-0.2-0.25-0.43-0.46-0.69-0.61
				c-0.27-0.15-0.63-0.23-1.08-0.23c-0.47,0-0.86,0.1-1.17,0.3c-0.31,0.2-0.47,0.45-0.47,0.74c0,0.27,0.11,0.5,0.34,0.67
				c0.23,0.18,0.54,0.32,0.92,0.43c0.39,0.11,0.92,0.25,1.6,0.42c0.8,0.2,1.46,0.43,1.97,0.7c0.51,0.27,0.9,0.59,1.16,0.96
				C309.14,771.48,309.27,771.9,309.27,772.38z"/>
			<path class="st3" d="M311.92,764.02c-0.36,0-0.67-0.11-0.93-0.33c-0.26-0.22-0.38-0.54-0.38-0.94c0-0.37,0.13-0.67,0.39-0.91
				c0.26-0.24,0.57-0.36,0.92-0.36c0.34,0,0.63,0.11,0.89,0.32c0.26,0.21,0.39,0.53,0.39,0.94c0,0.4-0.13,0.71-0.38,0.94
				C312.57,763.91,312.27,764.02,311.92,764.02z M313.2,766.7v7.49c0,0.52-0.12,0.91-0.37,1.18c-0.25,0.27-0.56,0.4-0.94,0.4
				c-0.38,0-0.69-0.13-0.93-0.41c-0.24-0.27-0.36-0.66-0.36-1.17v-7.42c0-0.51,0.12-0.9,0.36-1.16c0.24-0.26,0.55-0.39,0.93-0.39
				c0.38,0,0.69,0.13,0.94,0.39C313.08,765.88,313.2,766.24,313.2,766.7z"/>
			<path class="st3" d="M324.56,767.13v7.53c0,0.86-0.09,1.6-0.28,2.22c-0.18,0.62-0.48,1.13-0.88,1.54
				c-0.41,0.4-0.94,0.71-1.59,0.9c-0.66,0.2-1.47,0.29-2.45,0.29c-0.89,0-1.69-0.13-2.39-0.38c-0.7-0.25-1.24-0.57-1.62-0.97
				c-0.38-0.4-0.57-0.8-0.57-1.22c0-0.32,0.11-0.58,0.32-0.77c0.21-0.2,0.48-0.3,0.78-0.3c0.38,0,0.71,0.17,1,0.5
				c0.14,0.17,0.28,0.34,0.43,0.52c0.15,0.18,0.31,0.32,0.49,0.45c0.18,0.12,0.4,0.21,0.65,0.28c0.25,0.06,0.55,0.09,0.87,0.09
				c0.67,0,1.19-0.09,1.56-0.28c0.37-0.19,0.63-0.45,0.78-0.78c0.15-0.33,0.24-0.69,0.26-1.08c0.03-0.38,0.04-1,0.06-1.85
				c-0.4,0.56-0.86,0.98-1.38,1.27c-0.52,0.29-1.14,0.44-1.87,0.44c-0.87,0-1.63-0.22-2.28-0.67c-0.65-0.44-1.15-1.06-1.5-1.86
				c-0.35-0.8-0.52-1.72-0.52-2.76c0-0.78,0.11-1.48,0.32-2.11c0.21-0.63,0.52-1.16,0.91-1.59c0.39-0.43,0.85-0.75,1.36-0.97
				c0.51-0.22,1.08-0.33,1.69-0.33c0.73,0,1.37,0.14,1.91,0.42c0.54,0.28,1.04,0.72,1.5,1.33v-0.35c0-0.45,0.11-0.8,0.33-1.04
				c0.22-0.25,0.51-0.37,0.86-0.37c0.5,0,0.83,0.16,1,0.49C324.48,766.04,324.56,766.51,324.56,767.13z M317.05,770.41
				c0,1.05,0.23,1.85,0.69,2.38c0.46,0.54,1.05,0.81,1.78,0.81c0.43,0,0.84-0.12,1.22-0.35c0.38-0.23,0.7-0.58,0.94-1.05
				c0.24-0.46,0.36-1.03,0.36-1.7c0-1.06-0.23-1.88-0.7-2.47c-0.47-0.59-1.08-0.88-1.84-0.88c-0.74,0-1.33,0.28-1.78,0.85
				C317.27,768.57,317.05,769.37,317.05,770.41z"/>
			<path class="st3" d="M328.68,766.66v0.31c0.46-0.6,0.95-1.04,1.5-1.32c0.54-0.28,1.16-0.42,1.87-0.42c0.68,0,1.29,0.15,1.83,0.45
				c0.54,0.3,0.94,0.72,1.21,1.26c0.17,0.32,0.28,0.66,0.33,1.03c0.05,0.37,0.08,0.84,0.08,1.41v4.82c0,0.52-0.12,0.91-0.36,1.18
				c-0.24,0.27-0.55,0.4-0.93,0.4c-0.39,0-0.7-0.13-0.94-0.41c-0.24-0.27-0.36-0.66-0.36-1.17v-4.32c0-0.85-0.12-1.51-0.36-1.96
				c-0.24-0.45-0.71-0.68-1.42-0.68c-0.46,0-0.88,0.14-1.26,0.41c-0.38,0.28-0.66,0.65-0.84,1.13c-0.13,0.39-0.19,1.11-0.19,2.17
				v3.25c0,0.53-0.12,0.92-0.37,1.18c-0.24,0.26-0.56,0.39-0.94,0.39c-0.37,0-0.68-0.13-0.92-0.41c-0.24-0.27-0.36-0.66-0.36-1.17
				v-7.49c0-0.49,0.11-0.86,0.32-1.11c0.22-0.24,0.51-0.37,0.88-0.37c0.23,0,0.43,0.05,0.62,0.16c0.18,0.11,0.33,0.27,0.44,0.48
				C328.63,766.09,328.68,766.35,328.68,766.66z"/>
			<path class="st3" d="M344.46,771.13h-5.07c0.01,0.59,0.12,1.11,0.36,1.56c0.23,0.45,0.54,0.79,0.92,1.02
				c0.38,0.23,0.81,0.34,1.27,0.34c0.31,0,0.59-0.04,0.85-0.11c0.26-0.07,0.5-0.19,0.75-0.34c0.24-0.15,0.46-0.32,0.67-0.5
				c0.2-0.18,0.46-0.42,0.79-0.72c0.13-0.11,0.32-0.17,0.57-0.17c0.27,0,0.48,0.07,0.65,0.22c0.16,0.15,0.25,0.35,0.25,0.62
				c0,0.23-0.09,0.51-0.28,0.82c-0.18,0.31-0.46,0.62-0.83,0.9c-0.37,0.29-0.83,0.53-1.4,0.72c-0.56,0.19-1.21,0.29-1.93,0.29
				c-1.66,0-2.96-0.47-3.89-1.42c-0.92-0.95-1.39-2.24-1.39-3.87c0-0.77,0.11-1.48,0.34-2.13c0.23-0.66,0.56-1.22,1-1.69
				c0.44-0.47,0.98-0.83,1.61-1.08c0.64-0.25,1.35-0.38,2.13-0.38c1.01,0,1.88,0.21,2.61,0.64c0.73,0.43,1.27,0.98,1.63,1.66
				c0.36,0.68,0.54,1.37,0.54,2.07c0,0.65-0.19,1.08-0.56,1.27C345.66,771.04,345.14,771.13,344.46,771.13z M339.39,769.66h4.7
				c-0.06-0.89-0.3-1.55-0.72-1.99c-0.42-0.44-0.96-0.66-1.64-0.66c-0.65,0-1.18,0.22-1.59,0.67
				C339.73,768.13,339.48,768.79,339.39,769.66z"/>
			<path class="st3" d="M355.03,774.29v-0.26c-0.35,0.4-0.69,0.72-1.03,0.97c-0.34,0.25-0.71,0.44-1.1,0.57
				c-0.39,0.13-0.83,0.2-1.3,0.2c-0.62,0-1.2-0.13-1.72-0.39c-0.53-0.26-0.99-0.64-1.37-1.13c-0.39-0.49-0.68-1.06-0.88-1.72
				c-0.2-0.66-0.3-1.37-0.3-2.14c0-1.62,0.4-2.88,1.19-3.79c0.79-0.9,1.83-1.36,3.13-1.36c0.75,0,1.38,0.13,1.89,0.38
				s1.01,0.65,1.5,1.18v-3.83c0-0.53,0.11-0.93,0.32-1.21c0.21-0.27,0.51-0.41,0.91-0.41c0.39,0,0.69,0.13,0.91,0.38
				c0.21,0.25,0.32,0.62,0.32,1.11v11.44c0,0.49-0.11,0.86-0.34,1.11c-0.23,0.25-0.52,0.37-0.88,0.37c-0.35,0-0.65-0.13-0.88-0.38
				C355.14,775.13,355.03,774.76,355.03,774.29z M349.93,770.48c0,0.7,0.11,1.3,0.33,1.79c0.22,0.49,0.52,0.87,0.9,1.12
				c0.38,0.25,0.79,0.38,1.24,0.38c0.46,0,0.87-0.12,1.25-0.36c0.38-0.24,0.68-0.6,0.9-1.09c0.23-0.49,0.34-1.11,0.34-1.84
				c0-0.69-0.11-1.29-0.34-1.78c-0.22-0.5-0.53-0.88-0.91-1.14c-0.38-0.26-0.8-0.39-1.26-0.39c-0.47,0-0.9,0.13-1.27,0.4
				c-0.37,0.27-0.66,0.65-0.87,1.16C350.03,769.23,349.93,769.81,349.93,770.48z"/>
			<path class="st3" d="M365.63,762.85v3.96c0.49-0.51,0.98-0.89,1.49-1.16c0.51-0.27,1.13-0.4,1.88-0.4c0.86,0,1.62,0.21,2.27,0.61
				c0.65,0.41,1.15,1,1.51,1.78c0.36,0.78,0.54,1.7,0.54,2.76c0,0.79-0.1,1.5-0.3,2.16c-0.2,0.66-0.49,1.22-0.87,1.71
				c-0.38,0.48-0.84,0.85-1.38,1.12c-0.54,0.26-1.14,0.39-1.79,0.39c-0.4,0-0.77-0.05-1.13-0.14c-0.35-0.09-0.65-0.22-0.9-0.38
				c-0.25-0.15-0.46-0.31-0.63-0.48c-0.17-0.16-0.4-0.41-0.69-0.74v0.26c0,0.49-0.12,0.86-0.35,1.11c-0.23,0.25-0.53,0.37-0.89,0.37
				c-0.37,0-0.66-0.12-0.88-0.37c-0.22-0.25-0.33-0.62-0.33-1.11v-11.32c0-0.53,0.11-0.92,0.32-1.19c0.21-0.27,0.51-0.4,0.89-0.4
				c0.4,0,0.71,0.13,0.92,0.38C365.52,762.01,365.63,762.38,365.63,762.85z M365.75,770.55c0,1.03,0.24,1.82,0.71,2.38
				c0.47,0.55,1.09,0.83,1.86,0.83c0.65,0,1.21-0.28,1.69-0.85c0.47-0.57,0.71-1.38,0.71-2.44c0-0.68-0.1-1.27-0.29-1.77
				c-0.2-0.49-0.47-0.88-0.84-1.14c-0.36-0.27-0.78-0.4-1.26-0.4c-0.49,0-0.93,0.13-1.32,0.4c-0.39,0.27-0.69,0.66-0.91,1.17
				C365.86,769.24,365.75,769.85,365.75,770.55z"/>
			<path class="st3" d="M376.67,776.09l0.24-0.58l-3.19-8.04c-0.2-0.46-0.29-0.8-0.29-1.01c0-0.22,0.06-0.43,0.17-0.62
				c0.11-0.19,0.27-0.34,0.47-0.46c0.2-0.12,0.41-0.17,0.62-0.17c0.37,0,0.65,0.12,0.85,0.36c0.19,0.24,0.36,0.58,0.5,1.02
				l2.19,6.38l2.08-5.94c0.16-0.48,0.31-0.86,0.45-1.13c0.13-0.27,0.27-0.46,0.42-0.55c0.15-0.1,0.36-0.14,0.63-0.14
				c0.2,0,0.38,0.05,0.57,0.16c0.18,0.1,0.32,0.24,0.42,0.42c0.1,0.18,0.15,0.36,0.15,0.56c-0.03,0.12-0.07,0.29-0.12,0.51
				c-0.06,0.22-0.13,0.45-0.21,0.67l-3.38,8.85c-0.29,0.78-0.58,1.39-0.86,1.83c-0.28,0.44-0.65,0.79-1.11,1.02
				c-0.46,0.24-1.08,0.36-1.86,0.36c-0.76,0-1.33-0.08-1.71-0.25c-0.38-0.17-0.57-0.47-0.57-0.9c0-0.3,0.09-0.53,0.27-0.69
				c0.18-0.16,0.45-0.24,0.8-0.24c0.14,0,0.28,0.02,0.41,0.06c0.16,0.04,0.31,0.06,0.43,0.06c0.3,0,0.53-0.04,0.7-0.13
				c0.17-0.09,0.32-0.24,0.46-0.46C376.34,776.84,376.49,776.52,376.67,776.09z"/>
		</g>
		<g>
			<path class="st3" d="M414.23,765.45h0.62v-0.78c0-0.81,0.1-1.46,0.31-1.94c0.2-0.48,0.55-0.83,1.05-1.04
				c0.49-0.22,1.16-0.33,2.02-0.33c1.52,0,2.27,0.37,2.27,1.11c0,0.24-0.08,0.45-0.24,0.62c-0.15,0.17-0.34,0.26-0.56,0.26
				c-0.1,0-0.28-0.02-0.53-0.06c-0.24-0.03-0.45-0.06-0.62-0.06c-0.47,0-0.77,0.14-0.9,0.42c-0.13,0.28-0.2,0.67-0.2,1.18v0.62h0.63
				c0.99,0,1.48,0.3,1.48,0.9c0,0.42-0.13,0.69-0.39,0.8c-0.26,0.11-0.62,0.17-1.09,0.17h-0.63v6.87c0,0.51-0.12,0.9-0.37,1.17
				c-0.24,0.27-0.55,0.41-0.94,0.41c-0.37,0-0.67-0.13-0.92-0.41c-0.24-0.27-0.36-0.66-0.36-1.17v-6.87h-0.71
				c-0.39,0-0.68-0.08-0.89-0.26c-0.21-0.17-0.31-0.4-0.31-0.68C412.93,765.76,413.37,765.45,414.23,765.45"/>
			<path class="st3" d="M422.72,772.02v2.17c0,0.52-0.13,0.92-0.38,1.18c-0.25,0.27-0.56,0.39-0.94,0.39c-0.38,0-0.69-0.13-0.93-0.4
				c-0.24-0.26-0.36-0.66-0.36-1.17v-7.22c0-1.17,0.42-1.75,1.26-1.75c0.43,0,0.74,0.13,0.93,0.41c0.19,0.27,0.29,0.67,0.32,1.21
				c0.31-0.53,0.63-0.93,0.95-1.21c0.33-0.27,0.76-0.41,1.31-0.41c0.55,0,1.07,0.13,1.59,0.41c0.52,0.27,0.77,0.64,0.77,1.08
				c0,0.31-0.11,0.58-0.33,0.78c-0.22,0.21-0.46,0.31-0.71,0.31c-0.1,0-0.33-0.06-0.69-0.18c-0.37-0.11-0.69-0.17-0.96-0.17
				c-0.38,0-0.69,0.1-0.93,0.3c-0.24,0.2-0.43,0.5-0.56,0.89c-0.13,0.39-0.22,0.87-0.27,1.4
				C422.75,770.58,422.72,771.25,422.72,772.02"/>
			<path class="st3" d="M434.64,771.13h-5.07c0.01,0.59,0.13,1.11,0.36,1.56c0.23,0.45,0.54,0.79,0.92,1.02
				c0.38,0.23,0.8,0.34,1.27,0.34c0.31,0,0.59-0.03,0.85-0.11c0.25-0.07,0.5-0.19,0.74-0.34c0.24-0.15,0.46-0.32,0.66-0.5
				c0.2-0.17,0.47-0.42,0.79-0.72c0.13-0.11,0.32-0.17,0.57-0.17c0.27,0,0.48,0.07,0.65,0.22c0.17,0.15,0.24,0.35,0.24,0.62
				c0,0.23-0.09,0.51-0.27,0.82c-0.19,0.32-0.46,0.62-0.84,0.91c-0.38,0.29-0.84,0.53-1.4,0.71c-0.56,0.19-1.21,0.29-1.93,0.29
				c-1.67,0-2.96-0.47-3.89-1.42c-0.92-0.95-1.39-2.24-1.39-3.87c0-0.77,0.12-1.48,0.35-2.13c0.22-0.66,0.56-1.22,1-1.69
				c0.44-0.47,0.97-0.83,1.61-1.08c0.64-0.25,1.35-0.38,2.13-0.38c1.01,0,1.88,0.21,2.61,0.65c0.72,0.42,1.27,0.98,1.63,1.65
				c0.36,0.68,0.54,1.37,0.54,2.07c0,0.65-0.19,1.07-0.56,1.27C435.85,771.04,435.32,771.13,434.64,771.13 M429.57,769.66h4.7
				c-0.06-0.88-0.3-1.55-0.71-1.99c-0.42-0.44-0.96-0.66-1.64-0.66c-0.65,0-1.18,0.22-1.59,0.67
				C429.91,768.13,429.66,768.78,429.57,769.66"/>
			<path class="st3" d="M445.43,771.13h-5.07c0.01,0.59,0.13,1.11,0.35,1.56c0.23,0.45,0.54,0.79,0.92,1.02
				c0.38,0.23,0.8,0.34,1.27,0.34c0.31,0,0.59-0.03,0.84-0.11c0.26-0.07,0.51-0.19,0.75-0.34c0.24-0.15,0.46-0.32,0.66-0.5
				c0.2-0.17,0.46-0.42,0.79-0.72c0.13-0.11,0.33-0.17,0.57-0.17c0.27,0,0.48,0.07,0.65,0.22c0.16,0.15,0.24,0.35,0.24,0.62
				c0,0.23-0.09,0.51-0.27,0.82c-0.18,0.32-0.46,0.62-0.83,0.91c-0.37,0.29-0.84,0.53-1.4,0.71c-0.56,0.19-1.21,0.29-1.93,0.29
				c-1.67,0-2.96-0.47-3.89-1.42c-0.92-0.95-1.39-2.24-1.39-3.87c0-0.77,0.12-1.48,0.35-2.13c0.23-0.66,0.56-1.22,1-1.69
				c0.44-0.47,0.97-0.83,1.61-1.08c0.64-0.25,1.35-0.38,2.13-0.38c1.01,0,1.88,0.21,2.61,0.65c0.72,0.42,1.27,0.98,1.62,1.65
				c0.36,0.68,0.55,1.37,0.55,2.07c0,0.65-0.19,1.07-0.56,1.27C446.63,771.04,446.11,771.13,445.43,771.13 M440.36,769.66h4.7
				c-0.06-0.88-0.3-1.55-0.71-1.99c-0.42-0.44-0.96-0.66-1.64-0.66c-0.65,0-1.18,0.22-1.59,0.67
				C440.7,768.13,440.44,768.78,440.36,769.66"/>
			<path class="st3" d="M451.11,766.68v0.31c0.49-0.6,0.99-1.04,1.53-1.32c0.52-0.29,1.12-0.43,1.78-0.43
				c0.79,0,1.54,0.21,2.21,0.62c0.67,0.41,1.2,1.02,1.59,1.81c0.39,0.79,0.59,1.73,0.59,2.81c0,0.79-0.11,1.53-0.34,2.2
				c-0.22,0.67-0.54,1.23-0.93,1.68c-0.39,0.45-0.86,0.8-1.39,1.04c-0.54,0.24-1.11,0.36-1.73,0.36c-0.74,0-1.36-0.15-1.87-0.45
				c-0.5-0.29-0.98-0.73-1.44-1.3v3.89c0,1.13-0.42,1.71-1.24,1.71c-0.49,0-0.81-0.15-0.97-0.44c-0.15-0.3-0.23-0.72-0.23-1.29
				v-11.19c0-0.49,0.11-0.86,0.32-1.11c0.21-0.24,0.51-0.36,0.88-0.36c0.37,0,0.67,0.13,0.9,0.37
				C451,765.85,451.11,766.21,451.11,766.68 M456.2,770.45c0-0.69-0.11-1.27-0.31-1.76c-0.21-0.49-0.5-0.87-0.87-1.13
				c-0.37-0.26-0.78-0.4-1.23-0.4c-0.71,0-1.32,0.28-1.81,0.84c-0.49,0.57-0.74,1.39-0.74,2.49c0,1.03,0.24,1.83,0.74,2.41
				c0.49,0.57,1.09,0.86,1.81,0.86c0.43,0,0.83-0.13,1.2-0.37c0.37-0.25,0.66-0.63,0.88-1.13
				C456.08,771.76,456.2,771.15,456.2,770.45"/>
			<path class="st3" d="M461.41,764.01c-0.36,0-0.67-0.12-0.92-0.34c-0.26-0.22-0.39-0.53-0.39-0.94c0-0.37,0.13-0.67,0.4-0.91
				c0.26-0.23,0.57-0.36,0.91-0.36c0.34,0,0.63,0.11,0.89,0.32c0.26,0.22,0.39,0.54,0.39,0.95c0,0.4-0.13,0.71-0.38,0.94
				C462.06,763.9,461.76,764.01,461.41,764.01 M462.7,766.69v7.5c0,0.52-0.12,0.91-0.37,1.17c-0.25,0.27-0.56,0.4-0.94,0.4
				c-0.38,0-0.69-0.13-0.93-0.41c-0.23-0.28-0.36-0.66-0.36-1.17v-7.43c0-0.51,0.12-0.89,0.36-1.15c0.24-0.26,0.55-0.39,0.93-0.39
				c0.38,0,0.69,0.13,0.94,0.39C462.57,765.87,462.7,766.23,462.7,766.69"/>
			<path class="st3" d="M471.05,774.58l-2.28-3.77l-1.41,1.33v2.07c0,0.5-0.13,0.88-0.4,1.15c-0.26,0.27-0.57,0.41-0.91,0.41
				c-0.4,0-0.71-0.13-0.94-0.4c-0.23-0.26-0.34-0.66-0.34-1.17v-11.06c0-0.57,0.12-1.01,0.33-1.31c0.22-0.3,0.54-0.45,0.95-0.45
				c0.4,0,0.71,0.14,0.95,0.41c0.23,0.27,0.35,0.67,0.35,1.2v6.29l2.92-3.06c0.36-0.38,0.63-0.64,0.83-0.78
				c0.19-0.14,0.42-0.21,0.69-0.21c0.33,0,0.59,0.1,0.82,0.31c0.21,0.21,0.32,0.46,0.32,0.77c0,0.38-0.35,0.89-1.05,1.52l-1.38,1.26
				l2.66,4.18c0.19,0.31,0.34,0.54,0.42,0.71c0.08,0.16,0.13,0.32,0.13,0.46c0,0.41-0.12,0.73-0.34,0.97
				c-0.22,0.24-0.52,0.35-0.88,0.35c-0.32,0-0.56-0.08-0.73-0.26C471.58,775.34,471.35,775.03,471.05,774.58"/>
			<path class="st3" d="M476.69,775.77c-0.39,0-0.73-0.13-1.01-0.38c-0.29-0.25-0.43-0.61-0.43-1.06c0-0.38,0.14-0.72,0.41-0.99
				c0.28-0.28,0.61-0.42,1.01-0.42c0.4,0,0.74,0.14,1.02,0.41c0.28,0.28,0.42,0.61,0.42,1c0,0.45-0.14,0.81-0.42,1.06
				C477.4,775.64,477.07,775.77,476.69,775.77"/>
			<path class="st3" d="M489.59,772.56c0,0.32-0.1,0.67-0.29,1.03c-0.19,0.37-0.49,0.72-0.89,1.05c-0.39,0.33-0.89,0.6-1.49,0.8
				c-0.6,0.2-1.28,0.31-2.03,0.31c-1.61,0-2.86-0.47-3.76-1.4c-0.89-0.94-1.35-2.19-1.35-3.76c0-1.07,0.21-2.01,0.62-2.82
				c0.41-0.81,1-1.45,1.78-1.89c0.78-0.45,1.72-0.67,2.79-0.67c0.67,0,1.29,0.1,1.85,0.29c0.56,0.2,1.03,0.45,1.43,0.76
				c0.39,0.31,0.69,0.64,0.89,0.99c0.21,0.35,0.31,0.68,0.31,0.99c0,0.31-0.11,0.57-0.34,0.79c-0.23,0.21-0.52,0.32-0.84,0.32
				c-0.22,0-0.4-0.06-0.54-0.17c-0.14-0.11-0.3-0.29-0.48-0.54c-0.32-0.48-0.65-0.84-1-1.08c-0.34-0.24-0.78-0.36-1.31-0.36
				c-0.76,0-1.38,0.3-1.85,0.9c-0.47,0.6-0.7,1.42-0.7,2.46c0,0.49,0.06,0.94,0.18,1.35c0.12,0.41,0.29,0.76,0.52,1.04
				c0.23,0.29,0.5,0.51,0.83,0.65c0.32,0.15,0.68,0.23,1.06,0.23c0.52,0,0.97-0.12,1.34-0.36c0.38-0.24,0.7-0.61,0.99-1.1
				c0.16-0.29,0.33-0.52,0.51-0.68c0.18-0.16,0.41-0.25,0.68-0.25c0.32,0,0.58,0.12,0.79,0.36
				C489.48,772.03,489.59,772.29,489.59,772.56"/>
			<path class="st3" d="M500.78,770.5c0,0.77-0.12,1.48-0.36,2.14c-0.25,0.65-0.59,1.21-1.05,1.68c-0.46,0.47-1,0.83-1.63,1.08
				c-0.64,0.25-1.35,0.38-2.14,0.38c-0.79,0-1.49-0.13-2.12-0.38c-0.62-0.25-1.17-0.61-1.63-1.08c-0.46-0.48-0.81-1.03-1.05-1.68
				c-0.23-0.64-0.35-1.36-0.35-2.13c0-0.79,0.12-1.51,0.36-2.16c0.24-0.65,0.59-1.21,1.04-1.67c0.45-0.46,0.99-0.82,1.63-1.07
				c0.64-0.25,1.35-0.37,2.12-0.37c0.79,0,1.5,0.13,2.14,0.38c0.64,0.25,1.18,0.62,1.64,1.08c0.46,0.47,0.8,1.03,1.04,1.67
				C500.66,769,500.78,769.71,500.78,770.5 M498.18,770.5c0-1.06-0.23-1.88-0.7-2.47c-0.46-0.6-1.09-0.89-1.88-0.89
				c-0.51,0-0.96,0.13-1.34,0.39s-0.68,0.65-0.89,1.16c-0.21,0.51-0.31,1.11-0.31,1.8c0,0.68,0.1,1.27,0.31,1.77
				c0.21,0.51,0.5,0.9,0.89,1.17c0.38,0.27,0.83,0.4,1.35,0.4c0.79,0,1.41-0.3,1.88-0.89C497.94,772.36,498.18,771.54,498.18,770.5"
				/>
			<path class="st3" d="M510.67,770.69v3.45c0,0.55-0.12,0.95-0.37,1.23c-0.25,0.27-0.57,0.41-0.98,0.41
				c-0.39,0-0.71-0.13-0.95-0.41c-0.25-0.28-0.37-0.68-0.37-1.23V770c0-0.65-0.02-1.16-0.06-1.53c-0.04-0.35-0.17-0.65-0.36-0.88
				c-0.2-0.23-0.51-0.35-0.93-0.35c-0.85,0-1.41,0.29-1.68,0.88c-0.27,0.58-0.41,1.41-0.41,2.51v3.5c0,0.54-0.12,0.95-0.36,1.22
				c-0.25,0.27-0.57,0.41-0.96,0.41c-0.4,0-0.72-0.14-0.97-0.41c-0.25-0.28-0.38-0.69-0.38-1.22v-7.42c0-0.49,0.11-0.86,0.34-1.11
				c0.23-0.26,0.53-0.38,0.89-0.38c0.36,0,0.65,0.12,0.89,0.36c0.24,0.24,0.35,0.57,0.35,0.98v0.24c0.45-0.54,0.94-0.93,1.45-1.18
				c0.52-0.26,1.08-0.39,1.71-0.39c0.65,0,1.21,0.13,1.68,0.39c0.47,0.26,0.85,0.65,1.16,1.18c0.44-0.53,0.91-0.92,1.41-1.18
				c0.5-0.26,1.05-0.39,1.66-0.39c0.71,0,1.32,0.14,1.83,0.42c0.51,0.28,0.89,0.68,1.15,1.2c0.22,0.47,0.33,1.21,0.33,2.22v5.06
				c0,0.55-0.12,0.95-0.37,1.23c-0.25,0.27-0.57,0.41-0.98,0.41c-0.39,0-0.71-0.14-0.96-0.41c-0.25-0.28-0.38-0.69-0.38-1.22v-4.36
				c0-0.56-0.02-1-0.07-1.34c-0.05-0.34-0.18-0.62-0.38-0.85c-0.21-0.23-0.53-0.34-0.95-0.34c-0.34,0-0.67,0.11-0.97,0.31
				c-0.31,0.2-0.55,0.48-0.72,0.81C510.77,768.8,510.67,769.58,510.67,770.69"/>
		</g>
		<g>
			<path class="st3" d="M389.97,769.87c0,0,0-0.01,0-0.02C389.96,769.86,389.96,769.86,389.97,769.87z"/>
			<path class="st3" d="M390.1,770.7C390.1,770.7,390.1,770.7,390.1,770.7c-0.05-0.24-0.09-0.47-0.12-0.7
				C390.01,770.23,390.05,770.46,390.1,770.7z"/>
			<path class="st3" d="M390.96,773.1c-0.01-0.01-0.01-0.02-0.02-0.03C390.95,773.08,390.95,773.09,390.96,773.1z"/>
			<path class="st3" d="M390.87,772.94c-0.02-0.05-0.04-0.09-0.07-0.13C390.83,772.86,390.85,772.9,390.87,772.94z"/>
			<path class="st3" d="M390.34,771.62c0.13,0.4,0.28,0.79,0.46,1.16C390.62,772.4,390.47,772.02,390.34,771.62
				C390.34,771.62,390.34,771.62,390.34,771.62z"/>
			<path class="st3" d="M400,759.93c0.5,0,0.87,0.04,1.29,0.11l0.12-0.76c0,0-1.17-0.36-2.71-0.23l-0.12-0.41
				c0.48-0.1,0.84-0.53,0.84-1.04c0-0.58-0.47-1.05-1.06-1.05c-0.58,0-1.06,0.47-1.06,1.05c0,0.51,0.36,0.93,0.84,1.04l0.13,0.46
				c-1.63,0.22-2.93,0.86-2.93,0.86l0.23,0.71c0.99-0.33,1.85-0.53,2.62-0.61C398.96,759.97,399.54,759.93,400,759.93z"/>
			<path class="st3" d="M390.94,763.79L390.94,763.79c0.04-0.06,0.08-0.1,0.12-0.15l-0.31-0.22l-0.49-0.36
				c-0.03,0.04-0.79,0.74-1.4,2.05c-0.03-0.04-0.06-0.08-0.09-0.12c-0.18-0.2-0.44-0.3-0.76-0.29c0,0-0.01,0-0.01,0
				c-0.2,0-0.34-0.07-0.43-0.15c0.09-0.11,0.14-0.26,0.14-0.41c0-0.37-0.3-0.67-0.67-0.67c-0.37,0-0.67,0.3-0.67,0.67
				c0,0.37,0.3,0.67,0.67,0.67c0.06,0,0.11-0.01,0.17-0.02c0.16,0.18,0.43,0.34,0.81,0.33c0.2,0,0.34,0.05,0.44,0.16
				c0.11,0.12,0.15,0.3,0.16,0.43c0,0,0,0,0,0c-0.44,1.19-0.31,2.67-0.31,2.67l1.06,0.04c0.02-0.54,0.1-1.48,0.37-2.23
				C390.25,764.73,390.91,763.83,390.94,763.79z"/>
			<path class="st3" d="M409.2,760.81c-0.37,0-0.67,0.3-0.67,0.67c0,0.06,0.01,0.11,0.02,0.16c-0.18,0.17-0.34,0.43-0.34,0.81
				c0,0.2-0.05,0.34-0.15,0.44c-0.08,0.07-0.19,0.12-0.29,0.14c-0.79-1.1-1.76-1.78-1.76-1.78l-0.76,0.81
				c0.57,0.52,1.16,1.18,1.73,1.99c0.39,0.56,0.8,1.29,1.14,2.02l1.02-0.49c0,0-0.47-1.16-1.13-2.19c0.11-0.04,0.23-0.1,0.33-0.19
				c0.2-0.18,0.3-0.44,0.29-0.76c0-0.21,0.07-0.35,0.15-0.44c0.12,0.09,0.26,0.14,0.41,0.14c0.37,0,0.67-0.3,0.67-0.67
				C409.87,761.11,409.57,760.81,409.2,760.81z"/>
			<path class="st3" d="M406.55,770.02c-1.41,0.69-3.73,1.59-6.78,2.02c-1.2,0.17-2.36,0.23-3.43,0.23c-1.39,0-2.62-0.1-3.56-0.22
				c-1.08-0.13-1.92-0.3-2.43-0.42c0.12,0.39,0.27,0.78,0.45,1.16c0,0.01,0.01,0.02,0.01,0.03c0.02,0.04,0.04,0.09,0.07,0.13
				c0.02,0.04,0.04,0.09,0.07,0.13c0.01,0.01,0.01,0.02,0.02,0.03c0.3,0.57,0.67,1.09,1.08,1.55c1.44,1.57,2.91,1.82,2.92,1.83
				l0.02,0l0.02,0.01c0.01,0.01,1.31,0.43,3.29,0.43c1.95,0,3.85-0.39,5.67-1.17c1.35-0.69,2.62-1.74,3.25-2.67
				c0.49-0.72,0.84-1.49,1.05-2.29c0.11-0.43,0.2-1.11,0.15-1.83C408.02,769.22,407.39,769.6,406.55,770.02z"/>
			<path class="st3" d="M391.39,764.12c-0.04,0.06-0.65,0.93-1.14,2.25c-0.36,0.99-0.35,2.44-0.35,2.46v0
				c0,0.34,0.02,0.68,0.06,1.01c0,0.01,0,0.01,0,0.02c0,0.04,0.01,0.08,0.02,0.13c0.03,0.23,0.07,0.47,0.12,0.7
				c0.7,0.18,4.88,1.15,9.55,0.5c2.93-0.41,5.15-1.27,6.5-1.93c1.12-0.54,1.84-1.04,2.12-1.24c-0.28-1.03-1.04-2.64-1.74-3.65
				c-2.01-2.87-4.17-3.6-5.28-3.78c-0.42-0.07-0.76-0.11-1.24-0.11c-0.45,0-1,0.04-1.74,0.12c-0.74,0.08-1.57,0.27-2.53,0.6
				c-1.35,0.45-2.57,1.16-3.53,2.05l-0.03,0.03C392.03,763.41,391.73,763.69,391.39,764.12z M403.66,763.46
				c0.96,0,1.74,0.78,1.74,1.74c0,0.96-0.78,1.74-1.74,1.74c-0.96,0-1.74-0.78-1.74-1.74C401.92,764.24,402.7,763.46,403.66,763.46z
				 M395.42,763.39c1.56,0,2.82,1.26,2.82,2.82c0,1.55-1.26,2.81-2.82,2.81c-1.55,0-2.82-1.26-2.82-2.81
				C392.6,764.65,393.86,763.39,395.42,763.39z"/>
		</g>
	</g>
</g>
<g id="Objects">
	<g>
		<g>
			<g>
				<g>
					<g>
						<path class="st4" d="M660.99,472.88c-4.77,1.24-4.43,6.06-1.55,20.15c2.88,14.1-7.87,21.47-7.87,21.47
							c14.9-24.82-6.35-44.41-11.23-40.85c-4.31,3.15-2.39,7.85,4.51,19.86c6.88,12.01-1.77,20.28-1.77,20.28
							c1.61-10.48-0.24-21.6-9.45-24.45c-6.54-2.01-8.58,2.52-8.74,5.76c-2.51-9.58-30.12-13.86-23.02,13.15
							c3.81,14.47,10.78,21.38,17,24.68c-0.68,5.4-2.68,16.94-8.2,28.68c-9.54,20.29-24.9,31.83-45.69,34.31
							c-40.37,4.83-64.06-23.46-72.54-36.16l11.45-6.61c1.47-0.85,2.46-2.33,2.71-4.01c0.22-1.67-0.33-3.38-1.52-4.59l-8.5-8.73
							c5.67-0.11,11.86-0.77,18.6-2.14c16.75-3.4,38.8-12.26,48.67-35.05c4.12-9.53,4.68-18.32,4.63-22.95
							c17.25-8.26,26.52-22.84,26.89-42.39c0.22-11.47-2.73-21.49-4.25-25.87c1.82-3.09,3.23-6.9,4.02-11.56
							c4.23-25.43-8.93-41.87-9.49-42.55c-0.21-0.25-0.45-0.48-0.69-0.67c0.22-1,0.41-2,0.58-3.04
							c3.33-20.38-3.19-48.81-32.15-63.15c-3.2-19.11-16.96-32.73-39.95-39.49c-14.13-4.16-27.64-4.51-32.61-4.5
							c-1.03-1-2.09-2.06-3.18-3.16c-4.95-5-10.53-10.62-18.2-14.98c-7.68-4.37-17.48-7.48-30.9-7.48
							c-9.88,0-18.82,6.47-25.16,18.21c-1.24,2.3-2.38,4.82-3.37,7.49c-0.99-2.67-2.12-5.19-3.37-7.49
							c-6.35-11.75-15.29-18.21-25.16-18.21c-13.43,0-23.23,3.11-30.9,7.48c-7.68,4.35-13.25,9.98-18.2,14.98
							c-1.09,1.1-2.14,2.16-3.18,3.16c-4.97-0.01-18.48,0.34-32.61,4.5c-22.99,6.76-36.74,20.38-39.95,39.49
							c-28.96,14.34-35.48,42.77-32.15,63.15c0.18,1.03,0.36,2.04,0.58,3.04c-0.24,0.19-0.48,0.42-0.69,0.67
							c-0.55,0.68-13.73,17.12-9.49,42.55c0.78,4.66,2.2,8.47,4.01,11.56c-1.52,4.38-4.47,14.4-4.25,25.87
							c0.37,19.54,9.65,34.13,26.89,42.39c-0.06,4.63,0.51,13.43,4.63,22.95c9.87,22.79,31.92,31.65,48.67,35.05
							c6.74,1.38,12.92,2.03,18.6,2.14l-8.51,8.73c-1.19,1.21-1.74,2.91-1.51,4.59c0.23,1.68,1.22,3.17,2.69,4.01l11.46,6.61
							c-8.48,12.7-32.17,40.99-72.55,36.16c-20.78-2.48-36.14-14.02-45.68-34.31c-5.52-11.75-7.53-23.28-8.22-28.68
							c6.24-3.3,13.21-10.21,17.01-24.68c7.1-27.01-20.52-22.73-23.02-13.15c-0.18-3.24-2.2-7.78-8.74-5.76
							c-9.22,2.85-11.05,13.97-9.46,24.45c0,0-8.64-8.27-1.76-20.28c6.89-12.01,8.82-16.72,4.51-19.86
							c-4.88-3.56-26.13,16.02-11.24,40.85c0,0-10.74-7.37-7.86-21.47c2.88-14.09,3.21-18.91-1.55-20.15
							c-7.41-1.94-28.39,53.86,24.66,62.3c0.84,6.62,3.17,19.72,9.48,33.37c12.09,26.12,32.75,41.63,59.77,44.86
							c3.77,0.45,7.51,0.67,11.2,0.67c22.18,0,42.78-8.08,60.13-23.72c8.79-7.92,14.94-16.17,18.59-21.78l10.59,6.12l-9.22,56.99
							c-20.13,0.18-42.61,1.81-47.46,8.01c-9.17,11.71,107,20.93,107,20.93s5.09,23.39,10.7,23.39c5.6,0,0-33.63,0-33.63
							l-34.42-4.19h79.93l-34.42,4.19c0,0-5.6,33.63,0,33.63c5.61,0,10.7-23.39,10.7-23.39s116.16-9.21,107-20.93
							c-4.85-6.19-27.33-7.83-47.46-8.01l-9.22-56.99l10.59-6.12c3.65,5.61,9.8,13.86,18.59,21.78
							c17.33,15.64,37.94,23.72,60.12,23.72c3.7,0,7.42-0.22,11.2-0.67c27.03-3.23,47.7-18.74,59.79-44.86
							c6.3-13.65,8.65-26.75,9.48-33.37C689.37,526.73,668.39,470.94,660.99,472.88z M166.53,506.8c3.05-7.69,6.77-3.42,8.42-9.69
							c0.07,0.52,0.19,1.02,0.41,1.55c0,0,0.78,3.33,7.83,2.53c7.05-0.8,2.08,17.78-2.88,18.91
							C175.34,521.22,161.54,519.42,166.53,506.8z M619.69,520.1c-4.96-1.12-9.93-19.71-2.88-18.91c7.05,0.8,7.83-2.53,7.83-2.53
							c0.22-0.53,0.34-1.04,0.41-1.55c1.65,6.27,5.38,2,8.42,9.69C638.46,519.42,624.66,521.22,619.69,520.1z"/>
					</g>
					<g>
						<g>
							<g>
								<path class="st5" d="M311.15,553.84c-0.24,0.48-24.59,48.26-76.13,42.1c-20.77-2.48-36.14-14.03-45.68-34.32
									c-5.52-11.74-7.52-23.29-8.21-28.69c6.23-3.29,13.2-10.21,17.01-24.68c7.11-27.01-20.52-22.72-23.02-13.15
									c-0.17-3.24-2.19-7.78-8.74-5.76c-9.21,2.84-11.05,13.97-9.45,24.44c0,0-8.65-8.27-1.76-20.28
									c6.89-12.01,8.82-16.72,4.51-19.86c-4.88-3.56-26.13,16.02-11.23,40.85c0,0-10.75-7.37-7.87-21.46
									c2.88-14.09,3.22-18.91-1.55-20.15c-7.41-1.93-28.38,53.86,24.66,62.3c0.83,6.62,3.17,19.72,9.48,33.37
									c12.08,26.12,32.75,41.63,59.78,44.87c3.77,0.45,7.51,0.67,11.2,0.67c22.18,0,42.78-8.09,60.12-23.73
									c15.05-13.57,22.35-28.08,22.66-28.7L311.15,553.84z M166.54,506.8c3.04-7.69,6.77-3.42,8.42-9.69c0,0,0,0,0-0.01
									c0.06,0.51,0.19,1.04,0.4,1.56c0,0,0.78,3.33,7.83,2.53c7.05-0.8,2.08,17.78-2.88,18.9
									C175.35,521.22,161.54,519.42,166.54,506.8z"/>
								<g>
									<g id="XMLID_3_">
										<polygon class="st6" points="343.68,511.19 334.81,562.79 307.74,547.17 342.83,511.19 										"/>
										<path class="st7" d="M354.42,502.15c1.04,1.24,1.48,2.88,1.21,4.47l-11.32,65.8c-0.31,1.77-1.46,3.28-3.09,4.05
											c-0.74,0.34-1.54,0.52-2.33,0.52c-0.96,0-1.9-0.24-2.75-0.74l-40.02-23.1c-1.47-0.85-2.46-2.33-2.69-4.01
											c-0.23-1.67,0.32-3.38,1.51-4.59l41.64-42.71c1.03-1.06,2.46-1.66,3.94-1.66h9.71
											C351.83,500.19,353.37,500.91,354.42,502.15z M334.81,562.79l8.88-51.59h-0.86l-35.08,35.97L334.81,562.79z"/>
									</g>
								</g>
							</g>
							<g>
								<path class="st5" d="M473.09,561.66c0.3,0.61,7.61,15.13,22.66,28.7c17.34,15.64,37.94,23.73,60.12,23.73
									c3.69,0,7.43-0.22,11.2-0.67c27.03-3.23,47.7-18.74,59.78-44.87c6.31-13.64,8.65-26.74,9.48-33.37
									c53.04-8.44,32.07-64.24,24.66-62.3c-4.77,1.24-4.44,6.06-1.55,20.15c2.88,14.1-7.87,21.46-7.87,21.46
									c14.9-24.83-6.35-44.41-11.23-40.85c-4.31,3.14-2.38,7.85,4.51,19.86c6.89,12.01-1.76,20.28-1.76,20.28
									c1.6-10.47-0.24-21.6-9.45-24.44c-6.55-2.02-8.58,2.52-8.74,5.76c-2.5-9.58-30.13-13.86-23.02,13.15
									c3.81,14.47,10.78,21.39,17.01,24.68c-0.68,5.4-2.69,16.95-8.21,28.69c-9.54,20.29-24.91,31.84-45.68,34.32
									c-51.53,6.16-75.89-41.62-76.13-42.1L473.09,561.66z M619.69,520.1c-4.96-1.12-9.93-19.7-2.88-18.9
									c7.05,0.8,7.83-2.53,7.83-2.53c0.22-0.53,0.34-1.05,0.4-1.56c0,0,0,0.01,0,0.01c1.65,6.27,5.38,2,8.42,9.69
									C638.46,519.42,624.66,521.22,619.69,520.1z"/>
								<g>
									<g id="XMLID_4_">
										<polygon class="st6" points="456.32,511.19 465.19,562.79 492.26,547.17 457.17,511.19 										"/>
										<path class="st7" d="M449.79,500.19h9.71c1.47,0,2.9,0.61,3.94,1.66l41.64,42.71c1.19,1.21,1.74,2.91,1.51,4.59
											c-0.23,1.68-1.22,3.17-2.7,4.01l-40.02,23.1c-0.85,0.49-1.79,0.74-2.75,0.74c-0.79,0-1.59-0.18-2.33-0.52
											c-1.63-0.77-2.78-2.28-3.09-4.05l-11.32-65.8c-0.28-1.59,0.17-3.23,1.21-4.47C446.63,500.91,448.17,500.19,449.79,500.19z
											 M492.26,547.17l-35.09-35.97h-0.86l8.88,51.59L492.26,547.17z"/>
									</g>
								</g>
							</g>
						</g>
						<g>
							<g>
								<path class="st7" d="M523.24,639.69c-4.85-6.19-27.32-7.83-47.45-8l-22.23-137.43c-0.43-2.66-2.73-4.62-5.43-4.62h-96.25
									c-2.7,0-5,1.96-5.43,4.62l-22.23,137.43c-20.13,0.17-42.61,1.81-47.45,8c-9.17,11.72,107,20.93,107,20.93
									s5.09,23.4,10.7,23.4c5.6,0,0-33.63,0-33.63l-34.42-4.2h79.94l-34.42,4.2c0,0-5.61,33.63,0,33.63c5.6,0,10.7-23.4,10.7-23.4
									S532.41,651.41,523.24,639.69z M356.56,500.64h86.89l18.6,114.96H337.96L356.56,500.64z"/>
								<polygon class="st8" points="462.04,615.6 337.96,615.6 351.94,529.17 356.56,500.64 443.44,500.64 448.25,530.35 								
									"/>
								<path class="st6" d="M448.25,530.35c-45.71,29.61-91.65,1.79-96.31-1.18l4.62-28.54h86.89L448.25,530.35z"/>
							</g>
							<g>
								<path class="st5" d="M440.2,507.1c-9.81,9.06-24.19,14.77-40.19,14.77c-16.01,0-30.39-5.71-40.19-14.77
									c0.11-0.2,0.21-0.4,0.3-0.6c0.2-0.37,0.38-0.75,0.55-1.13c0.36-0.73,0.68-1.47,0.97-2.22c0.16-0.41,0.31-0.8,0.47-1.21
									c0.14-0.39,0.28-0.77,0.41-1.15c0.14-0.38,0.25-0.77,0.36-1.15c0.13-0.39,0.23-0.78,0.33-1.16c0.22-0.78,0.4-1.55,0.55-2.33
									c0.07-0.34,0.14-0.68,0.19-1.01c0.21-1.21,0.36-2.43,0.44-3.63c0.06-0.77,0.09-1.54,0.09-2.3c2.84,1.12,6.09,1.87,9.71,1.87
									c4.96,0,10.61-1.4,16.84-5.14c4.19-2.53,7.19-5.86,8.99-9.94c1.8,4.08,4.8,7.41,8.99,9.94c6.23,3.74,11.87,5.14,16.84,5.14
									c3.62,0,6.87-0.75,9.71-1.87c0,0.77,0.03,1.54,0.09,2.3c0.08,1.21,0.24,2.43,0.44,3.63c0.05,0.33,0.12,0.67,0.19,1.01
									c0.15,0.78,0.33,1.55,0.55,2.33c0.1,0.39,0.21,0.78,0.33,1.16c0.57,1.93,1.31,3.85,2.21,5.74
									C439.61,505.96,439.9,506.53,440.2,507.1z"/>
								<g>
									<g>
										<g id="XMLID_1_">
											<path class="st5" d="M346.76,510.23c-5.99,6.86-23.86,22.01-60.11,14.62c-50.16-10.21-46.16-49.8-45.97-51.47
												c0.25-2.01-0.88-3.93-2.74-4.71c-29.18-12.17-25.51-40.45-22.03-53.42c5.6,4.1,11.99,5.34,16.19,5.67
												c1.22,9.19,6.17,31.03,26.14,46.87c21.54,17.09,53.45,21.68,94.85,13.67c0.43,0.46,0.95,0.96,1.52,1.49
												C357.04,491.33,354.03,501.92,346.76,510.23z"/>
											<path class="st5" d="M381.92,436.26c0.2-1.19,0.87-2.25,1.85-2.94c0.52-0.38,11.8-8.9,7.22-28.82
												c-9.5,13.26-22.01,15.84-22.59,15.96c-0.3,0.05-2.91,0.53-6.78,0.53c-6.87,0-17.67-1.49-26.44-9.46
												c-9.65-8.78-14.14-22.87-13.36-41.96c-18,2.87-46.01,0.88-53.09-23.56c-0.69-2.39,0.69-4.89,3.08-5.58
												c2.39-0.69,4.89,0.69,5.58,3.08c7.49,25.88,47.82,16.19,48.22,16.09c1.43-0.35,2.92,0.01,4.03,0.96
												c1.11,0.96,1.69,2.38,1.55,3.83c-1.77,19.18,1.61,32.79,10.05,40.46c10.41,9.45,25.31,6.77,25.45,6.74
												c0.44-0.09,12-2.64,19.5-16.39c12.95-23.75,3.51-61.51-7.13-89.82c-10.99-0.68-21.15-10.63-26.26-16.56
												c-4.9,6.17-12.58,11.96-24.59,15.26c-0.41,0.11-0.8,0.16-1.2,0.16c-1.98,0-3.8-1.32-4.35-3.32
												c-0.66-2.41,0.76-4.89,3.16-5.55c31.1-8.53,26.7-36.05,26.5-37.23c-0.42-2.45,1.22-4.79,3.67-5.22
												c2.46-0.42,4.79,1.22,5.21,3.67c0.06,0.38,1.57,9.37-1.75,19.69c-0.45,1.41-1,2.88-1.69,4.38
												c4.26,5.39,14.16,15.74,22.47,15.74h0.24c3.46-0.09,6.46-2.14,9.17-6.27c7.14-10.89,8.73-32.87-0.95-50.79
												c-1.36-2.52-3.51-5.88-6.4-8.63c-2.89-2.74-6.51-4.85-10.84-4.85c-23.1,0-33.52,10.51-42.7,19.78
												c-1.62,1.64-3.15,3.18-4.73,4.66c-0.88,0.83-2.06,1.26-3.28,1.21c-0.15,0-15.85-0.58-31.85,4.17
												c-20.28,6.02-31.6,17.48-33.65,34.08c0.07,2.72,1.15,23.54,18.81,23.54h0.08c2.49,0,4.51,2.01,4.51,4.49
												c0.01,2.49-2,4.52-4.49,4.53h-0.11c-7.33,0-13.45-2.39-18.19-7.12c-5.57-5.55-7.91-13.16-8.91-18.67
												c-21.41,12.57-26.39,34.44-23.57,51.62c2.28,13.96,9.78,24.67,17.82,25.47c2.47,0.24,4.28,2.45,4.03,4.93
												c-0.23,2.33-2.19,4.06-4.48,4.06c-0.14,0-0.3-0.01-0.45-0.02c-9.01-0.9-16.94-8.14-21.78-19.1
												c-3.05,5.7-7.14,16.54-4.75,30.89c3.13,18.81,20.06,17.78,21.98,17.6c0.08-0.01,0.17,0,0.25,0
												c0.14,0,0.28-0.03,0.42-0.02c18.3,0.92,25.2-6.45,25.49-6.77c1.61-1.89,4.44-2.1,6.33-0.49c1.9,1.61,2.11,4.49,0.5,6.39
												c-0.36,0.42-8.26,9.42-27.49,9.94c1.37,8.49,6.17,26.72,22.68,39.75c19.8,15.64,50.05,19.45,89.91,11.32
												c1.74-0.35,3.54,0.35,4.57,1.8c0.28,0.38,1.16,1.52,2.58,2.81c0.36,0.23,0.7,0.52,0.99,0.86
												c4.45,3.62,12.83,7.55,24.36,0.61c3.44-2.07,5.48-4.86,6.23-8.53c2.13-10.33-6.42-25.17-9.9-30.03
												C382,438.67,381.71,437.45,381.92,436.26z M325.72,461.28h-0.1c-5.04-0.11-9.51-2-13.24-5.55
												c-2.81,0.47-5.47,0.71-7.96,0.71c-7.5,0-13.51-2.14-17.94-6.41c-10.08-9.71-7.37-26.47-7.25-27.18
												c0.42-2.45,2.74-4.11,5.2-3.69c2.45,0.41,4.11,2.74,3.7,5.2c-0.03,0.17-2.01,12.84,4.63,19.2
												c3.03,2.9,7.61,4.18,13.65,3.81c-2.77-5.62-3.68-10.97-3.72-11.21c-0.41-2.45,1.26-4.77,3.72-5.18
												c2.46-0.41,4.77,1.25,5.18,3.71c0.04,0.22,3.09,17.33,14.21,17.56c2.5,0.06,4.47,2.12,4.41,4.61
												C330.18,459.33,328.17,461.28,325.72,461.28z"/>
										</g>
									</g>
									<g>
										<g id="XMLID_2_">
											<path class="st5" d="M562.07,468.67c-1.87,0.78-3,2.7-2.74,4.71c0.19,1.67,4.2,41.26-45.97,51.47
												c-36.26,7.39-54.12-7.76-60.11-14.62c-7.27-8.32-10.28-18.9-7.83-27.28c0.57-0.53,1.08-1.03,1.52-1.49
												c41.4,8.01,73.31,3.42,94.85-13.67c19.97-15.84,24.92-37.68,26.14-46.87c4.2-0.33,10.58-1.57,16.19-5.67
												C587.58,428.22,591.24,456.5,562.07,468.67z"/>
											<path class="st5" d="M581.47,363.5c-4.83,10.96-12.76,18.2-21.78,19.1c-0.15,0.01-0.31,0.02-0.45,0.02
												c-2.29,0-4.26-1.73-4.49-4.06c-0.25-2.48,1.56-4.69,4.03-4.93c8.04-0.8,15.54-11.51,17.82-25.47
												c2.81-17.18-2.17-39.05-23.57-51.62c-1,5.5-3.35,13.12-8.92,18.67c-4.74,4.73-10.85,7.12-18.19,7.12h-0.11
												c-2.49-0.01-4.5-2.04-4.49-4.53c0-2.48,2.02-4.49,4.51-4.49h0.08c17.66,0,18.74-20.81,18.81-23.54
												c-2.05-16.59-13.37-28.06-33.65-34.08c-16-4.75-31.69-4.17-31.85-4.17c-1.22,0.05-2.39-0.38-3.27-1.21
												c-1.58-1.47-3.1-3.01-4.73-4.66c-9.19-9.27-19.61-19.78-42.7-19.78c-4.32,0-7.95,2.11-10.84,4.85
												c-2.89,2.74-5.03,6.11-6.4,8.63c-9.68,17.92-8.08,39.9-0.95,50.79c2.71,4.13,5.7,6.18,9.17,6.27h0.24
												c8.32,0,18.21-10.35,22.47-15.74c-0.69-1.5-1.24-2.97-1.69-4.38c-3.32-10.31-1.81-19.31-1.75-19.69
												c0.42-2.45,2.75-4.09,5.21-3.67c2.45,0.42,4.1,2.76,3.67,5.22c-0.2,1.17-4.6,28.7,26.5,37.23
												c2.4,0.66,3.82,3.14,3.16,5.55c-0.55,2-2.37,3.32-4.35,3.32c-0.4,0-0.8-0.05-1.2-0.16
												c-12.01-3.29-19.69-9.09-24.59-15.26c-5.11,5.93-15.28,15.88-26.26,16.56c-10.64,28.31-20.07,66.07-7.13,89.82
												c7.5,13.75,19.06,16.3,19.5,16.39c0.15,0.03,15.04,2.71,25.45-6.74c8.44-7.67,11.82-21.28,10.05-40.46
												c-0.14-1.45,0.44-2.88,1.55-3.83c1.11-0.95,2.61-1.31,4.03-0.96c0.41,0.1,40.74,9.78,48.22-16.09
												c0.69-2.39,3.19-3.77,5.58-3.08c2.39,0.69,3.77,3.19,3.08,5.58c-7.07,24.44-35.09,26.43-53.09,23.56
												c0.78,19.09-3.71,33.18-13.36,41.96c-8.77,7.97-19.58,9.46-26.44,9.46c-3.87,0-6.49-0.48-6.78-0.53
												c-0.58-0.12-13.09-2.7-22.59-15.96c-4.58,19.91,6.69,28.44,7.22,28.82c0.98,0.7,1.65,1.75,1.85,2.94
												c0.21,1.19-0.08,2.41-0.78,3.38c-3.47,4.85-12.03,19.7-9.9,30.03c0.76,3.66,2.8,6.46,6.24,8.53
												c11.53,6.95,19.91,3.01,24.36-0.61c0.29-0.34,0.63-0.62,0.99-0.86c1.42-1.3,2.3-2.44,2.58-2.81
												c1.04-1.45,2.83-2.16,4.57-1.8c39.86,8.14,70.11,4.33,89.91-11.32c16.51-13.03,21.31-31.26,22.68-39.75
												c-19.24-0.52-27.13-9.53-27.49-9.94c-1.62-1.9-1.41-4.77,0.5-6.39c1.89-1.61,4.72-1.41,6.33,0.49
												c0.29,0.32,7.19,7.69,25.49,6.77c0.14-0.01,0.27,0.02,0.41,0.02c0.08,0,0.17-0.01,0.25,0
												c1.91,0.18,18.85,1.21,21.98-17.6C588.61,380.04,584.52,369.2,581.47,363.5z M513.51,450.04
												c-4.43,4.27-10.44,6.41-17.94,6.41c-2.49,0-5.15-0.24-7.96-0.71c-3.73,3.54-8.19,5.44-13.24,5.55h-0.1
												c-2.44,0-4.46-1.95-4.5-4.41c-0.05-2.49,1.91-4.55,4.41-4.61c11.12-0.23,14.16-17.34,14.21-17.56
												c0.41-2.46,2.72-4.12,5.18-3.71c2.46,0.41,4.12,2.72,3.72,5.18c-0.04,0.23-0.95,5.58-3.72,11.21
												c6.04,0.37,10.62-0.9,13.65-3.81c6.64-6.36,4.66-19.03,4.63-19.2c-0.41-2.45,1.25-4.78,3.7-5.2
												c2.45-0.42,4.78,1.24,5.2,3.69C520.88,423.57,523.59,440.33,513.51,450.04z"/>
										</g>
									</g>
									<g>
										<path class="st9" d="M325.81,452.26c2.5,0.06,4.47,2.12,4.41,4.61c-0.04,2.46-2.06,4.41-4.5,4.41c-0.04,0-0.07,0-0.1,0
											c-5.04-0.11-9.51-2-13.24-5.55c-2.81,0.47-5.47,0.71-7.96,0.71c-7.5,0-13.51-2.14-17.94-6.41
											c-10.08-9.71-7.37-26.47-7.25-27.18c0.42-2.45,2.74-4.11,5.2-3.69c2.45,0.41,4.11,2.74,3.7,5.2
											c-0.03,0.17-2.01,12.84,4.63,19.2c3.03,2.9,7.61,4.18,13.65,3.81c-2.77-5.62-3.68-10.97-3.72-11.21
											c-0.41-2.45,1.26-4.77,3.72-5.18c2.46-0.41,4.77,1.25,5.18,3.71C311.65,434.92,314.69,452.02,325.81,452.26z"/>
										<path class="st9" d="M474.19,452.26c-2.5,0.06-4.46,2.12-4.41,4.61c0.04,2.46,2.06,4.41,4.5,4.41c0.04,0,0.07,0,0.1,0
											c5.04-0.11,9.51-2,13.24-5.55c2.81,0.47,5.47,0.71,7.96,0.71c7.5,0,13.51-2.14,17.94-6.41
											c10.08-9.71,7.37-26.47,7.24-27.18c-0.42-2.45-2.74-4.11-5.2-3.69c-2.45,0.41-4.1,2.74-3.7,5.2
											c0.03,0.17,2.01,12.84-4.63,19.2c-3.03,2.9-7.62,4.18-13.65,3.81c2.77-5.62,3.68-10.97,3.72-11.21
											c0.41-2.45-1.26-4.77-3.72-5.18c-2.46-0.41-4.77,1.25-5.18,3.71C488.36,434.92,485.32,452.02,474.19,452.26z"/>
										<path class="st9" d="M595.12,395.87c4.24-25.43-8.93-41.87-9.49-42.56c-0.21-0.25-0.44-0.48-0.69-0.67
											c0.22-1,0.41-2,0.58-3.03c3.34-20.38-3.19-48.81-32.15-63.16c-3.2-19.11-16.96-32.73-39.94-39.49
											c-14.14-4.16-27.64-4.51-32.62-4.5c-1.03-1-2.08-2.06-3.18-3.16c-4.95-5.01-10.52-10.62-18.2-14.98
											c-7.68-4.37-17.48-7.48-30.91-7.48c-9.88,0-18.82,6.47-25.16,18.22c-1.25,2.3-2.37,4.82-3.37,7.49
											c-0.99-2.67-2.12-5.19-3.37-7.49c-6.34-11.75-15.28-18.22-25.16-18.22c-13.43,0-23.23,3.11-30.91,7.48
											c-7.68,4.36-13.24,9.97-18.2,14.98c-1.09,1.1-2.15,2.16-3.18,3.16c-4.97-0.01-18.48,0.34-32.62,4.5
											c-22.98,6.76-36.74,20.38-39.94,39.49c-28.96,14.34-35.48,42.77-32.15,63.16c0.17,1.03,0.36,2.03,0.58,3.03
											c-0.24,0.19-0.48,0.42-0.69,0.67c-0.56,0.69-13.73,17.12-9.49,42.56c0.78,4.66,2.19,8.46,4.01,11.56
											c-1.52,4.38-4.46,14.4-4.24,25.87c0.37,19.54,9.65,34.13,26.89,42.39c-0.05,4.64,0.51,13.43,4.64,22.95
											c9.86,22.79,31.91,31.65,48.67,35.06c7.45,1.52,14.24,2.17,20.39,2.17c27.63,0,42.58-13.11,48.32-19.69
											c0.23-0.26,0.45-0.52,0.68-0.79c11.55,10.11,27.8,16.42,45.77,16.42c17.97,0,34.22-6.31,45.77-16.42
											c-0.07-0.08-0.14-0.17-0.2-0.25c0.29,0.35,0.58,0.7,0.88,1.04c5.75,6.58,20.7,19.69,48.32,19.69
											c6.15,0,12.94-0.65,20.39-2.17c16.75-3.41,38.8-12.27,48.67-35.06c4.12-9.52,4.69-18.32,4.64-22.95
											c17.24-8.26,26.52-22.84,26.89-42.39c0.22-11.47-2.72-21.49-4.24-25.87C592.92,404.33,594.34,400.53,595.12,395.87z
											 M400,475.99c1.8,4.08,4.8,7.41,8.99,9.94c6.23,3.74,11.87,5.14,16.84,5.14c3.62,0,6.87-0.75,9.71-1.87
											c0,0.77,0.03,1.54,0.09,2.3c0.08,1.21,0.24,2.43,0.44,3.63c0.06,0.34,0.13,0.68,0.19,1.01c0.16,0.78,0.34,1.55,0.55,2.33
											c0.11,0.39,0.22,0.78,0.33,1.16c0.59,1.92,1.32,3.84,2.21,5.74c0.36,0.75,0.74,1.5,1.15,2.25
											c-0.05-0.08-0.1-0.17-0.15-0.26c-0.04-0.09-0.1-0.18-0.15-0.26c-9.81,9.06-24.19,14.77-40.19,14.77
											c-16.01,0-30.39-5.71-40.19-14.77c-0.09,0.17-0.2,0.34-0.29,0.52c0.2-0.37,0.4-0.75,0.59-1.12
											c0.19-0.38,0.38-0.76,0.55-1.13c0.35-0.74,0.68-1.48,0.97-2.22c0.16-0.41,0.31-0.8,0.47-1.21
											c0.14-0.39,0.27-0.78,0.41-1.15c0.13-0.39,0.24-0.78,0.36-1.15c0.12-0.39,0.23-0.78,0.33-1.16
											c0.21-0.78,0.39-1.55,0.55-2.33c0.06-0.33,0.13-0.67,0.19-1.01c0.21-1.21,0.36-2.43,0.44-3.63
											c0.06-0.77,0.09-1.54,0.09-2.3c2.84,1.12,6.09,1.87,9.71,1.87c4.96,0,10.61-1.4,16.84-5.14
											C395.2,483.4,398.21,480.07,400,475.99z M218.53,363.5c4.84,10.96,12.77,18.2,21.78,19.1c0.15,0.01,0.31,0.02,0.45,0.02
											c2.29,0,4.26-1.73,4.48-4.06c0.25-2.48-1.56-4.69-4.03-4.93c-8.04-0.8-15.54-11.51-17.82-25.47
											c-2.81-17.18,2.16-39.05,23.57-51.62c1,5.5,3.35,13.12,8.91,18.67c4.74,4.73,10.85,7.12,18.19,7.12h0.11
											c2.49-0.01,4.5-2.04,4.49-4.53c0-2.48-2.02-4.49-4.51-4.49h-0.08c-17.66,0-18.74-20.81-18.81-23.54
											c2.05-16.59,13.37-28.06,33.65-34.08c16-4.75,31.69-4.17,31.85-4.17c1.22,0.05,2.39-0.38,3.28-1.21
											c1.58-1.47,3.1-3.01,4.73-4.66c9.19-9.27,19.61-19.78,42.7-19.78c4.32,0,7.95,2.11,10.84,4.85
											c2.89,2.74,5.03,6.11,6.4,8.63c9.68,17.92,8.08,39.9,0.95,50.79c-2.71,4.13-5.7,6.18-9.17,6.27h-0.24
											c-8.32,0-18.22-10.35-22.47-15.74c0.69-1.5,1.24-2.97,1.69-4.38c3.32-10.31,1.81-19.31,1.75-19.69
											c-0.42-2.45-2.75-4.09-5.21-3.67c-2.45,0.42-4.1,2.76-3.67,5.22c0.2,1.17,4.6,28.7-26.5,37.23
											c-2.4,0.66-3.82,3.14-3.16,5.55c0.55,2,2.37,3.32,4.35,3.32c0.4,0,0.79-0.05,1.2-0.16c12.01-3.29,19.69-9.09,24.59-15.26
											c5.12,5.93,15.27,15.88,26.26,16.56c10.64,28.31,20.07,66.07,7.13,89.82c-7.5,13.75-19.06,16.3-19.5,16.39
											c-0.14,0.03-15.04,2.71-25.45-6.74c-8.44-7.67-11.82-21.28-10.05-40.46c0.14-1.45-0.44-2.88-1.55-3.83
											c-1.11-0.95-2.61-1.31-4.03-0.96c-0.41,0.1-40.73,9.78-48.22-16.09c-0.69-2.39-3.19-3.77-5.58-3.08
											c-2.39,0.69-3.77,3.19-3.08,5.58c7.07,24.44,35.09,26.43,53.09,23.56c-0.78,19.09,3.71,33.18,13.36,41.96
											c8.77,7.97,19.58,9.46,26.44,9.46c3.87,0,6.49-0.48,6.78-0.53c0.58-0.12,13.09-2.7,22.59-15.96
											c4.58,19.91-6.69,28.44-7.22,28.82c-0.98,0.7-1.65,1.75-1.85,2.94c-0.21,1.19,0.08,2.41,0.78,3.38
											c3.47,4.85,12.03,19.7,9.9,30.03c-0.76,3.66-2.8,6.46-6.23,8.53c-11.53,6.95-19.91,3.01-24.36-0.61
											c-0.29-0.34-0.63-0.62-0.99-0.86c-1.43-1.3-2.3-2.44-2.58-2.81c-1.04-1.45-2.83-2.16-4.57-1.8
											c-39.86,8.14-70.11,4.33-89.91-11.32c-16.51-13.03-21.31-31.26-22.68-39.75c19.24-0.52,27.13-9.53,27.49-9.94
											c1.62-1.9,1.41-4.77-0.5-6.39c-1.9-1.61-4.72-1.41-6.33,0.49c-0.29,0.32-7.19,7.69-25.49,6.77
											c-0.14-0.01-0.27,0.02-0.42,0.02c-0.08,0-0.17-0.01-0.25,0c-1.91,0.18-18.85,1.21-21.98-17.6
											C211.39,380.04,215.48,369.2,218.53,363.5z M346.76,510.23c-5.99,6.86-23.86,22.01-60.11,14.62
											c-50.16-10.21-46.16-49.8-45.97-51.47c0.25-2.01-0.88-3.93-2.74-4.71c-29.18-12.17-25.51-40.45-22.03-53.42
											c5.6,4.1,11.99,5.34,16.19,5.67c1.22,9.19,6.17,31.03,26.14,46.87c21.54,17.09,53.45,21.68,94.85,13.67
											c0.43,0.46,0.95,0.96,1.52,1.49C357.04,491.33,354.03,501.92,346.76,510.23z M562.07,468.67c-1.87,0.78-3,2.7-2.74,4.71
											c0.19,1.67,4.2,41.26-45.97,51.47c-36.26,7.39-54.12-7.76-60.11-14.62c-7.27-8.32-10.28-18.9-7.83-27.28
											c0.57-0.53,1.08-1.03,1.52-1.49c41.4,8.01,73.31,3.42,94.85-13.67c19.97-15.84,24.92-37.68,26.14-46.87
											c4.2-0.33,10.58-1.57,16.19-5.67C587.58,428.22,591.24,456.5,562.07,468.67z M586.22,394.39
											c-3.13,18.81-20.07,17.78-21.98,17.6c-0.08-0.01-0.17,0-0.25,0c-0.14,0-0.28-0.03-0.41-0.02
											c-18.3,0.92-25.2-6.45-25.49-6.77c-1.62-1.89-4.44-2.1-6.33-0.49c-1.9,1.61-2.11,4.49-0.5,6.39
											c0.36,0.42,8.25,9.42,27.49,9.94c-1.37,8.49-6.17,26.72-22.68,39.75c-19.8,15.64-50.06,19.45-89.91,11.32
											c-1.74-0.35-3.54,0.35-4.57,1.8c-0.28,0.38-1.16,1.52-2.58,2.81c-0.36,0.23-0.7,0.52-0.99,0.86
											c-4.45,3.62-12.83,7.55-24.36,0.61c-3.44-2.07-5.48-4.86-6.24-8.53c-2.13-10.33,6.42-25.17,9.9-30.03
											c0.7-0.97,0.98-2.19,0.78-3.38c-0.2-1.19-0.87-2.25-1.85-2.94c-0.52-0.38-11.8-8.9-7.22-28.82
											c9.5,13.26,22.01,15.84,22.59,15.96c0.3,0.05,2.91,0.53,6.78,0.53c6.87,0,17.67-1.49,26.44-9.46
											c9.65-8.78,14.14-22.87,13.36-41.96c18,2.87,46.01,0.88,53.09-23.56c0.7-2.39-0.69-4.89-3.08-5.58
											c-2.39-0.69-4.89,0.69-5.58,3.08c-7.49,25.88-47.82,16.19-48.22,16.09c-1.43-0.35-2.92,0.01-4.03,0.96
											c-1.11,0.96-1.69,2.38-1.55,3.83c1.77,19.18-1.61,32.79-10.05,40.46c-10.41,9.45-25.31,6.77-25.45,6.74
											c-0.44-0.09-12-2.64-19.5-16.39c-12.95-23.75-3.51-61.51,7.13-89.82c10.99-0.68,21.15-10.63,26.26-16.56
											c4.9,6.17,12.58,11.96,24.59,15.26c0.4,0.11,0.8,0.16,1.2,0.16c1.98,0,3.8-1.32,4.35-3.32c0.66-2.41-0.76-4.89-3.16-5.55
											c-31.1-8.53-26.7-36.05-26.5-37.23c0.43-2.45-1.22-4.79-3.67-5.22c-2.46-0.42-4.79,1.22-5.21,3.67
											c-0.06,0.38-1.57,9.37,1.75,19.69c0.45,1.41,1,2.88,1.69,4.38c-4.26,5.39-14.16,15.74-22.47,15.74h-0.24
											c-3.46-0.09-6.46-2.14-9.17-6.27c-7.14-10.89-8.73-32.87,0.95-50.79c1.36-2.52,3.51-5.88,6.4-8.63
											c2.89-2.74,6.51-4.85,10.84-4.85c23.1,0,33.52,10.51,42.7,19.78c1.62,1.64,3.15,3.18,4.73,4.66
											c0.88,0.83,2.06,1.26,3.27,1.21c0.15,0,15.85-0.58,31.85,4.17c20.28,6.02,31.6,17.48,33.65,34.08
											c-0.07,2.72-1.15,23.54-18.81,23.54h-0.08c-2.49,0-4.51,2.01-4.51,4.49c-0.01,2.49,2,4.52,4.49,4.53h0.11
											c7.34,0,13.45-2.39,18.19-7.12c5.57-5.55,7.91-13.16,8.92-18.67c21.41,12.57,26.39,34.44,23.57,51.62
											c-2.28,13.96-9.78,24.67-17.82,25.47c-2.47,0.24-4.29,2.45-4.03,4.93c0.23,2.33,2.19,4.06,4.49,4.06
											c0.14,0,0.3-0.01,0.45-0.02c9.01-0.9,16.94-8.14,21.78-19.1C584.52,369.2,588.61,380.04,586.22,394.39z"/>
									</g>
								</g>
							</g>
						</g>
						<g>
							<g>
								<path class="st7" d="M443.68,479.85c0,6.16-2.9,11.89-7.83,16.57c-4.5,4.3-10.7,7.76-17.96,9.92
									c-5.45,1.63-11.51,2.55-17.89,2.55c-6.39,0-12.44-0.91-17.91-2.55c-7.26-2.17-13.46-5.62-17.96-9.92
									c-4.92-4.7-7.82-10.42-7.82-16.57c0-11.7,10.39-6.35,25.36-2.58c5.58,1.39,11.79,2.58,18.33,2.58
									c6.54,0,12.74-1.19,18.31-2.58C433.28,473.51,443.68,468.16,443.68,479.85z"/>
							</g>
							<path class="st9" d="M417.89,504.14c-5.45,1.64-11.51,2.55-17.89,2.55c-6.39,0-12.44-0.91-17.91-2.55
								c1.24-8.77,8.78-15.52,17.9-15.52C409.11,488.62,416.66,495.37,417.89,504.14z"/>
						</g>
						<g>
							<path class="st7" d="M372.8,432.28c0,0,0.05,0.37,0.15,1.07c0.04,0.35,0.1,0.78,0.16,1.28c0.03,0.26,0.07,0.52,0.09,0.82
								c0,0.33-0.01,0.68-0.01,1.04c-0.01,0.74-0.02,1.58-0.07,2.48c-0.09,0.86-0.24,1.79-0.38,2.8c-0.16,1-0.47,2.03-0.73,3.15
								c-0.29,1.11-0.78,2.21-1.21,3.41c-0.53,1.15-1.11,2.34-1.8,3.54c-0.75,1.15-1.47,2.4-2.43,3.52
								c-1.78,2.36-4.11,4.5-6.73,6.42c-0.68,0.45-1.36,0.92-2.06,1.36c-0.7,0.44-1.46,0.79-2.21,1.19l-1.13,0.58l-1.18,0.48
								c-0.8,0.3-1.59,0.64-2.42,0.9c-1.66,0.46-3.33,0.98-5.07,1.18c-0.86,0.14-1.73,0.29-2.61,0.31l-1.31,0.07l-0.66,0.04
								l-0.33,0.02l-0.16,0.01l-0.08,0l-0.04,0c-0.14,0,0.26,0.01-0.33,0l-2.21-0.13l-0.55-0.03c-0.18-0.01-0.36-0.02-0.62-0.06
								l-1.4-0.2c-0.91-0.16-1.92-0.25-2.73-0.51c-0.84-0.23-1.67-0.46-2.51-0.69c-0.82-0.26-1.62-0.6-2.41-0.9l-1.18-0.48
								l-1.13-0.58c-0.74-0.4-1.51-0.75-2.21-1.19c-0.7-0.45-1.38-0.91-2.06-1.36c-2.62-1.92-4.95-4.06-6.73-6.42
								c-0.95-1.12-1.68-2.37-2.43-3.52c-0.68-1.19-1.27-2.39-1.8-3.54c-0.43-1.2-0.92-2.3-1.21-3.41
								c-0.27-1.12-0.57-2.16-0.73-3.15c-0.14-1.01-0.29-1.93-0.38-2.8c-0.04-0.87-0.04-1.67-0.05-2.38c0-0.36-0.01-0.69-0.01-1.01
								c0.02-0.32,0.06-0.61,0.08-0.89c0.06-0.55,0.11-1.01,0.15-1.39c0.1-0.75,0.15-1.14,0.15-1.14c0.16-1.21,1.26-2.06,2.47-1.91
								c0.92,0.12,1.63,0.79,1.85,1.63l0.07,0.28c0,0,0.09,0.34,0.25,0.98c0.18,0.63,0.32,1.56,0.72,2.68
								c0.18,0.56,0.39,1.17,0.61,1.84c0.3,0.65,0.57,1.35,0.88,2.08c0.32,0.73,0.77,1.46,1.17,2.25c0.43,0.77,0.97,1.53,1.46,2.34
								c0.58,0.76,1.15,1.57,1.82,2.34c0.72,0.73,1.34,1.57,2.17,2.25c1.51,1.52,3.37,2.78,5.31,3.96c1.97,1.16,4.17,1.99,6.41,2.67
								c0.57,0.13,1.15,0.26,1.73,0.39c0.3,0.08,0.57,0.12,0.82,0.14l0.78,0.11l0.78,0.13c0.11,0.03,0.29,0.04,0.48,0.04l0.55,0.02
								l2.21,0.1c-0.57-0.01-0.14,0-0.26-0.01h0.03l0.06,0l0.11-0.01l0.22-0.01l0.45-0.02l0.9-0.04c0.6,0.01,1.19-0.1,1.78-0.19
								c0.58-0.11,1.19-0.11,1.76-0.28c0.58-0.13,1.15-0.26,1.73-0.39c2.25-0.68,4.45-1.51,6.42-2.67c1.94-1.18,3.8-2.44,5.31-3.96
								c0.84-0.68,1.46-1.52,2.17-2.25c0.66-0.77,1.23-1.58,1.82-2.34c0.49-0.81,1.04-1.57,1.46-2.34c0.4-0.78,0.85-1.51,1.17-2.25
								c0.31-0.74,0.57-1.44,0.87-2.08c0.22-0.63,0.42-1.22,0.6-1.74c0.09-0.27,0.18-0.53,0.26-0.77c0.07-0.27,0.13-0.55,0.19-0.79
								c0.11-0.5,0.21-0.92,0.29-1.26c0.17-0.69,0.26-1.05,0.26-1.05c0.29-1.2,1.51-1.94,2.71-1.64
								C372.03,430.64,372.68,431.4,372.8,432.28z"/>
							<path class="st7" d="M491.89,432.28c0,0,0.05,0.37,0.15,1.07c0.04,0.35,0.09,0.78,0.16,1.28c0.03,0.26,0.07,0.52,0.09,0.82
								c0,0.33-0.01,0.68-0.01,1.04c-0.02,0.74-0.02,1.58-0.07,2.48c-0.09,0.86-0.24,1.79-0.38,2.8c-0.17,1-0.47,2.03-0.74,3.15
								c-0.29,1.11-0.78,2.21-1.21,3.41c-0.53,1.15-1.11,2.34-1.8,3.54c-0.74,1.15-1.47,2.4-2.43,3.52
								c-1.78,2.36-4.11,4.5-6.73,6.42c-0.68,0.45-1.36,0.92-2.06,1.36c-0.7,0.44-1.46,0.79-2.21,1.19l-1.13,0.58l-1.18,0.48
								c-0.8,0.3-1.59,0.64-2.41,0.9c-1.66,0.46-3.33,0.98-5.08,1.18c-0.86,0.14-1.73,0.29-2.61,0.31l-1.31,0.07l-0.66,0.04
								l-0.33,0.02l-0.17,0.01l-0.08,0l-0.04,0c-0.14,0,0.26,0.01-0.33,0l-2.21-0.13l-0.55-0.03c-0.18-0.01-0.36-0.02-0.62-0.06
								l-1.4-0.2c-0.91-0.16-1.92-0.25-2.73-0.51c-0.84-0.23-1.67-0.46-2.51-0.69c-0.82-0.26-1.62-0.6-2.42-0.9l-1.18-0.48
								l-1.13-0.58c-0.74-0.4-1.5-0.75-2.21-1.19c-0.7-0.45-1.38-0.91-2.06-1.36c-2.63-1.92-4.95-4.06-6.73-6.42
								c-0.95-1.12-1.68-2.37-2.43-3.52c-0.68-1.19-1.27-2.39-1.8-3.54c-0.43-1.2-0.92-2.3-1.21-3.41
								c-0.27-1.12-0.57-2.16-0.73-3.15c-0.14-1.01-0.29-1.93-0.38-2.8c-0.04-0.87-0.04-1.67-0.05-2.38c0-0.36-0.01-0.69-0.01-1.01
								c0.02-0.32,0.06-0.61,0.09-0.89c0.06-0.55,0.11-1.01,0.15-1.39c0.1-0.75,0.15-1.14,0.15-1.14c0.16-1.21,1.26-2.06,2.47-1.91
								c0.92,0.12,1.63,0.79,1.85,1.63l0.07,0.28c0,0,0.09,0.34,0.25,0.98c0.18,0.63,0.32,1.56,0.72,2.68
								c0.18,0.56,0.39,1.17,0.61,1.84c0.3,0.65,0.57,1.35,0.88,2.08c0.32,0.73,0.77,1.46,1.17,2.25c0.43,0.77,0.97,1.53,1.46,2.34
								c0.58,0.76,1.16,1.57,1.82,2.34c0.71,0.73,1.34,1.57,2.17,2.25c1.51,1.52,3.37,2.78,5.31,3.96c1.97,1.16,4.17,1.99,6.42,2.67
								c0.57,0.13,1.15,0.26,1.73,0.39c0.3,0.08,0.57,0.12,0.82,0.14l0.78,0.11l0.78,0.13c0.11,0.03,0.29,0.04,0.48,0.04l0.55,0.02
								l2.21,0.1c-0.57-0.01-0.14,0-0.26-0.01h0.03l0.06,0l0.11-0.01l0.22-0.01l0.45-0.02l0.9-0.04c0.6,0.01,1.19-0.1,1.78-0.19
								c0.58-0.11,1.19-0.11,1.76-0.28c0.58-0.13,1.16-0.26,1.73-0.39c2.25-0.68,4.45-1.51,6.42-2.67c1.94-1.18,3.8-2.44,5.31-3.96
								c0.84-0.68,1.46-1.52,2.17-2.25c0.66-0.77,1.23-1.58,1.82-2.34c0.5-0.81,1.04-1.57,1.46-2.34c0.4-0.78,0.85-1.51,1.16-2.25
								c0.31-0.74,0.58-1.44,0.88-2.08c0.22-0.63,0.42-1.22,0.6-1.74c0.09-0.27,0.18-0.53,0.27-0.77c0.07-0.27,0.13-0.55,0.18-0.79
								c0.11-0.5,0.21-0.92,0.29-1.26c0.17-0.69,0.26-1.05,0.26-1.05c0.29-1.2,1.5-1.94,2.71-1.64
								C491.12,430.64,491.77,431.4,491.89,432.28z"/>
						</g>
					</g>
					<g>
						<g>
							<path class="st7" d="M319.33,353.42c-0.36,0-0.72-0.04-1.08-0.12c-2.67-0.59-4.35-3.24-3.75-5.91
								c0.09-0.39,9.11-38.76,51.33-43.08c2.73-0.28,5.15,1.7,5.43,4.42c0.28,2.72-1.7,5.15-4.42,5.43
								c-35.2,3.61-42.61,35.07-42.68,35.39C323.64,351.85,321.6,353.42,319.33,353.42z"/>
						</g>
						<g>
							<path class="st7" d="M480.68,353.42c-2.26,0-4.3-1.56-4.82-3.86c-0.3-1.31-7.7-31.82-42.68-35.4
								c-2.72-0.28-4.7-2.71-4.42-5.43c0.28-2.72,2.72-4.7,5.43-4.42c42.22,4.33,51.25,42.7,51.33,43.08
								c0.59,2.67-1.09,5.31-3.75,5.91C481.39,353.38,481.03,353.42,480.68,353.42z"/>
						</g>
					</g>
				</g>
				<path class="st10" d="M660.99,472.88c-4.78,1.24-4.44,6.06-1.55,20.15c2.88,14.1-7.88,21.47-7.88,21.47
					c14.9-24.83-6.34-44.41-11.23-40.85c-4.31,3.15-2.38,7.85,4.51,19.86c6.89,12.01-1.77,20.29-1.77,20.29
					c1.61-10.49-0.24-21.61-9.45-24.46c-6.54-2.01-8.57,2.52-8.74,5.77c-2.51-9.58-30.12-13.86-23.02,13.15
					c3.81,14.47,10.78,21.38,17,24.68c-0.68,5.4-2.68,16.94-8.2,28.69c-9.54,20.29-24.9,31.82-45.69,34.31
					c-40.37,4.83-64.06-23.46-72.54-36.16l11.45-6.61c1.47-0.85,2.46-2.33,2.7-4.02c0.22-1.67-0.33-3.37-1.51-4.58l-8.5-8.74
					c5.67-0.11,11.85-0.77,18.59-2.14c16.75-3.4,38.8-12.26,48.67-35.05c4.12-9.53,4.68-18.32,4.63-22.95
					c17.25-8.26,26.52-22.85,26.89-42.39c0.22-11.47-2.73-21.49-4.25-25.87c1.82-3.09,3.24-6.89,4.02-11.56
					c4.23-25.43-8.93-41.87-9.49-42.55c-0.21-0.25-0.45-0.48-0.69-0.67c0.21-1,0.4-2,0.58-3.04c3.33-20.37-3.19-48.8-32.15-63.15
					c-3.2-19.11-16.96-32.73-39.94-39.49c-14.14-4.16-27.64-4.51-32.61-4.5c-1.04-1-2.09-2.06-3.18-3.16
					c-4.95-5-10.53-10.62-18.2-14.97c-7.68-4.37-17.48-7.48-30.91-7.48c-9.87,0-18.82,6.46-25.16,18.21
					c-1.25,2.3-2.38,4.82-3.37,7.49v403.64h39.97l-34.43,4.19c0,0-5.59,33.63,0,33.63c5.61,0,10.71-23.39,10.71-23.39
					s116.16-9.22,107-20.93c-4.85-6.19-27.33-7.83-47.46-8.01l-9.22-56.99l10.6-6.11c3.65,5.61,9.79,13.85,18.58,21.77
					c17.33,15.64,37.94,23.73,60.12,23.73c3.69,0,7.42-0.22,11.19-0.68c27.04-3.23,47.7-18.74,59.79-44.86
					c6.3-13.65,8.64-26.74,9.48-33.36C689.37,526.73,668.39,470.94,660.99,472.88z M619.69,520.1c-4.96-1.13-9.93-19.71-2.88-18.91
					c7.05,0.8,7.83-2.53,7.83-2.53c0.22-0.53,0.34-1.03,0.41-1.55c1.65,6.27,5.37,2,8.42,9.69
					C638.46,519.42,624.66,521.22,619.69,520.1z"/>
			</g>
			<g>
				<circle class="st5" cx="400" cy="182.97" r="4.44"/>
				<g>
					<path class="st11" d="M474.02,118.85c0,40.88-33.14,74.02-74.02,74.02c-40.88,0-74.02-33.14-74.02-74.02
						c0-40.88,33.14-74.02,74.02-74.02C440.88,44.83,474.02,77.97,474.02,118.85z"/>
					<path class="st11" d="M465.97,118.85c0,36.44-29.54,65.97-65.97,65.97c-36.44,0-65.97-29.54-65.97-65.97
						c0-36.44,29.54-65.97,65.97-65.97C436.44,52.88,465.97,82.41,465.97,118.85z"/>
					<path class="st11" d="M455.02,118.85c0,30.38-24.63,55.02-55.02,55.02c-30.38,0-55.02-24.63-55.02-55.02
						c0-30.39,24.63-55.02,55.02-55.02C430.38,63.83,455.02,88.46,455.02,118.85z"/>
				</g>
				<path class="st12" d="M435.23,118.85c0,19.46-15.78,35.23-35.23,35.23c-19.46,0-35.23-15.77-35.23-35.23
					c0-19.46,15.77-35.23,35.23-35.23C419.46,83.61,435.23,99.39,435.23,118.85z"/>
				<g>
					<path class="st7" d="M417.41,155.61v23.5c0,2.13-1.73,3.86-3.86,3.86h-27.1c-2.13,0-3.86-1.73-3.86-3.86v-23.5
						c0-2.13,1.73-3.86,3.86-3.86h27.1C415.68,151.75,417.41,153.48,417.41,155.61z"/>
					<g class="st13">
						<path class="st3" d="M417.41,164.28v2c-5.68,0.69-11.23,0.95-16.36,0.95c-7.25,0-13.67-0.51-18.46-1.06v-2.01
							C390.68,165.1,403.68,165.96,417.41,164.28z"/>
					</g>
					<g class="st13">
						<path class="st3" d="M417.41,173.71v2.01c-5.68,0.68-11.23,0.94-16.36,0.94c-7.25,0-13.67-0.51-18.46-1.06v-2.01
							C390.68,174.53,403.68,175.39,417.41,173.71z"/>
					</g>
				</g>
				<g>
					<g>
						<g>
							<path class="st7" d="M389.53,155.6c-0.25,0-0.47-0.19-0.5-0.45l-3.64-36.25c-0.03-0.27,0.17-0.52,0.45-0.55
								c0.28-0.02,0.52,0.17,0.55,0.45l3.64,36.25c0.03,0.27-0.17,0.52-0.45,0.55C389.57,155.6,389.55,155.6,389.53,155.6z"/>
						</g>
						<g>
							<path class="st7" d="M410.47,155.6c-0.02,0-0.03,0-0.05,0c-0.28-0.03-0.48-0.27-0.45-0.55l3.64-36.25
								c0.03-0.28,0.29-0.47,0.55-0.45c0.28,0.03,0.48,0.27,0.45,0.55l-3.64,36.25C410.94,155.41,410.72,155.6,410.47,155.6z"/>
						</g>
					</g>
					<path class="st14" d="M412.29,118.67c-1.18,0-2.61,0.58-3.89,1.55c-1.2-0.97-2.7-1.55-4.3-1.55c-1.18,0-2.61,0.58-3.89,1.55
						c-1.2-0.97-2.7-1.55-4.3-1.55c-1.18,0-2.61,0.58-3.89,1.55c-1.2-0.97-2.7-1.55-4.3-1.55c-0.28,0-0.5,0.22-0.5,0.5
						c0,0.28,0.22,0.5,0.5,0.5c1.28,0,2.5,0.46,3.51,1.23c-1.38,1.32-2.42,3.13-2.42,5.11c0,2.62,1.51,3.79,3.01,3.79
						c1.45,0,3-1,3-3.79c0-1.95-0.78-3.76-2.04-5.09c1.06-0.78,2.21-1.25,3.13-1.25c1.28,0,2.5,0.46,3.51,1.23
						c-1.38,1.32-2.42,3.13-2.42,5.11c0,2.62,1.51,3.79,3.01,3.79c1.45,0,3-1,3-3.79c0-1.95-0.78-3.76-2.04-5.09
						c1.06-0.78,2.21-1.25,3.13-1.25c1.28,0,2.5,0.46,3.51,1.23c-1.38,1.32-2.42,3.13-2.42,5.11c0,2.62,1.51,3.79,3,3.79
						c1.45,0,3.01-1,3.01-3.79c0-1.95-0.78-3.76-2.04-5.09c1.06-0.78,2.21-1.25,3.13-1.25c0.28,0,0.5-0.22,0.5-0.5
						C412.79,118.89,412.56,118.67,412.29,118.67z M393.81,126.01c0,1.8-0.71,2.79-2,2.79c-1.22,0-2.01-1.09-2.01-2.79
						c0-1.69,0.95-3.27,2.18-4.43C393.1,122.74,393.81,124.32,393.81,126.01z M402,126.01c0,1.8-0.71,2.79-2,2.79
						c-1.22,0-2.01-1.09-2.01-2.79c0-1.69,0.95-3.27,2.18-4.43C401.29,122.74,402,124.32,402,126.01z M410.2,126.01
						c0,1.8-0.71,2.79-2.01,2.79c-1.22,0-2-1.09-2-2.79c0-1.69,0.95-3.27,2.18-4.43C409.49,122.74,410.2,124.32,410.2,126.01z"/>
				</g>
			</g>
		</g>
		<g>
			<path class="st3" d="M160,299.13c0,10.99-4.87,15.86-15.86,15.86c10.99,0,15.86,4.87,15.86,15.86c0-10.99,4.87-15.86,15.86-15.86
				C164.87,314.99,160,310.12,160,299.13z"/>
			<path class="st3" d="M126.62,338.25c0,15.33-6.8,22.12-22.12,22.12c15.33,0,22.12,6.79,22.12,22.12
				c0-15.33,6.79-22.12,22.12-22.12C133.41,360.37,126.62,353.58,126.62,338.25z"/>
			<path class="st3" d="M171.81,344.58c0,1.86-1.51,3.36-3.36,3.36s-3.36-1.51-3.36-3.36s1.51-3.36,3.36-3.36
				S171.81,342.72,171.81,344.58z"/>
			<path class="st3" d="M121.96,317.01c0,3.03-2.46,5.49-5.49,5.49c-3.03,0-5.49-2.46-5.49-5.49s2.46-5.49,5.49-5.49
				C119.5,311.52,121.96,313.98,121.96,317.01z"/>
			<path class="st3" d="M158.6,374.62c0,1.79-1.45,3.24-3.24,3.24c-1.79,0-3.23-1.45-3.23-3.24c0-1.79,1.45-3.23,3.23-3.23
				C157.16,371.39,158.6,372.84,158.6,374.62z"/>
		</g>
		<g>
			<path class="st3" d="M651.52,353.42c0,10.99,4.87,15.86,15.86,15.86c-10.99,0-15.86,4.87-15.86,15.86
				c0-10.99-4.87-15.86-15.86-15.86C646.65,369.27,651.52,364.4,651.52,353.42z"/>
			<path class="st3" d="M684.9,392.54c0,15.32,6.8,22.12,22.12,22.12c-15.33,0-22.12,6.79-22.12,22.12
				c0-15.33-6.79-22.12-22.12-22.12C678.11,414.66,684.9,407.86,684.9,392.54z"/>
			<path class="st3" d="M639.71,398.86c0,1.86,1.51,3.36,3.36,3.36s3.36-1.51,3.36-3.36c0-1.86-1.51-3.36-3.36-3.36
				S639.71,397.01,639.71,398.86z"/>
			<path class="st3" d="M689.56,371.3c0,3.03,2.46,5.49,5.49,5.49c3.04,0,5.49-2.46,5.49-5.49c0-3.03-2.46-5.49-5.49-5.49
				C692.02,365.8,689.56,368.26,689.56,371.3z"/>
			<path class="st3" d="M652.92,428.91c0,1.79,1.45,3.24,3.24,3.24c1.79,0,3.23-1.45,3.23-3.24c0-1.79-1.45-3.23-3.23-3.23
				C654.37,425.67,652.92,427.12,652.92,428.91z"/>
		</g>
	</g>
</g>
</svg>
