<svg xmlns:rdf="http://www.w3.org/1999/02/22-rdf-syntax-ns#" xmlns="http://www.w3.org/2000/svg" xmlns:cc="http://web.resource.org/cc/" xmlns:xlink="http://www.w3.org/1999/xlink" xmlns:dc="http://purl.org/dc/elements/1.1/" xmlns:svg="http://www.w3.org/2000/svg" id="svg1" height="80pt" width="80pt">
  <defs id="defs3">
    <linearGradient id="linearGradient1615" x2=".52451" y1=".21538" x1=".33824" y2=".36923">
      <stop id="stop1576" stop-color="#fff" stop-opacity=".5" offset="0"/>
      <stop id="stop1577" stop-color="#fff" stop-opacity="0" offset="1"/>
    </linearGradient>
  </defs>
  <g id="g1616" transform="translate(-162.09 -215.75)" fill-rule="evenodd">
    <path id="path1608" stroke-linejoin="round" d="m212.69 226.28c-12.83 19.67-22.18 29.82-41.47 40.66 18.25 10.7 31.13 21.77 41.84 39.65 9.57-16.99 21.29-29.65 41.63-40.18-20.46-7.99-32.31-20.65-42-40.13z" stroke="#f00" stroke-width="1pt" fill="#f00"/>
    <path id="path1614" fill="url(#linearGradient1615)" d="m212.6 226.42c-12.82 19.68-22.18 29.82-41.47 40.66 18.26 10.71 31.13 21.77 41.85 39.66 9.57-16.99 21.28-29.66 41.62-40.19-20.46-7.99-32.31-20.65-42-40.13z"/>
  </g>
</svg>