<svg id="Capa_1" enable-background="new 0 0 512 512" height="512" viewBox="0 0 512 512" width="512" xmlns="http://www.w3.org/2000/svg"><g><g><path d="m456 40h-400c-4.418 0-8-3.582-8-8v-16c0-4.418 3.582-8 8-8h400c4.418 0 8 3.582 8 8v16c0 4.418-3.582 8-8 8z" fill="#61cfe5"/></g><g><path d="m64 40h384v288h-384z" fill="#bef2f5"/></g><g><path d="m88 40c0 13.255 10.745 24 24 24h288c13.255 0 24 10.745 24 24v192c0 13.255 10.745 24 24 24v-264z" fill="#fff"/></g><g><path d="m328 104h-144c-8.837 0-16 7.163-16 16v128c0 8.837 7.163 16 16 16h144c8.837 0 16-7.163 16-16v-128c0-8.837-7.163-16-16-16z" fill="#fff"/></g><g><path d="m299.314 163.314c-6.248-6.248-16.379-6.248-22.627 0l-96.687 96.686 12 4h136c8.837 0 16-7.163 16-16v-40z" fill="#bef2f5"/></g><g><circle cx="216" cy="152" fill="#bef2f5" r="16"/></g><path d="m368.647 498.685-104.647-117.727v-52.958c0-4.418-3.582-8-8-8-4.419 0-8 3.582-8 8v52.958l-104.646 117.727c-2.935 3.302-2.638 8.358.665 11.294 3.303 2.935 8.359 2.638 11.294-.665l92.687-104.272v98.958c0 4.418 3.581 8 8 8 4.418 0 8-3.582 8-8v-98.958l92.688 104.273c1.581 1.778 3.776 2.685 5.982 2.685 1.891 0 3.788-.666 5.312-2.021 3.302-2.935 3.6-7.992.665-11.294z" fill="#00abd5"/><g><path d="m448 336c-4.418 0-8-3.582-8-8v-288c0-4.418 3.582-8 8-8s8 3.582 8 8v288c0 4.418-3.582 8-8 8z" fill="#00abd5"/></g><g><path d="m64 336c-4.419 0-8-3.582-8-8v-288c0-4.418 3.581-8 8-8 4.418 0 8 3.582 8 8v288c0 4.418-3.582 8-8 8z" fill="#00abd5"/></g><g><path d="m456 48h-400c-8.822 0-16-7.178-16-16v-16c0-8.822 7.178-16 16-16h400c8.822 0 16 7.178 16 16v16c0 8.822-7.178 16-16 16zm-400-32v16h400 .01l-.01-16z" fill="#283246"/></g><g><path d="m464 336h-416c-4.419 0-8-3.582-8-8s3.581-8 8-8h416c4.418 0 8 3.582 8 8s-3.582 8-8 8z" fill="#283246"/></g><g><path d="m128 216c-2.047 0-4.095-.781-5.657-2.343l-24-24c-3.124-3.125-3.124-8.189 0-11.314l24-24c3.124-3.123 8.189-3.123 11.313 0 3.125 3.125 3.125 8.189 0 11.314l-18.343 18.343 18.343 18.343c3.125 3.125 3.125 8.189 0 11.314-1.561 1.562-3.609 2.343-5.656 2.343z" fill="#00abd5"/></g><g><path d="m384 216c-2.048 0-4.095-.781-5.657-2.343-3.124-3.125-3.124-8.189 0-11.314l18.343-18.343-18.344-18.343c-3.124-3.125-3.124-8.189 0-11.314 3.125-3.123 8.189-3.123 11.314 0l24 24c3.124 3.125 3.124 8.189 0 11.314l-24 24c-1.561 1.562-3.608 2.343-5.656 2.343z" fill="#00abd5"/></g><path d="m352 120c0-13.233-10.767-24-24-24h-144c-13.233 0-24 10.767-24 24v128c0 13.233 10.767 24 24 24h144c13.233 0 24-10.767 24-24zm-176 0c0-4.411 3.589-8 8-8h144c4.411 0 8 3.589 8 8v68.686l-31.029-31.029c-4.533-4.532-10.56-7.028-16.971-7.028s-12.438 2.496-16.971 7.028l-94.092 94.092c-.596-1.12-.937-2.395-.937-3.749zm152 136h-132.686l87.03-87.029c1.511-1.511 3.52-2.343 5.656-2.343 2.137 0 4.145.832 5.656 2.343l42.344 42.343v36.686c0 4.411-3.589 8-8 8z" fill="#283246"/><g><path d="m216 176c-13.234 0-24-10.767-24-24s10.766-24 24-24 24 10.767 24 24-10.766 24-24 24zm0-32c-4.411 0-8 3.589-8 8s3.589 8 8 8 8-3.589 8-8-3.589-8-8-8z" fill="#283246"/></g></g></svg>