<?xml version="1.0" encoding="utf-8"?>
<!-- Generator: Adobe Illustrator 24.0.1, SVG Export Plug-In . SVG Version: 6.00 Build 0)  -->
<svg version="1.1" id="OBJECTS" xmlns="http://www.w3.org/2000/svg" xmlns:xlink="http://www.w3.org/1999/xlink" x="0px" y="0px"
	 viewBox="0 0 500 500" style="enable-background:new 0 0 500 500;" xml:space="preserve">
<style type="text/css">
	.st0{fill:#214357;}
	.st1{fill:#F4AD6F;}
	.st2{fill:#DBFFFE;}
	.st3{fill:#2D5B75;}
	.st4{fill:#356975;}
	.st5{fill:#FFFFFF;}
	.st6{fill:#A7F0EF;}
	.st7{opacity:0.2;fill:#FFFFFF;}
	.st8{opacity:0.25;}
	.st9{fill:#FDD184;}
	.st10{fill:#FEE2AD;}
	.st11{fill:#FEFEFE;}
	.st12{fill:#C24C4B;}
	.st13{fill:#9E3231;}
	.st14{fill:#CF522C;}
	.st15{fill:#FF6536;}
	.st16{clip-path:url(#SVGID_2_);}
	.st17{fill:#75472B;}
	.st18{fill:#FFD08A;}
	.st19{fill:#F5B67F;}
	.st20{fill:#8A1C1C;}
	.st21{fill:#661515;}
	.st22{fill:#EBEBEB;}
	.st23{fill:#408733;}
	.st24{opacity:0.1;}
	.st25{fill:#9264CC;}
	.st26{fill:#B87DFF;}
	.st27{clip-path:url(#SVGID_4_);fill:#FFD48F;}
	.st28{clip-path:url(#SVGID_4_);}
	.st29{fill:#FFA347;}
	.st30{fill:#FFD48F;}
	.st31{fill:#F5C476;}
	.st32{fill:#8F6135;}
	.st33{fill:#36C976;}
	.st34{fill:#41FC94;}
	.st35{fill:#2EA661;}
	.st36{clip-path:url(#SVGID_6_);}
	.st37{fill:#FFC975;}
	.st38{clip-path:url(#SVGID_6_);fill:#FFFFFF;}
	.st39{fill:#EBB159;}
</style>
<path class="st0" d="M289.77,190.36h-85.76c-5.97,0-10.81,4.84-10.81,10.81v180.48c0,5.97,4.84,10.81,10.81,10.81h85.76
	c5.97,0,10.81-4.84,10.81-10.81V201.18C300.59,195.2,295.75,190.36,289.77,190.36z"/>
<path class="st1" d="M183.96,246.98c0,0,2.18,1.74,4.48,4.35c3.63,4.11,3.26,4.21,4.75,7.64v-12.3L183.96,246.98z"/>
<rect x="199.77" y="211" class="st2" width="93.87" height="160.67"/>
<g>
	<path class="st3" d="M267.48,203.92h-30.03c-1.1,0-1.99-0.89-1.99-1.99l0,0c0-1.1,0.89-1.99,1.99-1.99h30.03
		c1.1,0,1.99,0.89,1.99,1.99l0,0C269.46,203.03,268.57,203.92,267.48,203.92z"/>
	<circle class="st4" cx="227.18" cy="201.93" r="3.25"/>
</g>
<g>
	<path class="st3" d="M253.37,381.86c0,3.57-2.9,6.47-6.47,6.47c-3.57,0-6.47-2.9-6.47-6.47s2.9-6.47,6.47-6.47
		C250.47,375.38,253.37,378.28,253.37,381.86z"/>
	<path class="st0" d="M252.36,381.86c0,3.02-2.45,5.46-5.46,5.46c-3.02,0-5.46-2.45-5.46-5.46s2.45-5.46,5.46-5.46
		C249.91,376.39,252.36,378.84,252.36,381.86z"/>
</g>
<path class="st5" d="M254.08,234.66h-44.36c-1.19,0-2.16,0.97-2.16,2.16v1.07l-4.91,2.84l4.91,2.84v1.24c0,1.19,0.97,2.16,2.16,2.16
	h44.36c1.19,0,2.16-0.97,2.16-2.16v-7.99C256.23,235.62,255.27,234.66,254.08,234.66z"/>
<path class="st6" d="M238.51,264.38h44.36c1.19,0,2.16-0.97,2.16-2.16v-1.07l4.91-2.84l-4.91-2.84v-1.24c0-1.19-0.97-2.16-2.16-2.16
	h-44.36c-1.19,0-2.16,0.97-2.16,2.16v7.99C236.36,263.41,237.32,264.38,238.51,264.38z"/>
<path class="st6" d="M238.51,280.09h44.36c1.19,0,2.16-0.97,2.16-2.16v-1.07l4.91-2.84l-4.91-2.84v-1.24c0-1.19-0.97-2.16-2.16-2.16
	h-44.36c-1.19,0-2.16,0.97-2.16,2.16v7.99C236.36,279.12,237.32,280.09,238.51,280.09z"/>
<path class="st5" d="M273.32,286.59h-62c-1.9,0-3.43,1.54-3.43,3.43v0.08l-5.24,3.03l5.24,3.03v9c0,1.9,1.54,3.43,3.43,3.43h62
	c1.9,0,3.43-1.54,3.43-3.43v-15.14C276.75,288.13,275.22,286.59,273.32,286.59z"/>
<path class="st6" d="M219.63,329.63h62c1.9,0,3.43,1.54,3.43,3.43v0.08l5.24,3.03l-5.24,3.03v9c0,1.9-1.54,3.43-3.43,3.43h-62
	c-1.9,0-3.43-1.54-3.43-3.43v-15.14C216.2,331.16,217.73,329.63,219.63,329.63z"/>
<path class="st5" d="M254.32,313.46h-44.36c-1.19,0-2.16,0.97-2.16,2.16v1.02l-5.15,2.98l5.15,2.98v1.02c0,1.19,0.97,2.16,2.16,2.16
	h44.36c1.19,0,2.16-0.97,2.16-2.16v-7.99C256.48,314.42,255.51,313.46,254.32,313.46z"/>
<rect x="199.77" y="211" class="st6" width="93.87" height="16.5"/>
<rect x="199.77" y="358.75" class="st5" width="93.87" height="12.92"/>
<g>
	<polygon class="st7" points="293.63,211 199.77,371.67 199.77,331.26 269.46,211 	"/>
	<polygon class="st7" points="199.77,294.32 248.44,211 223.67,211 199.77,251.11 	"/>
</g>
<path class="st8" d="M223.24,307.08c0,0-8.98,3.76-17.15,7.59c-3.34,1.57-8.14,4.64-12.89,8.37v58.62c0,5.97,4.84,10.81,10.81,10.81
	h2.21c2.85-11.09-2.1-33.32-1.97-36.46c0.17-3.83,3.5-14.67,15-28.29C230.76,314.09,223.24,307.08,223.24,307.08z"/>
<path class="st8" d="M288.3,383.25c-5.22,3.92-9.71,9.21-9.71,9.21h11.18c5.97,0,10.81-4.84,10.81-10.81v-25.21
	c-9.34-6.77-21.78-12.01-21.78-12.01s-5.93,12.91,4.44,20.08C293.63,371.67,293.63,379.25,288.3,383.25z"/>
<g>
	<g>
		<path class="st9" d="M193.2,294.77v-48.1c0,0-3.57-0.47-15.5,0.83c-9.85,1.08-16.33,15.03-23.46,23.78
			c-6.87,8.42-28.26,23.6-33.05,33.86c-11.22,24.05-11.51,47.8-14.12,64.96c-2.61,17.15-6.15,57.98-3.54,67.49
			c2.61,9.51-3.54,25.59-3.54,25.59l50.2,16.78c0,0,5.17-12.17,11.61-19.16c6.43-6.99,21.81-21.25,27.69-36.45
			c5.17-13.37,6.56-35.41,6.56-35.41s0,0-1.41-1.93c-1.41-1.93-1.35-4.16-1.35-4.16l-0.07-31.76c0,0,10.35-20.93,20.04-28.99
			c13.33-11.09,13-25.73,4.2-29.56c-7.34-3.19-24.24,11.8-24.24,11.8V294.77z"/>
		<path class="st1" d="M193.2,300.55c0,0-20.59,18.25-25.36,22.28c-4.76,4.03-12.5,9.8-14.82,14.45
			c-3.64,7.27-6.98,28.25-6.98,28.25s5.85-24.55,15.28-33.19c7.21-6.61,31.88-28.15,31.88-28.15V300.55z"/>
		<path class="st1" d="M169.62,296.12c-0.98,0.93-5.46,4.19-9.69,3.4c-3.8-0.71-6.73-2.7-6.73-2.7s2.25,3.38,5.78,5.83
			c2.89,2,3.28,4.37,3.5,6.01c1.21,9.04-0.05,18.74-0.05,18.74l3.13-2.65c-0.04,0.61-0.06,0.97-0.06,0.97l15.66-12.31l11.47-10.35
			l0.56-2.52v-21.81v-1.12v-12.31C193.2,265.31,177.94,288.19,169.62,296.12z"/>
		<path class="st10" d="M217.99,299.9c-0.47-1.68-4.49-7.22-7.33-6.97c-5.33,1.91-11.47,6.47-14.87,9.21l0,0
			c0,0,0.84,5.03,7.46,4.94C209.88,306.98,218.46,301.57,217.99,299.9z"/>
		<path class="st1" d="M194.61,387c-1.41-1.93-1.35-4.16-1.35-4.16l-0.07-31.76c0,0-4.1,6.68-4.29,12.19
			c-0.19,5.52,1.58,32.38-0.24,38.55c0,0.01,0,0.02-0.01,0.02c-0.1,0.35-0.17,0.59-0.22,0.77c-2.11,7.4-4.6,15.1-6.81,19.03
			c-5.03,8.95-12.21,16.36-19.06,22.09s-7.64,20.07-18.74,20.33c-27.77,0.64-40.28-14.28-40.28-14.28l0,0
			c-0.07,0.43-0.15,0.85-0.22,1.27c-0.01,0.06-0.02,0.11-0.03,0.17c-0.07,0.35-0.14,0.7-0.21,1.04c-0.02,0.09-0.04,0.18-0.06,0.27
			c-0.07,0.33-0.14,0.65-0.21,0.96c-0.02,0.07-0.03,0.14-0.05,0.22c-0.18,0.79-0.37,1.55-0.56,2.27c-0.01,0.04-0.02,0.08-0.03,0.11
			c-0.08,0.32-0.17,0.63-0.25,0.93c-0.02,0.07-0.04,0.13-0.06,0.2c-0.08,0.29-0.16,0.56-0.24,0.83c-0.01,0.05-0.03,0.1-0.04,0.15
			c-0.19,0.64-0.37,1.23-0.54,1.77c-0.01,0.03-0.02,0.06-0.03,0.09c-0.07,0.23-0.14,0.45-0.21,0.66c-0.02,0.05-0.03,0.1-0.05,0.15
			c-0.06,0.19-0.12,0.37-0.18,0.54c-0.01,0.04-0.02,0.07-0.04,0.11c-0.13,0.4-0.25,0.73-0.34,0.99c-0.01,0.04-0.02,0.07-0.04,0.1
			c-0.03,0.09-0.06,0.16-0.08,0.23c-0.01,0.03-0.02,0.06-0.03,0.08c-0.02,0.06-0.04,0.11-0.05,0.15c-0.01,0.02-0.01,0.03-0.01,0.04
			c-0.01,0.04-0.02,0.06-0.02,0.06l48.94,16.36l0,0l1.26,0.42c0,0,5.17-12.17,11.61-19.16c6.43-6.99,21.81-21.25,27.69-36.45
			c5.17-13.37,6.56-35.41,6.56-35.41S196.03,388.93,194.61,387z"/>
		<path class="st11" d="M195.8,302.14c0,0,0.53,3.09,3.96,4.38c-0.06-0.6-0.17-1.24-0.37-1.91c-1.11-3.82-1.56-4.05-1.57-4.05
			C197.08,301.12,196.4,301.66,195.8,302.14L195.8,302.14z"/>
	</g>
	<g>
		<path class="st9" d="M300.59,327.26v-18.32c0,0,26.66,19.76,29.83,18.08c3.61-1.91-0.56-15.85-9.14-34.12
			c-4.51-9.61-20.7-36.68-20.7-36.68s0-14.4,0-18.32c0-3.92,9.69-3.25,13.98,1.31c7.6,8.06,23.12,24.14,30.39,33.65
			s53.32,74.11,60.03,96.48c7.68,25.61,2.98,56.21,4.1,63.76c1.12,7.55,10.44,25.36,10.44,25.36l-52.3,28.16
			c0,0-4.57-8.85-11.28-21.55c-3.27-6.2-26.94-4.84-45.3-44.65c-8.25-17.89-27.13-27.97-24.75-27.97s4.52,0.65,9.27-1.45
			c4.75-2.11,5.41-9.36,5.41-9.36v-12.1c0,0-1.26-4.9-7.36-9.06c-14.27-9.74-18.73-21.19-13.89-29.93
			c2.21-3.99,6.25-4.85,13.75-0.65c7.5,4.19,7.5,4.61,7.5,4.61V327.26z"/>
		<g>
			<path class="st9" d="M295.17,391.01c-1.88,0.83-3.34,1.23-4.58,1.41C292.25,392.3,293.8,391.8,295.17,391.01z"/>
			<path class="st9" d="M293.23,360.49c6.1,4.16,7.36,9.06,7.36,9.06v-35.03c0,0,0-0.42-7.5-4.61c-7.5-4.19-11.54-3.34-13.75,0.65
				C274.5,339.3,278.96,350.75,293.23,360.49z"/>
			<path class="st9" d="M298.1,388.55c1.55-1.87,2.49-4.28,2.49-6.9C300.59,381.65,300.22,385.63,298.1,388.55z"/>
		</g>
		<path class="st10" d="M300.59,334.53c0,0,0-0.42-7.5-4.61c-1.72-0.96-3.37-1.69-4.92-2.2c-0.18,0.03-3.99,0.68-5.15,4.02
			c-1.19,3.43-0.77,7.27,6.5,11.05c7.27,3.78,13.28,0.14,13.7-1.82c0.42-1.96,1.54-7.76,1.54-7.76s-1.87-1.87-4.17-3.91V334.53z"/>
		<path class="st1" d="M419.54,458.46c0,0-0.94-1.79-2.25-4.47l-1.95-3.87c0,0-26.27,16.4-40.42,14.71
			c-11.17-1.33-11.99-5.2-17.17-8.33c-9.54-5.77-22.66-11.49-29.76-20.22c-7.1-8.74-19.2-31.32-20.69-41.58
			c-1.98-13.58-6.71-25.14-6.71-25.15v12.1c0,0-0.04,0.45-0.18,1.17c-0.03,0.18-0.07,0.37-0.12,0.58c-0.51,2.28-1.85,6.17-5.11,7.61
			c-1.19,0.53-2.21,0.88-3.12,1.12c-0.23,0.06-0.45,0.11-0.66,0.15c-0.42,0.09-0.82,0.15-1.2,0.2c-0.94,0.11-1.75,0.09-2.51,0.06
			c-0.61-0.03-1.19-0.07-1.78-0.07c-0.45,0-0.14,0.35,0.69,1.05c0.42,0.35,0.97,0.78,1.63,1.29c0.32,0.25,0.67,0.52,1.03,0.8
			c0.39,0.31,0.81,0.63,1.25,0.99c1.7,1.36,3.73,3.04,5.88,5.03c3.58,3.32,7.48,7.5,10.73,12.47c0.33,0.5,0.64,1,0.96,1.51
			c0.93,1.54,1.8,3.15,2.58,4.82c0.52,1.14,1.05,2.23,1.59,3.3c0.08,0.16,0.16,0.33,0.24,0.49c0.51,1.01,1.02,1.99,1.54,2.95
			c0.1,0.18,0.19,0.35,0.29,0.53c0.52,0.95,1.05,1.88,1.57,2.78c0.06,0.11,0.13,0.21,0.19,0.32c0.54,0.91,1.08,1.8,1.63,2.66
			c0.02,0.03,0.04,0.06,0.06,0.09c0.55,0.87,1.11,1.7,1.67,2.52c0.08,0.11,0.15,0.22,0.23,0.33c0.55,0.79,1.09,1.55,1.64,2.28
			c0.07,0.09,0.14,0.18,0.21,0.28c0.57,0.76,1.13,1.49,1.7,2.19c0.01,0.01,0.01,0.02,0.02,0.03c0.6,0.74,1.2,1.46,1.8,2.14
			c0.01,0.01,0.01,0.01,0.02,0.02c0.58,0.67,1.17,1.31,1.75,1.93c0.04,0.04,0.08,0.08,0.11,0.12c0.58,0.61,1.16,1.21,1.73,1.77
			c0.01,0.01,0.03,0.03,0.04,0.04c0.38,0.37,0.75,0.73,1.13,1.08c0.08,0.08,0.16,0.15,0.25,0.23c0.32,0.3,0.64,0.59,0.96,0.87
			c0.06,0.05,0.12,0.1,0.17,0.16c0.38,0.33,0.76,0.66,1.13,0.97c0.04,0.03,0.07,0.06,0.11,0.09c0.33,0.28,0.67,0.55,1,0.82
			c0.08,0.06,0.15,0.12,0.23,0.18c0.35,0.28,0.7,0.55,1.05,0.82c0.01,0.01,0.02,0.01,0.02,0.02c0.37,0.28,0.74,0.55,1.11,0.82
			c0.06,0.04,0.11,0.08,0.16,0.12c0.31,0.22,0.63,0.44,0.94,0.66c0.06,0.04,0.12,0.08,0.18,0.12c0.71,0.49,1.42,0.94,2.11,1.37
			c0.06,0.04,0.11,0.07,0.17,0.1c0.31,0.19,0.62,0.38,0.93,0.56c0.03,0.02,0.06,0.04,0.09,0.06c0.35,0.21,0.7,0.41,1.04,0.6
			c0,0,0.01,0,0.01,0.01c0.33,0.18,0.65,0.36,0.97,0.53c0.05,0.03,0.1,0.05,0.14,0.08c0.66,0.35,1.3,0.69,1.92,1
			c0.02,0.01,0.04,0.02,0.06,0.03c0.3,0.15,0.59,0.3,0.88,0.44c0.02,0.01,0.04,0.02,0.07,0.03c1.65,0.8,3.16,1.48,4.5,2.09
			c0.09,0.04,0.17,0.08,0.25,0.12c0.13,0.06,0.25,0.12,0.37,0.17c0.2,0.09,0.39,0.18,0.57,0.27c0.08,0.04,0.15,0.07,0.23,0.11
			c0.14,0.07,0.27,0.13,0.4,0.2c0.07,0.04,0.15,0.07,0.22,0.11c0.17,0.09,0.34,0.17,0.51,0.26c0.03,0.02,0.06,0.03,0.09,0.05
			c0.16,0.09,0.32,0.17,0.47,0.26c0.05,0.03,0.11,0.06,0.16,0.09c0.12,0.07,0.24,0.14,0.36,0.21c0.05,0.03,0.09,0.06,0.14,0.08
			c0.15,0.1,0.3,0.19,0.44,0.29c0.03,0.02,0.06,0.04,0.08,0.06c0.11,0.08,0.22,0.16,0.32,0.24c0.04,0.03,0.08,0.06,0.12,0.09
			c0.1,0.08,0.2,0.17,0.29,0.25c0.02,0.02,0.05,0.04,0.07,0.06c0.11,0.1,0.21,0.21,0.31,0.31c0.03,0.03,0.05,0.06,0.07,0.09
			c0.07,0.08,0.14,0.17,0.2,0.25c0.02,0.03,0.05,0.07,0.07,0.1c0.08,0.11,0.15,0.23,0.21,0.35c0,0,0,0,0,0
			c2.52,4.76,4.73,8.98,6.52,12.4c0.3,0.57,0.58,1.12,0.86,1.64c2.46,4.71,3.91,7.51,3.91,7.51L419.54,458.46z"/>
		<path class="st11" d="M303.22,340.96c0.42-1.96,1.54-7.76,1.54-7.76s-0.81-0.81-2.02-1.94c-0.33,0.74-0.77,1.94-1.28,3.87
			c-0.67,2.54-0.45,5.66-0.14,7.88C302.41,342.35,303.09,341.57,303.22,340.96z"/>
		<path class="st1" d="M337.97,357.32c-11-9.65-21.91-17.99-19.3-24.14c2.34-5.5,8.13,0,12.4,2.98c6.09,4.25,16.62,9.88,16.62,9.88
			s-6.44-8.79-8.19-13.05c-1.75-4.26-4.61-10.98-5.17-16.29c-0.56-5.31-3.34-11.98-4.34-14.58c-2.56-6.7,13.59-10.7,13.59-10.7
			s-9.75,1.79-11.63,1.38c-1.89-0.42-6.57-1.38-9.38-7.52c-1.32-2.9-4.5-8.93-9.05-15.86c-2.78-4.24,11.89-8.4,11.89-8.4
			s-15.75,2.67-16.57,0.77c-3.37-7.78-8.27-16.88-8.27-16.88c0,5.31,0,11.33,0,11.33s16.19,27.08,20.7,36.68
			c0.3,0.63,0.58,1.25,0.87,1.87c0.09,0.2,0.18,0.4,0.28,0.61c0.19,0.42,0.38,0.83,0.57,1.24c0.1,0.23,0.2,0.45,0.31,0.68
			c0.17,0.38,0.34,0.77,0.51,1.15c0.1,0.23,0.2,0.46,0.3,0.69c0.17,0.38,0.33,0.76,0.5,1.14c0.09,0.21,0.18,0.42,0.27,0.62
			c0.2,0.47,0.4,0.93,0.59,1.4c0.04,0.11,0.09,0.21,0.13,0.32c0.23,0.56,0.46,1.12,0.68,1.67c0.07,0.16,0.13,0.33,0.2,0.49
			c0.15,0.38,0.31,0.77,0.45,1.14c0.08,0.2,0.16,0.4,0.23,0.6c0.13,0.34,0.26,0.67,0.38,1c0.08,0.2,0.15,0.41,0.23,0.61
			c0.12,0.33,0.24,0.65,0.36,0.97c0.07,0.19,0.14,0.37,0.2,0.56c0.13,0.36,0.25,0.71,0.37,1.05c0.05,0.14,0.1,0.28,0.15,0.42
			c0.17,0.48,0.32,0.95,0.48,1.41c0.03,0.1,0.06,0.2,0.1,0.3c0.12,0.36,0.23,0.72,0.34,1.07c0.05,0.16,0.09,0.31,0.14,0.47
			c0.09,0.29,0.17,0.57,0.25,0.85c0.05,0.16,0.09,0.33,0.14,0.49c0.08,0.27,0.15,0.53,0.22,0.79c0.04,0.15,0.08,0.31,0.12,0.46
			c0.07,0.27,0.14,0.54,0.2,0.8c0.03,0.13,0.06,0.26,0.09,0.38c0.09,0.38,0.17,0.75,0.25,1.11c0,0,0,0,0,0l0,0c0,0,0,0,0,0
			c0.11,0.53,0.2,1.03,0.27,1.52l0,0c0,0,0,0,0,0c0.08,0.52,0.14,1,0.18,1.46c0,0,0,0.01,0,0.01c0.12,1.38,0.07,2.5-0.19,3.33l0,0
			c-0.21,0.69-0.56,1.19-1.05,1.45c-2.38,1.26-18.02-9.58-25.65-15.05l-4.18-2.48v17.76v4.54v2.73c0,0,28.73,19.72,34.93,25.73
			c6.85,6.64,23.05,27.69,23.05,27.69S346.56,364.85,337.97,357.32z"/>
	</g>
	<path class="st12" d="M157.8,500l4.19-10.91c1.71-4.45-0.51-9.44-4.96-11.15l-61.61-23.67c-4.45-1.71-9.44,0.51-11.15,4.96
		L68.61,500H157.8z"/>
	<path class="st13" d="M157.03,477.94l-61.61-23.67c-4.23-1.63,27.5,17.06,30.83,32.35c1.12,5.15,0.15,13.37,0.15,13.37h31.4
		l4.19-10.91C163.7,484.64,161.48,479.65,157.03,477.94z"/>
	<path class="st12" d="M357,500h94.73l-17.79-41.5c-1.98-4.61-7.32-6.75-11.93-4.77l-63.33,27.14c-4.61,1.98-6.75,7.32-4.77,11.93
		L357,500z"/>
	<path class="st13" d="M358.69,480.87c-4.61,1.98-6.75,7.32-4.77,11.93L357,500h31.92c0,0-3-5.38-3.13-13.37
		c-0.16-10.21,5.71-19.82,5.71-19.82L358.69,480.87z"/>
</g>
<g>
	<g>
		<path class="st14" d="M415.43,44.89H255.85c-25.2,0-45.63,20.43-45.63,45.63v0c0,25.2,20.43,45.63,45.63,45.63h159.57
			c25.2,0,45.63-20.43,45.63-45.63v0C461.05,65.32,440.63,44.89,415.43,44.89z"/>
		<g>
			<g>
				
					<ellipse transform="matrix(0.2298 -0.9732 0.9732 0.2298 109.9038 319.9048)" class="st15" cx="257.06" cy="90.52" rx="38.13" ry="38.13"/>
				<g>
					<defs>
						
							<ellipse id="SVGID_1_" transform="matrix(0.2298 -0.9732 0.9732 0.2298 109.9038 319.9048)" cx="257.06" cy="90.52" rx="38.13" ry="38.13"/>
					</defs>
					<clipPath id="SVGID_2_">
						<use xlink:href="#SVGID_1_"  style="overflow:visible;"/>
					</clipPath>
					<g class="st16">
						<g>
							<g>
								<path class="st17" d="M269.47,90.94c0,0-0.95,2.92-2.21,4.11c-1.26,1.18-2.31,1.54-2.31,1.54l2.26-6.07L269.47,90.94z"/>
							</g>
							<g>
								<path class="st17" d="M245.1,90.94c0,0,0.95,2.92,2.21,4.11c1.26,1.18,2.31,1.54,2.31,1.54l-2.26-6.07L245.1,90.94z"/>
							</g>
						</g>
						<path class="st5" d="M279.71,119.03c-1.93-10.51-3.51-15.8-15.34-16.29l-7.27,8.95l-7.27-8.95
							c-11.83,0.5-13.41,5.78-15.34,16.29c-1.04,5.67-1.24,13.48-1.24,13.48h23.77h0.18h23.77
							C280.95,132.51,280.75,124.7,279.71,119.03z"/>
						<g>
							<path class="st18" d="M263.09,100.44c0-1.21,0-7.9,0-7.9h-6.03h-6.03c0,0,0,6.68,0,7.9c0,1.82-0.46,2.09-1.27,2.38
								c1.3,2.26,3.26,11.98,7.5,12.01c4.23-0.03,5.79-9.75,7.09-12.01C263.55,102.53,263.09,102.26,263.09,100.44z"/>
						</g>
						<g>
							<g>
								<g>
									<path class="st18" d="M268.6,91.53c1.8,0.38,3.33-2.08,3.33-4.67c0-1.45-0.94-3.12-2.41-2.78
										c-1.86,0.43-2.16,2.17-2.16,2.17v4.04C267.36,90.29,267.65,91.33,268.6,91.53z"/>
								</g>
								<g>
									<path class="st19" d="M268.19,90.94c1.2,0.28,2.22-1.58,2.22-3.53c0-1.1-0.63-2.36-1.61-2.1
										c-1.24,0.32-1.45,1.64-1.45,1.64V90C267.36,90,267.55,90.79,268.19,90.94z"/>
								</g>
							</g>
							<g>
								<g>
									<path class="st18" d="M246.12,91.53c-1.8,0.38-3.33-2.08-3.33-4.67c0-1.45,0.94-3.12,2.41-2.78
										c1.86,0.43,2.16,2.17,2.16,2.17v4.04C247.36,90.29,247.08,91.33,246.12,91.53z"/>
								</g>
								<g>
									<path class="st19" d="M246.53,90.94c-1.2,0.28-2.22-1.58-2.22-3.53c0-1.1,0.63-2.36,1.61-2.1
										c1.24,0.32,1.45,1.64,1.45,1.64V90C247.36,90,247.17,90.79,246.53,90.94z"/>
								</g>
							</g>
						</g>
						<g>
							<path class="st19" d="M257.06,92.63h-6.03c0,0,0,3.4,0,5.79c1.82,2.09,4.18,3.32,7.33,3.38c1.82-0.04,3.38-0.47,4.73-1.22
								c0-0.02,0-0.04,0-0.06c0-1.21,0-7.9,0-7.9H257.06z"/>
						</g>
						<g>
							<path class="st18" d="M266.07,75.86c-3.45-2.44-13.96-2.44-17.41,0c-2.72,1.93-3.93,8.78-2.33,14.14
								c1.92,6.45,5.1,10.68,11.04,10.8c5.94-0.13,9.11-4.35,11.04-10.8C269.99,84.65,268.79,77.79,266.07,75.86z"/>
						</g>
						<g>
							<polygon class="st20" points="262.04,132.51 252.08,132.51 254.32,113.24 259.8,113.24 							"/>
						</g>
						<g>
							<path class="st21" d="M256.02,108.97h2.17l2.05,5.18c0.23,0.57-0.21,1.19-0.83,1.19l-4.65-0.06
								c-0.62-0.01-1.03-0.63-0.8-1.19L256.02,108.97z"/>
						</g>
						<g>
							<path class="st22" d="M252.71,105.5c2.34,2.33,3.36,3.42,3.36,3.42s-1.51,5.85-2.51,4.86c-1-0.99-6.2-8.31-4.92-11.05
								c0.26-0.55,2.29-1.12,2.29-1.12S251.03,103.83,252.71,105.5z"/>
						</g>
						<g>
							<path class="st22" d="M261.42,105.5c-2.34,2.33-3.36,3.42-3.36,3.42s1.51,5.85,2.51,4.86c1-0.99,6.2-8.31,4.92-11.05
								c-0.26-0.55-2.29-1.12-2.29-1.12S263.1,103.83,261.42,105.5z"/>
						</g>
						<g>
							<path class="st17" d="M245.55,84.66c0,0,0,1,0.04,1.54c0.04,0.54,0.24,1.92,0.24,1.92s2.07-4.56,4.95-5.66
								c2.88-1.1,5.42-1.48,7.37-2.75c1.95-1.27,3.81-2.03,3.81-2.03s3.01,4.96,3.94,5.23s1.31,1.08,1.74,2.09
								c0.42,1.02,1.1,3.66,1.1,3.66s0.56-1.72,0.59-2.58c0.03-0.87,0.03-1.95,0.03-1.95s0.39-0.1,0.69-0.05
								c0.34,0.06,0.48,0.07,0.48,0.07s0.51-3.8,0.02-6.44c-0.45-2.45-2.02-8.3-6.72-7.87c-0.92,0.08-2.16-2.91-10.41-1.2
								c-2.95,0.61-6.03,2.34-7.86,6.21c-0.94,2-0.96,9.21-0.96,9.21s0.32,0.08,0.57,0.21C245.35,84.39,245.55,84.66,245.55,84.66z"
								/>
						</g>
						<path class="st23" d="M257.19,132.51h23.77c0,0-0.2-7.8-1.24-13.48c-1.66-9.02-3.06-14.19-10.9-15.79
							c-1.79,5.48-6.54,17.87-11.75,17.95c-5.21-0.08-9.95-12.45-11.75-17.94c-7.77,1.62-9.18,6.78-10.83,15.77
							c-1.04,5.67-1.24,13.48-1.24,13.48h23.77H257.19z"/>
					</g>
				</g>
			</g>
			<path class="st24" d="M257.06,52.38v76.27c21.06,0,38.13-17.07,38.13-38.13C295.19,69.46,278.12,52.38,257.06,52.38z"/>
		</g>
		<g>
			<g>
				<path class="st15" d="M434.11,77.91H324.45c-1.88,0-3.41,1.53-3.41,3.41l0,0c0,1.88,1.53,3.41,3.41,3.41h109.66
					c1.88,0,3.41-1.53,3.41-3.41l0,0C437.52,79.44,435.99,77.91,434.11,77.91z"/>
				<path class="st15" d="M434.11,94.7H324.45c-1.88,0-3.41,1.53-3.41,3.41l0,0c0,1.88,1.53,3.41,3.41,3.41h109.66
					c1.88,0,3.41-1.53,3.41-3.41l0,0C437.52,96.23,435.99,94.7,434.11,94.7z"/>
				<path class="st15" d="M434.11,111.49H324.45c-1.88,0-3.41,1.53-3.41,3.41v0c0,1.88,1.53,3.41,3.41,3.41h109.66
					c1.88,0,3.41-1.53,3.41-3.41v0C437.52,113.02,435.99,111.49,434.11,111.49z"/>
			</g>
			<path class="st15" d="M428.36,64.86c0-2.53,2.05-4.58,4.58-4.58s4.58,2.05,4.58,4.58c0,2.53-2.05,4.58-4.58,4.58
				S428.36,67.39,428.36,64.86z"/>
			<path class="st15" d="M413.46,64.86c0-2.53,2.05-4.58,4.58-4.58c2.53,0,4.58,2.05,4.58,4.58c0,2.53-2.05,4.58-4.58,4.58
				C415.51,69.44,413.46,67.39,413.46,64.86z"/>
			<path class="st15" d="M398.56,64.86c0-2.53,2.05-4.58,4.58-4.58c2.53,0,4.58,2.05,4.58,4.58c0,2.53-2.05,4.58-4.58,4.58
				C400.61,69.44,398.56,67.39,398.56,64.86z"/>
		</g>
	</g>
	<path class="st14" d="M313.68,125.69v23.3c0,3.77,4.55,5.65,7.21,2.99l27.08-27.08L313.68,125.69z"/>
</g>
<g>
	<path class="st25" d="M223.26,145.54H115.97c-21.95,0-39.75,17.8-39.75,39.75l0,0c0,21.95,17.8,39.75,39.75,39.75h107.29
		c21.95,0,39.75-17.8,39.75-39.75l0,0C263.02,163.34,245.22,145.54,223.26,145.54z"/>
	<g>
		<g>
			<circle class="st26" cx="117.03" cy="185.29" r="33.22"/>
			<g>
				<defs>
					<circle id="SVGID_3_" cx="117.03" cy="185.29" r="33.22"/>
				</defs>
				<clipPath id="SVGID_4_">
					<use xlink:href="#SVGID_3_"  style="overflow:visible;"/>
				</clipPath>
				<path class="st27" d="M129.19,197.36c-2.06-0.06-3.95,1.97-2.63,7.02c3.03,11.56,3.08,15.58,3.08,15.58h5.9
					c0,0-1.51-6.93-1.69-12.96C133.66,200.94,130.84,197.41,129.19,197.36z"/>
				<path class="st27" d="M104.94,197.36c2.06-0.06,3.95,1.97,2.63,7.02c-3.03,11.56-3.08,15.58-3.08,15.58h-5.9
					c0,0,1.51-6.93,1.69-12.96C100.46,200.94,103.28,197.41,104.94,197.36z"/>
				<g class="st28">
					<path class="st29" d="M123.72,194.56c0,0-4.69,4.89-6.78,4.88c-2.05-0.01-6.61-4.88-6.61-4.88c-5.68,0-10.28,4.37-10.28,9.76
						c0,0.1,0,0.39,0,0.39c0,0.17,0.15,0.28,0.32,0.31c1.52,0.26,5.85,3.27,5.85,3.27v4.94v6.75l21.51-0.04v-6.76v-4.95
						c0,0,4.48-2.88,5.92-3.25c0.17-0.04,0.32-0.14,0.32-0.31c0,0,0.04-0.26,0.04-0.35C134.31,198.93,129.39,194.56,123.72,194.56z"
						/>
				</g>
				<g class="st28">
					<path class="st30" d="M121.63,192.78c0-0.98,0-6.35,0-6.35h-4.88h-4.88c0,0,0,5.37,0,6.35c0,1.46-1.86,1.7-2.5,1.93
						c-0.66,3.72,3.93,6.52,7.36,6.52c3.43,0,7.86-3.24,7.41-6.52C123.49,194.48,121.63,194.25,121.63,192.78z"/>
				</g>
				<g class="st28">
					<path class="st31" d="M121.71,193.25c-0.05-0.14-0.08-0.3-0.08-0.47c0-0.98,0-6.35,0-6.35h-4.88h-4.88c0,0,0,2.56,0,4.4
						c1.45,2.3,3.45,3.32,6.28,3.38C119.52,194.19,120.69,193.85,121.71,193.25z"/>
				</g>
				<g class="st28">
					<path class="st30" d="M123.89,172.82c-2.72-1.96-11-1.96-13.72,0c-2.14,1.55-3.09,7.06-1.84,11.36
						c1.51,5.19,4.01,8.58,8.7,8.68c4.68-0.1,7.18-3.5,8.7-8.68C126.98,179.88,126.03,174.37,123.89,172.82z"/>
				</g>
				<g class="st28">
					<g>
						<path class="st32" d="M120.03,174.3c0,0,3.36,3.08,3.85,4.45c0.69,1.93,0.53,8.13,0.53,8.13l2.85-5.41
							c0,0,0.48-2.39,0.12-4.84c-1.98-13.52-20.29-11.49-20.96,0.02c-0.1,1.72,0.17,4.85,0.17,4.85l2.75,4.7c0,0-2.01-7.2,0.03-7.54
							C114.2,177.87,120.03,174.3,120.03,174.3z"/>
					</g>
					<g>
						<path class="st32" d="M106.6,175.71c0,0-1.97,8.3-2.18,11.26c-0.57,8.03,8.08,5.57,7.13,3.57
							C108.06,183.25,106.6,175.71,106.6,175.71z"/>
					</g>
					<g>
						<path class="st32" d="M127.08,175.64c0,0,1.97,8.3,2.18,11.26c0.57,8.03-8.36,5.83-7.25,3.89
							C126.08,183.69,127.08,175.64,127.08,175.64z"/>
					</g>
				</g>
			</g>
		</g>
		<path class="st24" d="M117.03,152.07v66.44c18.35,0,33.22-14.87,33.22-33.22S135.37,152.07,117.03,152.07z"/>
	</g>
	<g>
		<g>
			<path class="st26" d="M239.54,174.31h-63.8c-1.64,0-2.97,1.33-2.97,2.97l0,0c0,1.64,1.33,2.97,2.97,2.97h63.8
				c1.64,0,2.97-1.33,2.97-2.97l0,0C242.51,175.64,241.18,174.31,239.54,174.31z"/>
			<path class="st26" d="M239.54,188.94h-63.8c-1.64,0-2.97,1.33-2.97,2.97l0,0c0,1.64,1.33,2.97,2.97,2.97h63.8
				c1.64,0,2.97-1.33,2.97-2.97l0,0C242.51,190.27,241.18,188.94,239.54,188.94z"/>
			<path class="st26" d="M239.54,203.57h-63.8c-1.64,0-2.97,1.33-2.97,2.97l0,0c0,1.64,1.33,2.97,2.97,2.97h63.8
				c1.64,0,2.97-1.33,2.97-2.97l0,0C242.51,204.9,241.18,203.57,239.54,203.57z"/>
		</g>
		<circle class="st26" cx="238.52" cy="162.94" r="3.99"/>
		<circle class="st26" cx="225.54" cy="162.94" r="3.99"/>
		<circle class="st26" cx="212.56" cy="162.94" r="3.99"/>
	</g>
	<path class="st25" d="M234.62,215.93v20.3c0,3.28-3.97,4.92-6.29,2.6l-23.59-23.59L234.62,215.93z"/>
</g>
<g>
	<path class="st33" d="M431.71,192.4H305.2c-19.98,0-36.17,16.2-36.17,36.17v0c0,19.98,16.2,36.17,36.17,36.17h126.51
		c19.98,0,36.17-16.2,36.17-36.17v0C467.88,208.59,451.69,192.4,431.71,192.4z"/>
	<g>
		<g>
			<path class="st34" d="M446.52,218.58h-86.94c-1.49,0-2.7,1.21-2.7,2.7l0,0c0,1.49,1.21,2.7,2.7,2.7h86.94
				c1.49,0,2.7-1.21,2.7-2.7l0,0C449.22,219.79,448.01,218.58,446.52,218.58z"/>
			<path class="st34" d="M446.52,231.89h-86.94c-1.49,0-2.7,1.21-2.7,2.7v0c0,1.49,1.21,2.7,2.7,2.7h86.94c1.49,0,2.7-1.21,2.7-2.7
				v0C449.22,233.1,448.01,231.89,446.52,231.89z"/>
			<path class="st34" d="M446.52,245.2h-86.94c-1.49,0-2.7,1.21-2.7,2.7l0,0c0,1.49,1.21,2.7,2.7,2.7h86.94c1.49,0,2.7-1.21,2.7-2.7
				l0,0C449.22,246.41,448.01,245.2,446.52,245.2z"/>
		</g>
		<path class="st34" d="M441.96,208.23c0-2,1.63-3.63,3.63-3.63c2,0,3.63,1.63,3.63,3.63c0,2.01-1.63,3.63-3.63,3.63
			C443.59,211.86,441.96,210.23,441.96,208.23z"/>
		<path class="st34" d="M430.15,208.23c0-2,1.63-3.63,3.63-3.63c2,0,3.63,1.63,3.63,3.63c0,2.01-1.63,3.63-3.63,3.63
			C431.78,211.86,430.15,210.23,430.15,208.23z"/>
		<path class="st34" d="M418.34,208.23c0-2,1.63-3.63,3.63-3.63c2.01,0,3.63,1.63,3.63,3.63c0,2.01-1.63,3.63-3.63,3.63
			C419.97,211.86,418.34,210.23,418.34,208.23z"/>
	</g>
	<path class="st33" d="M296.82,256.45v18.47c0,2.99,3.61,4.48,5.72,2.37l21.47-21.47L296.82,256.45z"/>
	<g>
		<g>
			
				<ellipse transform="matrix(0.7071 -0.7071 0.7071 0.7071 -72.3498 283.278)" class="st35" cx="305.77" cy="228.97" rx="29.87" ry="29.87"/>
			<g>
				<defs>
					
						<ellipse id="SVGID_5_" transform="matrix(0.7071 -0.7071 0.7071 0.7071 -72.3498 283.278)" cx="305.77" cy="228.97" rx="29.87" ry="29.87"/>
				</defs>
				<clipPath id="SVGID_6_">
					<use xlink:href="#SVGID_5_"  style="overflow:visible;"/>
				</clipPath>
				<g class="st36">
					<path class="st32" d="M296.66,218.55c0,0-1.77,10.94-1.96,14.84c-0.51,10.59,7.49,5.28,7.87,2.53
						c0.22-1.61-2.06-2.13-2.32-5.58C299.83,224.96,296.66,218.55,296.66,218.55z"/>
				</g>
				<g class="st36">
					<path class="st32" d="M315.12,218.55c0,0,1.77,10.94,1.96,14.84c0.51,10.59-7.49,5.28-7.87,2.53c-0.22-1.61,2.79-2.1,3.06-5.56
						C312.68,224.98,315.12,218.55,315.12,218.55z"/>
				</g>
				<g class="st36">
					<path class="st37" d="M321.94,260.12h-4.63l-3.14-12.75l3.14-9.04c0,0,4.63,2.59,4.44,10.57
						C321.65,253.32,321.94,260.12,321.94,260.12z"/>
				</g>
				<g class="st36">
					<path class="st37" d="M289.61,260.12h4.63l3.13-12.75l-3.13-9.04c0,0-4.63,2.59-4.44,10.57
						C289.89,253.32,289.61,260.12,289.61,260.12z"/>
				</g>
				<path class="st38" d="M312.19,237.17h-6.43h-6.43c-1.44,0-3.85,0.65-5.12,1.16c0,0,0.97,5.85,0.97,8.74c0,2.56,0,13.05,0,13.05
					h7.89h2.68h2.68h7.89c0,0,0-10.49,0-13.05c0-2.89,0.97-8.74,0.97-8.74C316.05,237.82,313.64,237.17,312.19,237.17z"/>
				<g class="st36">
					<path class="st37" d="M310.17,235.71c0-0.88,0-5.71,0-5.71h-4.39h-4.39c0,0,0,4.83,0,5.71c0,1.32-1.67,1.52-2.25,1.74
						c0.94,1.64,3.55,3.53,6.64,3.53c3.08,0,5.69-1.89,6.64-3.53C311.84,237.23,310.17,237.02,310.17,235.71z"/>
				</g>
				<g class="st36">
					<path class="st39" d="M310.24,236.13c-0.04-0.13-0.07-0.27-0.07-0.42c0-0.88,0-5.71,0-5.71h-4.39h-4.39c0,0,0,2.3,0,3.95
						c1.31,2.06,3.1,2.98,5.65,3.04C308.27,236.97,309.33,236.67,310.24,236.13z"/>
				</g>
				<g class="st36">
					<path class="st37" d="M311.96,217.76c-2.35-1.76-9.51-1.76-11.86,0c-1.85,1.39-2.67,6.35-1.59,10.21
						c1.31,4.66,3.47,7.72,7.52,7.81c4.05-0.09,6.21-3.14,7.52-7.81C314.63,224.11,313.81,219.15,311.96,217.76z"/>
				</g>
				<g class="st36">
					<path class="st32" d="M300.94,218.69c0,0,5.15,2.26,8.06,3.03c1.87,0.49,3.04,0.54,3.85,1.44c0.68,0.76,0.3,7.43,0.3,7.43
						l2.3-4.13c0,0,0.2-4.56-0.12-6.75c-1.78-12.16-18.24-10.33-18.84,0.02c-0.09,1.54,0.16,4.36,0.16,4.36l1.8,6.75
						c0,0-0.54-7.91,0.7-9.29C300.52,220,300.94,218.69,300.94,218.69z"/>
				</g>
			</g>
		</g>
		<path class="st24" d="M305.77,199.11v59.73c16.49,0,29.87-13.37,29.87-29.87C335.64,212.48,322.27,199.11,305.77,199.11z"/>
	</g>
</g>
<g>
	
		<ellipse transform="matrix(0.7071 -0.7071 0.7071 0.7071 -232.8421 272.4243)" class="st6" cx="212.42" cy="417.28" rx="9.78" ry="9.78"/>
	<path class="st6" d="M104.26,323.23c0,2.37-1.92,4.28-4.28,4.28c-2.37,0-4.28-1.92-4.28-4.28c0-2.37,1.92-4.28,4.28-4.28
		C102.34,318.95,104.26,320.87,104.26,323.23z"/>
	<path class="st6" d="M376.63,278.28c0,2.37-1.92,4.28-4.28,4.28c-2.37,0-4.28-1.92-4.28-4.28s1.92-4.28,4.28-4.28
		C374.71,273.99,376.63,275.91,376.63,278.28z"/>
	
		<ellipse transform="matrix(0.9239 -0.3827 0.3827 0.9239 -16.2041 78.2445)" class="st6" cx="188.58" cy="79.85" rx="8.79" ry="8.79"/>
	<circle class="st6" cx="96.88" cy="247.9" r="9.25"/>
	<circle class="st6" cx="122.98" cy="247.9" r="9.25"/>
	<circle class="st6" cx="149.07" cy="247.9" r="9.25"/>
	<g>
		<path class="st6" d="M216.27,122.89h-36.93c-3.18,0-5.76,2.58-5.76,5.76s2.58,5.76,5.76,5.76h36.93c3.18,0,5.76-2.58,5.76-5.76
			S219.45,122.89,216.27,122.89z"/>
		<path class="st6" d="M166.64,128.65c0,3.18-2.58,5.76-5.76,5.76c-3.18,0-5.76-2.58-5.76-5.76s2.58-5.76,5.76-5.76
			C164.06,122.89,166.64,125.47,166.64,128.65z"/>
	</g>
	<g>
		<path class="st6" d="M277.71,178.55h27.19c2.34,0,4.24-1.9,4.24-4.24c0-2.34-1.9-4.24-4.24-4.24h-27.19
			c-2.34,0-4.24,1.9-4.24,4.24C273.47,176.65,275.37,178.55,277.71,178.55z"/>
		<path class="st6" d="M314.25,174.31c0-2.34,1.9-4.24,4.24-4.24c2.34,0,4.24,1.9,4.24,4.24c0,2.34-1.9,4.24-4.24,4.24
			C316.14,178.55,314.25,176.65,314.25,174.31z"/>
	</g>
	<g>
		<path class="st6" d="M257.07,424.03h27.19c2.34,0,4.24-1.9,4.24-4.24c0-2.34-1.9-4.24-4.24-4.24h-27.19
			c-2.34,0-4.24,1.9-4.24,4.24C252.83,422.13,254.73,424.03,257.07,424.03z"/>
		<path class="st6" d="M293.61,419.79c0-2.34,1.9-4.24,4.24-4.24c2.34,0,4.24,1.9,4.24,4.24c0,2.34-1.9,4.24-4.24,4.24
			C295.5,424.03,293.61,422.13,293.61,419.79z"/>
	</g>
	<g>
		<path class="st6" d="M383.46,304.42h28.75c3.77,0,6.83-3.06,6.83-6.83s-3.06-6.83-6.83-6.83h-28.75c-3.77,0-6.83,3.06-6.83,6.83
			S379.68,304.42,383.46,304.42z"/>
		<circle class="st6" cx="434.11" cy="297.59" r="6.83"/>
	</g>
	<path class="st6" d="M355.44,149.56l-3.12,3.12c-2.11,2.11-5.53,2.11-7.65,0l-3.12-3.12c-1.76-1.76-4.64-1.93-6.45-0.23
		c-1.87,1.76-1.9,4.71-0.1,6.51l3.26,3.26c2.11,2.11,2.11,5.53,0,7.65l-3.12,3.12c-1.76,1.76-1.93,4.64-0.23,6.45
		c1.76,1.87,4.71,1.9,6.51,0.1l3.26-3.26c2.11-2.11,5.53-2.11,7.65,0l3.12,3.12c1.76,1.76,4.64,1.93,6.45,0.23
		c1.87-1.76,1.9-4.71,0.1-6.51l-3.26-3.26c-2.11-2.11-2.11-5.53,0-7.65l3.26-3.26c1.8-1.8,1.77-4.75-0.1-6.51
		C360.08,147.62,357.2,147.8,355.44,149.56z"/>
	<path class="st6" d="M108.16,291.73h-2.52c-1.7,0-3.08-1.38-3.08-3.08v-2.52c0-1.42-1.09-2.65-2.5-2.69
		c-1.46-0.04-2.66,1.13-2.66,2.58v2.62c0,1.7-1.38,3.08-3.08,3.08H91.8c-1.42,0-2.65,1.09-2.69,2.5c-0.04,1.46,1.13,2.66,2.58,2.66
		h2.62c1.7,0,3.08,1.38,3.08,3.08v2.52c0,1.42,1.09,2.65,2.51,2.69c1.46,0.04,2.66-1.13,2.66-2.58v-2.62c0-1.7,1.38-3.08,3.08-3.08
		h2.62c1.45,0,2.63-1.2,2.58-2.66C110.81,292.82,109.57,291.73,108.16,291.73z"/>
</g>
</svg>
