<?xml version="1.0" encoding="utf-8"?>
<svg xmlns="http://www.w3.org/2000/svg" xmlns:xlink="http://www.w3.org/1999/xlink" version="1.1" id="Layer_1" x="0px" y="0px" viewBox="0 2 98 98" style="enable-background:new 0 2 98 98;" xml:space="preserve" width="512" height="512">
<style type="text/css">
	.st0{fill:url(#SVGID_1_);}
	.st1{fill:url(#SVGID_2_);}
</style>
<g>
	<linearGradient id="SVGID_2_" gradientUnits="userSpaceOnUse" x1="49" y1="96" x2="49" y2="6.3234" gradientTransform="matrix(1 0 0 -1 0 104)">
		<stop offset="0" style="stop-color:#00EFD1"/>
		<stop offset="1" style="stop-color:#00ACEA"/>
	</linearGradient>
	<path class="st1" d="M85.8,50c-1.7,0-3,1.3-3,3c0,18.6-15.2,33.8-33.8,33.8S15.2,71.6,15.2,53S30.4,19.2,49,19.2c1.7,0,3-1.3,3-3   s-1.3-3-3-3C27.1,13.2,9.2,31.1,9.2,53S27.1,92.8,49,92.8S88.8,74.9,88.8,53C88.8,51.3,87.5,50,85.8,50z"/>
</g>
</svg>
