<svg height="511pt" viewBox="-53 1 511 511.99986" width="511pt" xmlns="http://www.w3.org/2000/svg"><path d="m188.003906 352.496094h-30l-30-60.003906 60 30zm0 0" fill="#1990c2"/><path d="m158.003906 352.496094h-75.003906v-30.003906l75.003906-30zm0 0" fill="#2dade3"/><path d="m111.234375 97.488281v31.257813c-3.417969 8.078125-11.414063 13.742187-20.734375 13.742187-12.425781 0-22.5-10.074219-22.5-22.5s10.074219-22.5 22.5-22.5zm0 0" fill="#a45e43"/><path d="m170.003906 61.488281h-27v81c24.851563 0 45-20.148437 45-45 0-14.71875-7.070312-27.800781-18-36zm0 0" fill="#ffb4a9"/><path d="m156.203125 76.128906c1.148437 6.359375 1.800781 13.628906 1.800781 21.359375 0 24.851563-6.722656 45-15 45-24.851562 0-45-20.148437-45-45zm0 0" fill="#ffd9d4"/><path d="m170.003906 61.488281c-4.039062 5.378907-8.671875 10.289063-13.800781 14.640625l-13.199219-23.640625c10.121094 0 19.480469 3.351563 27 9zm0 0" fill="#85453d"/><path d="m98.003906 97.488281c0-24.851562 20.148438-45 45-45 5.699219 0 10.667969 9.558594 13.199219 23.640625-15.691406 13.320313-36.011719 21.359375-58.199219 21.359375zm0 0" fill="#a45e43"/><path d="m168.003906 172.492188h-30l20 150h30v-130c0-11.046876-8.957031-20-20-20zm0 0" fill="#9db55f"/><path d="m138.003906 172.492188h-20c-11.046875 0-20 8.953124-20 20v70c-9.332031 10.574218-15.003906 24.453124-15.003906 39.667968v20.332032h75.003906v-130c0-11.046876-8.957031-20-20-20zm0 0" fill="#b9d171"/><path d="m398.011719 172.492188v90l-30 18-30.003907-108zm0 0" fill="#1990c2"/><path d="m368.011719 172.492188v108l-45.003907 27-30-135zm0 0" fill="#2dade3"/><path d="m323.007812 172.492188v135l-75-45v-90zm0 0" fill="#7dd9ff"/><path d="m398.007812 172.492188-75 45-37.5-22.5 15-30 60-15.003907zm0 0" fill="#a8e5ff"/><path d="m360.507812 149.988281-75 45.003907-37.503906-22.5 75.003906-45.003907zm0 0" fill="#dbf4ff"/><path d="m330.507812 97.488281c0 4.144531-3.359374 7.5-7.5 7.5-4.144531 0-7.5-3.355469-7.5-7.5 0-4.140625 3.355469-7.5 7.5-7.5 4.140626 0 7.5 3.359375 7.5 7.5zm0 0"/><path d="m90.5 149.988281c8.535156 0 16.503906-3.652343 22.09375-9.742187 8.589844 6.125 19.082031 9.742187 30.410156 9.742187 28.949219 0 52.5-23.550781 52.5-52.5s-23.550781-52.5-52.5-52.5c-26.402344 0-48.304687 19.59375-51.957031 45h-.546875c-16.539062 0-30 13.457031-30 30s13.460938 30 30 30zm90.003906-52.5c0 20.679688-16.824218 37.5-37.5 37.5-18.230468 0-33.457031-13.074219-36.808594-30.339843 25.03125-2.054688 47.917969-13.496094 64.609376-32.300782 6.023437 6.65625 9.699218 15.476563 9.699218 25.140625zm-37.5-37.5c5.582032 0 10.878906 1.234375 15.644532 3.433594-13.71875 14.933594-32.144532 24.148437-52.296876 26.148437 3.644532-16.886718 18.691407-29.582031 36.652344-29.582031zm-52.503906 45h.546875c1.339844 9.316407 5.132813 17.839844 10.699219 24.914063-2.804688 3.175781-6.878906 5.085937-11.246094 5.085937-8.269531 0-15-6.726562-15-15 0-8.269531 6.730469-15 15-15zm0 0"/><path d="m218.003906 164.992188c-4.140625 0-7.5 3.355468-7.5 7.5v50c0 9.777343-6.269531 18.113281-15 21.210937v-51.210937c0-15.164063-12.335937-27.5-27.5-27.5h-50c-12.464844 0-23.015625 8.335937-26.378906 19.726562-42.519531-3.265625-76.125-38.886719-76.125-82.230469 0-4.140625-3.355469-7.5-7.5-7.5s-7.5 3.359375-7.5 7.5c0 51.242188 39.730469 93.375 90 97.21875v60.042969c-9.691406 11.988281-15 26.9375-15 42.40625v50.335938c0 4.144531 3.359375 7.5 7.5 7.5h22.503906v134.503906c0 3.226562 2.0625 6.09375 5.125 7.117187l30.003906 10c.785157.261719 1.585938.386719 2.371094.386719 3.140625 0 6.066406-1.988281 7.113282-5.132812 1.3125-3.929688-.8125-8.175782-4.742188-9.484376l-24.871094-8.292968v-129.09375h45v134.5c0 3.230468 2.066406 6.09375 5.128906 7.117187l30 10c.785157.261719 1.585938.386719 2.371094.386719 3.140625 0 6.066406-1.988281 7.117188-5.128906 1.308594-3.929688-.816406-8.179688-4.746094-9.488282l-24.871094-8.292968v-129.09375h7.5c4.144532 0 7.5-3.359375 7.5-7.5v-93.257813c17.097656-3.484375 30-18.636719 30-36.746093v-50c0-4.144532-3.355468-7.5-7.5-7.5zm-114.378906 102.460937c1.210938-1.367187 1.878906-3.132813 1.878906-4.960937v-70c0-6.894532 5.605469-12.5 12.5-12.5h50c6.894532 0 12.5 5.605468 12.5 12.5v122.503906h-90.003906v-12.835938c0-12.785156 4.664062-25.113281 13.125-34.707031zm-13.125 77.542969v-15.003906h90.003906v15.003906zm0 0"/><path d="m303.007812 34.988281c4.140626 0 7.5-3.359375 7.5-7.5 0-3.339843 1.296876-6.480469 3.660157-8.839843 2.359375-2.359376 5.5-3.660157 8.839843-3.660157 3.335938 0 6.476563 1.300781 8.835938 3.660157 2.363281 2.359374 3.664062 5.5 3.664062 8.839843 0 3.339844-1.300781 6.476563-3.664062 8.839844l-14.140625 14.140625c-1.40625 1.40625-2.195313 3.3125-2.195313 5.304688v11.714843c0 4.140625 3.355469 7.5 7.5 7.5 4.140626 0 7.5-3.359375 7.5-7.5v-8.609375l11.945313-11.945312c10.722656-10.722656 10.722656-28.167969 0-38.890625-10.722656-10.722657-28.171875-10.722657-38.894531 0-5.191406 5.191406-8.054688 12.097656-8.054688 19.445312.003906 4.140625 3.359375 7.5 7.503906 7.5zm0 0"/><path d="m401.867188 166.058594-37.519532-22.507813c-.015625-.011719-.03125-.019531-.046875-.03125l-37.4375-22.460937c-2.375-1.425782-5.339843-1.425782-7.714843 0l-75.003907 45c-2.257812 1.355468-3.640625 3.796875-3.640625 6.433594v90c0 2.632812 1.382813 5.078124 3.640625 6.429687l75.003907 45.003906c1.1875.710938 2.519531 1.066407 3.859374 1.066407 1.335938 0 2.667969-.355469 3.855469-1.066407l75.003907-45.003906c2.257812-1.351563 3.640624-3.796875 3.640624-6.429687v-90c0-2.636719-1.382812-5.078126-3.640624-6.433594zm-78.859376 42.6875-22.925781-13.753906 60.425781-36.257813 22.921876 13.757813zm0-72.507813 22.921876 13.753907-60.421876 36.253906-22.925781-13.753906zm-67.503906 49.5 60.003906 36v72.507813l-60.003906-36zm75.003906 108.507813v-72.507813l60-36v72.507813zm0 0"/></svg>