<svg height="491pt" viewBox="-5 0 491 491.55256" width="491pt" xmlns="http://www.w3.org/2000/svg"><path d="m.277344 262.019531c0 51.199219 17.597656 100.800781 49.597656 140.800781l6.402344 7.199219 180.800781-180.800781 135.199219-136-7.199219-5.601562c-96-77.597657-236.800781-62.398438-314.402344 33.601562-32.800781 40-50.398437 89.601562-50.398437 140.800781zm153.597656-124.800781.800781-3.199219h59.199219l.800781 3.199219c.800781 7.199219-.800781 14.398438-4.800781 20l-9.597656 14.398438v26.402343h-32v-26.402343l-9.601563-14.398438c-4-5.601562-5.597656-12.800781-4.800781-20zm4.800781-19.199219c7.199219-14.402343 24-20 38.402344-12.800781 5.597656 2.398438 10.398437 7.199219 12.796875 12.800781zm3.199219 96h14.402344v52.800781l-40 40v-36.800781h-16v52.800781l-32 32v-88.800781c0-8.800781 4.800781-17.601562 13.597656-21.601562zm30.402344 36.800781v-36.800781h14.398437l15.199219 7.199219zm40.800781-40.800781-16.800781-8.800781v-24.800781l7.199218-10.398438c6.398438-8.800781 8.800782-20 7.199219-31.199219l-1.597656-10.402343c-3.203125-24.800781-26.402344-41.597657-50.402344-38.398438-20 3.199219-35.199219 18.398438-38.398437 38.398438l-1.601563 10.402343c-1.597656 11.199219.800781 22.398438 7.199219 31.199219l7.203125 10.398438v24.800781l-58.402344 28.800781c-13.597656 6.398438-22.398437 20.800781-22.398437 36v105.597657l-15.199219 15.203124c-68-92.800781-48.800781-223.203124 43.199219-292 73.597656-54.402343 174.398437-54.402343 247.199218 0zm0 0"/><path d="m425.078125 98.019531-316.800781 316.800781 7.199218 5.597657c96 77.601562 236.800782 63.199219 315.199219-32.800781 66.402344-82.398438 66.402344-200 0-282.398438zm-86.402344 188h59.199219l1.601562 11.199219c0 1.601562 0 4-1.601562 5.601562l-13.597656 20.796876v31.203124l-16 16-16-16v-31.203124l-13.601563-20.796876c-.800781-1.601562-1.597656-4-1.597656-5.601562zm2.402344-16 1.597656-8.800781c.800781-4 4-7.199219 8-7.199219h36c4 0 7.199219 3.199219 8 7.199219l1.601563 8.800781zm1.597656 97.597657 17.601563 17.601562v40.800781c-27.199219 16-56.800782 24.800781-88 27.199219v-45.601562c0-3.199219 1.597656-5.597657 4.800781-7.199219zm33.601563 48v-30.398438l17.597656-17.601562 22.402344 11.203124c-12 14.398438-24.800782 26.398438-40 36.796876zm49.597656-49.597657-25.597656-12.800781v-24.800781l11.199218-16.800781c3.199219-4.796876 4.800782-11.199219 4-16.796876l-4.800781-36c-1.597656-12-12-20.800781-24-20.800781h-36c-12 0-22.398437 8.800781-24 20.800781l-4.800781 36c-.796875 5.597657.800781 12 4 16.796876l11.203125 16.800781v24.800781l-66.402344 33.601562c-8 4-13.597656 12-13.597656 21.597657v45.601562c-44.800781 0-88-14.402343-124-40.800781l291.199219-291.199219c52.800781 72 53.597656 170.398438 1.597656 244zm0 0"/><path d="m386.777344 208.203125 32.242187-32.246094 11.3125 11.316407-32.242187 32.242187zm0 0"/><path d="m186.734375 416.238281 23.761719-23.757812 11.3125 11.3125-23.757813 23.761719zm0 0"/><path d="m226.855469 360.121094 48.085937-48.085938 11.3125 11.316406-48.082031 48.082032zm0 0"/><path d="m378.738281 72.242188 23.757813-23.757813 11.3125 11.3125-23.757813 23.761719zm0 0"/><path d="m346.816406 40.164062 40.164063-40.164062 11.3125 11.3125-40.160157 40.164062zm0 0"/><path d="m42.855469 480.117188 48.085937-48.082032 11.3125 11.3125-48.082031 48.085938zm0 0"/><path d="m98.734375 480.238281 23.761719-23.757812 11.3125 11.3125-23.757813 23.757812zm0 0"/><path d="m266.738281 112.242188 23.757813-23.757813 11.3125 11.3125-23.757813 23.757813zm0 0"/><path d="m47.121094 204.421875 44.125-44.121094 11.3125 11.3125-44.121094 44.125zm0 0"/><path d="m304.277344 406.019531h32v16h-32zm0 0"/></svg>