<?xml version="1.0" encoding="utf-8"?>
<svg version="1.1" xmlns="http://www.w3.org/2000/svg" xmlns:xlink="http://www.w3.org/1999/xlink" x="0px" y="0px"
	 viewBox="0 0 1100 800" style="enable-background:new 0 0 1100 800;" xml:space="preserve">
<style type="text/css">
	.st0{fill:#FFFFFF;}
	.st1{fill:#F1F2F2;}
	.st2{fill:#587BC9;}
	.st3{fill:#2B3342;}
	.st4{fill:#E2E2E2;}
	.st5{fill:#AA6755;}
	.st6{fill:#4F4B47;}
	.st7{fill:#A9B4B9;}
	.st8{fill:#305399;}
	.st9{fill:#3B455A;}
	.st10{fill:#7DB5DB;}
	.st11{fill:#826656;}
	.st12{fill:#EAC1A4;}
	.st13{fill:#3B3631;}
	.st14{fill:#D5C6AB;}
	.st15{fill:#363F51;}
	.st16{fill:#D3D3D3;}
</style>
<g id="Background">
	<rect class="st0" width="1100" height="800"/>
</g>
<g id="Shadow">
	<g>
		<path class="st1" d="M521.96,644.12c-28.19,0.08-56.39,0.76-84.53,3.89c-10.61,1.18-21,3.78-31.64,4.82
			c-21.24,2.09-42.11,5.99-63.43,7.79c-17.17,1.45-34.41,2.3-51.53,4.14c-16.05,1.72-33.82,1.33-49.74-1.52
			c-11.79-2.11-23.63-3.3-35.23-6.68c-12.97-3.79-27.05-6.5-40.57-6.4c-19.27,0.14-38.03,0.16-56.47,6.85
			c-6.47,2.35-14.4,6.21-19.31,11.14c-11.25,11.28-12.77,39.43-1.54,51.13c18.92,19.69,59.3,27.42,85.83,27.79
			c29.06,0.4,57.3-1.76,86.4-3.03c27.05-1.18,54.02-2.86,81.11-2.8c55.33,0.12,110.66,0,165.89-3.7
			c51.89-3.47,103.91-2.28,155.91-2.28c53.33,0,106.29,0.42,159.23,7.51c23.07,3.09,46.57,4.17,69.75,6.33
			c20.76,1.94,40.71-0.04,61.39-1.83c17.36-1.5,34.62-5.96,50.39-13.5c12.49-5.97,34.75-24.51,38.58-38.75
			c10.74-39.93-151.3-38.97-176.18-38.88c-27.83,0.1-55.88,1.02-83.69-0.04c-11.7-0.45-23.22-2.73-34.64-5.24
			c-11.37-2.5-22.83-1.86-34.36-2.91c-48.09-4.37-96.29-3.73-144.54-3.73C553.38,644.21,537.67,644.07,521.96,644.12z"/>
	</g>
</g>
<g id="Object">
	<g>
		<g>
			<g>
				<polygon class="st2" points="870.13,513.28 873.27,586.09 864.06,709.88 850.29,710.86 833.57,598.42 810.42,503.29 				"/>
				<polygon class="st3" points="850.79,716.66 866.21,723.04 873.12,715.07 865.15,708.15 850.26,709.21 				"/>
			</g>
			<g>
				<polygon class="st2" points="772.66,487.52 769.64,542.55 778.6,706.18 792.39,706.87 813.05,599.55 831.28,481.86 				"/>
				<polygon class="st3" points="792.02,712.68 776.74,719.39 769.66,711.56 777.48,704.48 792.39,705.22 				"/>
			</g>
			<g>
				<path class="st4" d="M852.82,325.4l-43.02-4.61c0,0-23.93,2.56-40.17,59.39c-9.03,31.62-11.78,81.44-12.45,119.42
					c1.02,5.42,6.92,29.15,31.88,25.12c42.86-6.91,65.68-13.83,84.34-10.37c15.9,3.46,14.56-18.44,12.81-35.14l-6.34-51.69
					L852.82,325.4z"/>
			</g>
			<g>
				<path class="st5" d="M844.51,271.85c-10.84-2.39-22-4.53-32.86-2.38c-2.38,0.47-4.93,1.3-6.22,3.35
					c-0.5,0.8-0.76,1.71-1.01,2.62c-2.74,10.18-6.21,25.28,0.49,34.66c1.28,1.79,2.99,3.21,4.84,4.36c2.47,1.54,5.2,2.59,8.02,3.15
					c-0.58,2.53-1.4,5.01-2.43,7.39c2.48,3.74,14.06,4.19,16.2,0.6c0.12-3.11,0.24-6.21,0.36-9.32c1.41-0.57,2.77-1.26,4.05-2.1
					c4.95-3.26,8.21-8.21,10.1-13.74c2.06-6.03,4.96-11.75,6.85-17.89c0.69-2.24,1.23-4.79,0.05-6.81
					c-1.25-2.15-3.96-2.89-6.39-3.43C845.89,272.16,845.2,272,844.51,271.85z"/>
				<path class="st6" d="M808.42,277.67c5.36-3.45,13.4-4.93,18.44-4.57c15.24,1.1,20.82,12.29,21.63,26.3
					c4.2-5.33,12.07-12.04,12.55-18.91c0.39-5.62-0.39-13.28-3.54-18.13c-2.95-4.54-10.48-7.03-14.96-9.67
					c-4.22-2.48-8.44-4.96-12.67-7.44c-0.88-0.52-1.78-1.04-2.78-1.22c-1.19-0.21-2.4,0.1-3.56,0.4
					c-9.98,2.58-19.96,5.16-29.94,7.74c-1.92,0.5-4.1,1.22-4.81,3.07c-0.43,1.13-0.18,2.38,0.08,3.56
					c1.13,5.18,3.31,10.48,3.85,15.72c0.61,3.05,2.43,18.68,7.83,16.87c1.59-2.59,1.82-5.78,3.06-8.56
					C804.51,280.79,806.24,279.07,808.42,277.67z"/>
			</g>
			<polygon class="st7" points="809.8,320.79 793.9,325.63 735.82,386.47 732.37,406.52 760.13,452.36 767.63,435.56 755.87,401.68 
				774.54,388.54 799.43,332.55 			"/>
		</g>
		<g>
			<path class="st0" d="M882.05,303.75c-1.06-0.53-2.13-1.05-3.21-1.56c10.79-15.66,16.62-34.88,16.62-55.26
				c0-49.14-34.66-89.12-77.26-89.12c-42.6,0-77.26,39.98-77.26,89.12c0,20.38,5.84,39.61,16.62,55.26
				c-1.67,0.77-2.79,1.33-3.28,1.58c-45.28,20.79-74.52,66.2-74.52,115.77v30.89c0,13.3,10.82,24.11,24.11,24.11h228.64
				c13.3,0,24.11-10.82,24.11-24.11v-30.89C956.64,369.96,927.37,324.52,882.05,303.75z"/>
			<g>
				<path class="st8" d="M878.44,311.28c-0.42,0.51-0.82,1.03-1.24,1.53c-15.62,18.31-36.57,28.39-58.99,28.39
					c-22.42,0-43.37-10.08-58.99-28.39c-0.43-0.5-0.83-1.02-1.24-1.53c-41.1,18.78-69.85,60.33-69.85,108.27v30.89
					c0,8.71,7.06,15.76,15.76,15.76h228.64c8.71,0,15.76-7.06,15.76-15.76v-30.89C948.29,371.61,919.54,330.06,878.44,311.28z"/>
				<path class="st8" d="M818.21,327.7c18.1,0,34.57-8.19,46.86-21.58c13.55-14.75,22.04-35.8,22.04-59.19
					c0-44.61-30.85-80.77-68.91-80.77c-38.06,0-68.91,36.16-68.91,80.77c0,23.39,8.49,44.44,22.04,59.19
					C783.64,319.51,800.1,327.7,818.21,327.7z"/>
			</g>
		</g>
		<polygon class="st5" points="692.98,364.21 701.53,359.34 709.28,373.45 701.13,387.93 688.12,381.91 		"/>
		<polygon class="st5" points="943.43,357.58 934.89,352.71 927.13,366.82 935.28,381.3 948.29,375.28 		"/>
	</g>
	<g>
		<g>
			<g>
				<g>
					<polygon class="st9" points="307.55,519.15 247.74,497.15 260.07,601.93 252.92,692.33 252.73,692.94 252.88,692.95 
						252.86,693.15 264.66,694.27 264.66,694.26 265.1,694.31 291.45,613.77 305.39,527.98 305.39,527.98 					"/>
					<polygon class="st9" points="264.05,698.39 251.81,698.08 248.68,708.41 248.99,708.5 248.91,708.51 269.14,720.5 
						278.76,721.57 279.99,710.57 277.39,708.67 					"/>
				</g>
				<g>
					<polygon class="st9" points="348.3,520.95 330.35,700.35 318.51,700.89 306.61,604.02 285.99,507.54 					"/>
					<polygon class="st9" points="330.31,704.52 346,713.41 344.53,720.81 316.51,716.59 318.15,705.93 					"/>
				</g>
				<g>
					<g>
						<path class="st10" d="M376.34,566c3.78-2.63,3.87-7.2,3.86-11.79c-0.01-8.61-1.56-17.4-3.53-25.77
							c-3.76-15.69-8.01-34.58-9.89-54.91c-4.84-52.54-21.43-87.8-21.43-87.8l-5.35-14.28c-1.06-1.86-2.17-3.69-3.32-5.5
							c-6.69-10.49-18.3-28.32-30.71-31.24c-0.26-0.06-0.52-0.12-0.78-0.18c-13.06-2.87-29.78-1.54-41.58,4.81
							c-2.24,1.2-4.23,2.81-6.21,4.4c-5.77,4.65-10.47,7.17-12.96,14.27c-2.16,6.16-2.66,12.88-3.85,19.26
							c-2.42,12.96-3.86,26.08-5.79,39.12c-3.62,24.45-6.7,48.98-10.57,73.4c-1.99,12.57-4,25.15-4.94,37.85
							c-0.83,11.23-10.96,22.62-16.65,32.69c-1.98,3.5,26.46,12.57,29.01,13.17c11.8,2.75,24.35,2.04,36.51,2.1
							c26.65,0.12,53.31-0.7,79.9-2.46c8.84-0.59,19.73-2.27,27.57-6.67C375.86,566.32,376.11,566.16,376.34,566z"/>
					</g>
					<path class="st10" d="M290.54,333.1c0,0-15.01-4.05-17.09,29.82s-5.53,119.6-10.37,143.11c-4.84,23.51-12.1,69.61-12.1,69.61
						l45.97,1.6l52.54-4.15c0,0-17.97-33.18-20.74-56.69c-2.77-23.51,2.07-112-9.68-145.18C307.32,338.04,304.86,333.7,290.54,333.1
						z"/>
					<g>
						<polygon class="st11" points="358.48,408.55 361.94,412.7 374.38,395.42 324.61,340.11 305.94,334.58 314.93,358.77 						"/>
					</g>
					<polygon class="st12" points="316.88,394.24 305.96,385.91 309.31,381.09 318.05,385.13 318.58,382.12 327.06,390.38 
						324.25,395.87 					"/>
					<g>
						<polygon class="st11" points="359.67,392.11 359.18,393.19 325.13,386.62 320.11,397.79 361.94,412.7 						"/>
					</g>
				</g>
				<g>
					<g>
						<path class="st13" d="M311.48,306.26c2.27,6.82-1.02,14.09-3.9,20.31c-2.56,5.51-3.45,9.14,3.05,10.63
							c3.66,0.84,10.16,2.4,13.37-0.4c2.43-2.12,1.06-8.68-0.12-11.29c-0.9-1.99-3.29-3-4.14-5.01c-0.35-0.83-0.4-1.75-0.41-2.65
							c-0.05-3.68,0.46-7.36,1.5-10.89c0.71-2.39,1.67-4.75,1.89-7.23c0.31-3.61-2.24-7.81-3.58-11.13
							c-2.49-6.17-11.18-14.44-18.45-9.6c-1.66,1.1-2.62,2.97-3.42,4.78c-0.48,1.09-0.94,2.22-0.95,3.41
							c-0.06,4.74,4.27,5.53,7.25,7.79C307.23,297.76,310.03,301.91,311.48,306.26z"/>
						<path class="st14" d="M297.65,332.88c6.31-1.49,11.24-6.78,13.6-12.81c2.37-6.03,2.49-12.71,1.84-19.16
							c-2.18-21.45-28.86-20.07-37.89-3.63C267.33,311.6,279.32,337.2,297.65,332.88z"/>
					</g>
					<path class="st14" d="M297.64,330.57c-0.11,2.44-0.21,4.89-0.32,7.33c-0.02,0.36-0.05,0.75-0.3,1.01
						c-0.28,0.29-0.74,0.3-1.15,0.28c-1.99-0.07-3.98-0.14-5.97-0.21c-0.99-0.03-2.01-0.08-2.88-0.55c-1.9-1.02-2.3-3.6-1.99-5.74
						c0.3-2.14,1.07-4.3,0.62-6.41c4.11,2.03,8.02-2.55,12.13-0.53L297.64,330.57z"/>
				</g>
				<path class="st13" d="M289.04,263.73c-7,2.38-11.5,9.46-18.33,12.29c-3.92,1.62-8.56,1.83-11.76,4.62
					c-7.17,6.25-1.41,19.36-7.3,26.82c-1.22,1.55-2.88,2.73-4.1,4.27c-2.65,3.34-3,7.9-3.24,12.15c-0.05,0.96-0.06,2,0.1,2.97
					c0.92,9.83,15.2,9.21,20.86,8.58c6.22-0.69,4.15-4.15,4.15-4.15l-0.23-0.28c-0.6-3.99,1.04-8.25,4.18-10.79
					c1.16-0.94,2.54-1.7,3.36-2.95c1.84-2.81,0.08-6.54,0.35-9.89c1.09-13.5,23.75-10.61,30.14-20.22
					C315.09,275.37,302.27,259.23,289.04,263.73z"/>
			</g>
		</g>
		<g>
			<path class="st0" d="M356.93,303.75c-1.06-0.53-2.13-1.05-3.21-1.56c10.79-15.66,16.62-34.88,16.62-55.26
				c0-49.14-34.66-89.12-77.26-89.12c-42.6,0-77.26,39.98-77.26,89.12c0,20.38,5.84,39.61,16.62,55.26
				c-1.67,0.77-2.79,1.33-3.28,1.58c-45.28,20.79-74.52,66.2-74.52,115.77v30.89c0,13.3,10.82,24.11,24.11,24.11h228.64
				c13.3,0,24.11-10.82,24.11-24.11v-30.89C431.52,369.96,402.25,324.52,356.93,303.75z"/>
			<g>
				<path class="st8" d="M353.32,311.28c-0.42,0.51-0.82,1.03-1.24,1.53c-15.62,18.31-36.57,28.39-58.99,28.39
					c-22.42,0-43.37-10.08-58.99-28.39c-0.43-0.5-0.83-1.02-1.24-1.53c-41.1,18.78-69.85,60.33-69.85,108.27v30.89
					c0,8.71,7.06,15.76,15.76,15.76h228.64c8.71,0,15.76-7.06,15.76-15.76v-30.89C423.17,371.61,394.42,330.06,353.32,311.28z"/>
				<path class="st8" d="M293.09,327.7c18.1,0,34.57-8.19,46.86-21.58c13.55-14.75,22.04-35.8,22.04-59.19
					c0-44.61-30.85-80.77-68.91-80.77c-38.06,0-68.91,36.16-68.91,80.77c0,23.39,8.49,44.44,22.04,59.19
					C258.52,319.51,274.98,327.7,293.09,327.7z"/>
			</g>
		</g>
		<polygon class="st12" points="167.87,364.21 176.41,359.34 184.17,373.45 176.02,387.93 163.01,381.91 		"/>
		<polygon class="st12" points="418.31,357.58 409.77,352.71 402.01,366.82 410.16,381.3 423.17,375.28 		"/>
	</g>
	<g>
		<polygon class="st15" points="614.98,700.74 616.1,709.47 599.76,720.45 589.9,712.84 597.51,702.98 613.85,692 		"/>
		<g>
			<polygon class="st16" points="615.53,697.8 602.92,586.42 618.09,461.73 614.68,435.2 546.94,432.63 544.5,475.8 555.87,586.59 
				598.65,703.5 			"/>
		</g>
		<polygon class="st9" points="540.58,309.39 506.51,318.67 467.1,388.49 485.77,405.78 512.04,374.67 		"/>
		<g>
			<polygon class="st16" points="497.24,445.11 497.06,557.51 519.68,702.21 535.97,702.04 544.92,568.23 565.87,434.3 			"/>
			<polygon class="st15" points="535.94,708.91 518.42,717.89 509.53,709.18 518.25,700.28 535.86,700.11 			"/>
		</g>
		<g>
			<path class="st9" d="M625.1,483.34c-0.16-4.87-0.43-8.94-0.46-10.39c-0.35-13.07-1.51-26.1-3.15-39.08
				c-1.47-11.63-3.32-40.49-5.31-52.04c-1.64-9.54-7.37-33.35-11.5-42.2c-10.29-22.01-7.11-24.04-52.29-30.57
				c-19.8-2.86-24.48,9.48-40.67,23.67c-1.6,1.4-1.51,9.73-1.88,11.94c-0.65,3.89-1.35,7.77-2.15,11.63
				c-0.63,3.04-1.32,6.06-2.1,9.07c-8.06,31.11-17.32,61.02-19.21,93.27c-0.54,9.1-3.33,17.93-3.09,27.11
				c0.03,1.06,0.12,2.19,0.77,3.01c2.73,3.45,17.83-1.82,22.41-2.27c11.66-1.15,23.56-1.87,35.28-1.78
				c12.03,0.09,24.11,1.31,35.94,3.35c7.91,1.32,15.98,3.24,23.06,6.94c6.75,3.53,11.62,8.71,18.47,12.36
				c0.65,0.35,1.36,0.7,2.1,0.6C625.24,507.41,625.43,493.59,625.1,483.34z"/>
		</g>
		<g>
			<path class="st14" d="M552.34,315.26c2.28,1.13,7.66,1.53,13.27-0.67c1.13-0.44,1.89-1.53,1.88-2.75
				c-0.04-3.41-0.32-6.82-0.82-10.19c4.21-1.48,9.07-3.7,9.81-8.1c0.23-1.39-0.01-2.8-0.25-4.19c-0.99-5.73-1.98-11.45-2.97-17.18
				c-0.34-1.98-0.71-4.02-1.78-5.72c-1.89-2.98-5.56-4.28-9.03-4.88c-8.87-1.54-18.53,0.38-25.4,6.19c-1.83,1.55-3.48,3.4-4.29,5.66
				c-1.24,3.48-0.31,7.31,0.62,10.88c0.87,3.3,1.73,6.59,2.6,9.89c1,3.79,2.43,8.1,6.09,9.52c1.94,0.76,4.23,0.53,5.99,1.65
				C551.14,307.36,550.73,311.97,552.34,315.26z"/>
			<path class="st13" d="M503.43,257.91c-1.52-14.22,4.69-29.19,16.39-26.21c7.08,1.8,13.42,4.79,20.55,2.13
				c6.7-2.5,11.54-1.48,18.54,1.02c7.58,2.7,17.75,3.34,24.61,7.16c2.86,1.59,5.15,4.09,6.93,6.84c6.17,9.53,6.21,22.68,0.08,32.25
				c-1.37,2.15-3.02,4.11-4.74,5.98c-3.58,3.88-7.85,8.67-12.77,10.1c-0.12-4.4,3.89-18.27,0.51-21.88
				c-5.36-5.72-17.49-3.73-24.14-2.32c-7.26,1.54-13.72,6.68-20.92,7.77C512.6,283.17,504.82,270.85,503.43,257.91z"/>
		</g>
	</g>
	<g>
		<path class="st0" d="M634.96,227.64c-1.24-0.62-2.49-1.23-3.76-1.82c12.61-18.31,19.44-40.79,19.44-64.61
			c0-57.46-40.52-104.21-90.34-104.21s-90.34,46.75-90.34,104.21c0,23.84,6.83,46.31,19.44,64.62c-1.96,0.9-3.26,1.56-3.83,1.85
			c-52.94,24.31-87.14,77.41-87.14,135.37v36.12c0,15.55,12.65,28.2,28.2,28.2h267.35c15.55,0,28.2-12.65,28.2-28.2v-36.12
			C722.18,305.06,687.95,251.93,634.96,227.64z"/>
		<g>
			<path class="st2" d="M630.74,236.45c-0.49,0.59-0.95,1.2-1.45,1.79c-18.27,21.41-42.76,33.2-68.98,33.2
				c-26.22,0-50.71-11.79-68.98-33.2c-0.5-0.58-0.97-1.19-1.45-1.79c-48.06,21.96-81.67,70.54-81.67,126.6v36.12
				c0,10.18,8.25,18.43,18.43,18.43h267.35c10.18,0,18.43-8.25,18.43-18.43v-36.12C712.41,306.99,678.8,258.41,630.74,236.45z"/>
			<path class="st2" d="M560.31,255.65c21.17,0,40.42-9.58,54.8-25.23c15.85-17.25,25.77-41.87,25.77-69.21
				c0-52.16-36.07-94.45-80.57-94.45c-44.5,0-80.57,42.28-80.57,94.45c0,27.35,9.93,51.97,25.77,69.21
				C519.89,246.07,539.14,255.65,560.31,255.65z"/>
		</g>
	</g>
	<polygon class="st12" points="469.22,426.92 465.5,417.82 480.49,411.96 493.8,421.91 486.15,434.03 	"/>
	<polygon class="st12" points="636.64,426.87 640.33,417.76 625.31,411.95 612.04,421.95 619.74,434.04 	"/>
</g>
</svg>
